<svg version="1.1" id="Layer_1" xmlns="http://www.w3.org/2000/svg" xmlns:xlink="http://www.w3.org/1999/xlink" x="0px" y="0px"
	 width="100%" viewBox="0 0 3425 1657" enable-background="new 0 0 3425 1657" xml:space="preserve">
<path fill="#FFFFFF" opacity="1.000000" stroke="none" 
	d="
M1994.000000,1660.000000 
	C1329.333374,1660.000000 665.666687,1660.000000 2.000000,1660.000000 
	C2.000000,1107.333374 2.000000,554.666687 2.000000,2.000000 
	C1144.000000,2.000000 2286.000000,2.000000 3428.000000,2.000000 
	C3428.000000,554.666687 3428.000000,1107.333374 3428.000000,1660.000000 
	C2950.333252,1660.000000 2472.666748,1660.000000 1994.000000,1660.000000 
M2915.626465,1127.987915 
	C2915.562988,1110.714722 2915.499756,1093.441406 2915.882324,1074.479492 
	C2915.749268,1071.601685 2915.616211,1068.723877 2915.640381,1063.998169 
	C2915.653076,1038.004395 2915.720459,1012.010437 2915.655273,986.016846 
	C2915.621826,972.698364 2915.351318,959.380432 2915.564453,945.120544 
	C2915.557129,944.782593 2915.550049,944.444580 2915.916016,942.698853 
	C2915.759033,941.746277 2915.602295,940.793762 2915.634277,937.996826 
	C2915.647705,783.482300 2915.661621,628.967773 2915.668213,474.453278 
	C2915.668457,473.122925 2915.568115,471.792572 2914.808350,468.965820 
	C2911.874756,468.643890 2908.941162,468.041840 2906.007324,468.040497 
	C2799.812256,467.992279 2693.617188,467.988678 2587.422119,468.053802 
	C2584.185791,468.055786 2580.949951,468.854584 2576.110840,469.348938 
	C2573.969482,469.495941 2571.827881,469.642975 2569.042969,469.641815 
	C2569.042969,469.641815 2568.408447,469.460144 2567.076416,468.505463 
	C2563.844971,468.608948 2560.613770,468.712433 2555.682617,468.939941 
	C2549.996094,468.898071 2544.309570,468.856232 2537.082520,468.239471 
	C2533.926758,468.636963 2530.770752,469.034454 2526.741699,469.597626 
	C2526.162109,469.646210 2525.585205,469.715027 2523.360596,469.420074 
	C2521.667725,469.375854 2519.975098,469.331635 2516.898193,468.381470 
	C2513.243652,468.254333 2509.589111,468.015839 2505.934570,468.015747 
	C1847.031982,467.999390 1188.129517,467.999969 529.226990,468.000854 
	C526.227478,468.000854 523.197876,467.769196 520.242065,468.132080 
	C518.909180,468.295715 517.723389,469.656555 516.350586,472.284302 
	C516.341003,515.575928 516.303711,558.867615 516.378601,602.159058 
	C516.384155,605.362915 517.196594,608.565369 517.237549,613.431152 
	C517.154663,616.816040 517.071716,620.200989 516.292358,624.415955 
	C516.486816,625.070129 516.681335,625.724365 516.750244,628.200623 
	C516.650146,681.379272 516.550110,734.557922 516.122803,789.081726 
	C516.311218,789.502930 516.499695,789.924194 516.684265,791.667847 
	C516.713379,792.989502 516.742493,794.311157 516.202576,796.540100 
	C516.460815,797.166870 516.719116,797.793579 516.972595,799.766602 
	C517.094482,800.651550 517.216309,801.536499 517.039124,803.083618 
	C517.081543,803.572388 517.250000,804.012756 517.408569,805.904236 
	C517.762878,807.838318 518.117126,809.772339 516.858521,811.838989 
	C516.679626,815.480713 516.346863,819.122253 516.344604,822.764099 
	C516.293762,905.003784 516.279175,987.243469 517.111389,1070.923584 
	C521.364929,1071.282471 525.618469,1071.954712 529.872070,1071.955444 
	C839.885071,1072.004395 1149.898071,1071.999634 1459.911011,1072.003662 
	C1464.572510,1072.003784 1469.233887,1072.061157 1474.632935,1072.194580 
	C1474.632935,1072.194580 1475.377563,1072.185913 1475.629395,1074.019775 
	C1475.648560,1080.016357 1475.666748,1086.012817 1475.687134,1092.009399 
	C1475.800293,1125.317383 1475.914062,1158.625366 1477.145630,1193.179443 
	C1481.432983,1193.453003 1485.720215,1193.965698 1490.007568,1193.966064 
	C1943.575684,1194.002319 2397.143799,1194.000000 2850.711914,1194.000000 
	C2869.374512,1194.000000 2888.038086,1194.108154 2906.698242,1193.890259 
	C2909.703857,1193.855225 2912.692871,1192.366333 2915.672607,1189.747314 
	C2915.270264,1182.975464 2914.867920,1176.203613 2914.980225,1167.993408 
	C2915.094482,1165.442139 2915.208984,1162.890869 2915.878174,1159.082275 
	C2915.770264,1158.637207 2915.662109,1158.192139 2915.659668,1155.962769 
	C2915.511719,1149.430298 2915.364014,1142.897705 2915.819336,1134.799683 
	C2915.691650,1133.143433 2915.564209,1131.487183 2915.626465,1127.987915 
z"/>
<path fill="#4C6971" opacity="1.000000" stroke="none" 
	d="
M517.633850,611.768433 
	C517.196594,608.565369 516.384155,605.362915 516.378601,602.159058 
	C516.303711,558.867615 516.341003,515.575928 517.295410,471.248657 
	C522.568604,470.142334 526.896912,470.009827 531.225281,470.009766 
	C1188.940918,470.000580 1846.656616,470.002502 2504.372314,469.971588 
	C2509.009033,469.971375 2513.645508,469.525330 2518.282227,469.287476 
	C2519.975098,469.331635 2521.667725,469.375854 2523.535889,470.175537 
	C2485.117188,477.380981 2456.816895,498.727997 2436.417725,531.404785 
	C2418.642578,559.878296 2401.046631,588.463806 2383.248779,616.923157 
	C2325.272705,709.628540 2267.215576,802.283020 2209.253174,894.996887 
	C2198.705811,911.867981 2188.458496,928.926819 2178.615479,946.532959 
	C2182.775146,947.444641 2186.391846,947.961304 2190.009033,947.964355 
	C2249.628662,948.014465 2309.248535,948.000000 2368.868164,948.000000 
	C2450.803467,948.000000 2532.739014,948.027405 2614.674072,947.912109 
	C2618.440430,947.906799 2622.205322,946.619751 2626.073242,945.118774 
	C2625.990967,942.990967 2625.919678,941.646118 2625.604492,940.361084 
	C2615.558594,899.380005 2605.553955,858.388672 2595.408203,817.432190 
	C2579.195068,751.982239 2562.874023,686.559021 2546.621338,621.118896 
	C2536.054932,578.575317 2525.523926,536.023010 2515.004150,493.467834 
	C2514.640625,491.997925 2514.574219,490.454620 2514.072754,486.763489 
	C2516.680664,490.309998 2518.134766,492.036499 2519.317627,493.932343 
	C2544.491455,534.282288 2569.642334,574.646362 2594.782715,615.017212 
	C2648.580322,701.406311 2702.387451,787.789185 2756.148926,874.200806 
	C2770.903809,897.916321 2785.509277,921.724487 2800.631348,946.207886 
	C2802.665527,947.281006 2804.250977,947.943726 2805.837402,947.946716 
	C2839.045898,948.009338 2872.254150,948.026978 2905.462402,947.932800 
	C2907.654785,947.926575 2909.844482,946.955017 2912.553467,946.304321 
	C2913.777100,946.138245 2914.482422,946.100220 2915.187988,946.062256 
	C2915.351318,959.380432 2915.621826,972.698364 2915.655273,986.016846 
	C2915.720459,1012.010437 2915.653076,1038.004395 2915.093750,1064.972412 
	C2914.547119,1065.946533 2913.611816,1066.051147 2912.930664,1065.923584 
	C2897.516113,1055.005981 2880.607422,1054.377563 2863.566650,1056.324097 
	C2853.185547,1057.509766 2843.936768,1062.296143 2836.521729,1070.080566 
	C2824.275146,1082.937500 2822.255127,1103.904175 2831.997803,1117.759766 
	C2837.265869,1125.251465 2845.234375,1128.483887 2853.389404,1131.516357 
	C2862.085693,1134.750244 2870.797607,1137.970581 2879.332275,1141.598511 
	C2883.494873,1143.367920 2886.352783,1146.646851 2886.061035,1151.706299 
	C2885.753662,1157.033447 2882.609863,1160.199585 2877.947021,1162.011841 
	C2867.498779,1166.072876 2857.756348,1164.695923 2848.883789,1157.807373 
	C2846.831787,1156.214233 2844.977051,1154.367065 2842.356445,1152.036621 
	C2835.498047,1159.692871 2828.911377,1167.046021 2821.781738,1175.005249 
	C2824.701172,1177.508057 2826.859131,1180.214111 2829.668213,1181.599731 
	C2837.019531,1185.225586 2844.655029,1188.274536 2851.247070,1191.752686 
	C2827.750244,1191.967407 2805.183594,1192.043457 2782.617188,1191.978394 
	C2766.370117,1191.931519 2750.123779,1191.696289 2734.397217,1191.053711 
	C2748.218018,1187.409424 2759.389160,1180.971924 2768.746338,1169.081177 
	C2760.285645,1162.737915 2752.506836,1156.906006 2744.581543,1150.964111 
	C2742.275391,1153.030640 2740.828125,1154.343994 2739.363281,1155.637085 
	C2727.565430,1166.051025 2712.030273,1166.979736 2698.850586,1158.612427 
	C2678.244873,1145.530884 2676.775391,1112.540894 2691.025879,1095.659058 
	C2703.000732,1081.473267 2724.545654,1076.979736 2740.517090,1091.509033 
	C2741.199463,1092.129639 2742.215820,1092.383423 2743.357910,1092.947021 
	C2750.444824,1087.103882 2757.510498,1081.278442 2765.416992,1074.759644 
	C2761.663818,1071.221558 2759.022217,1068.321289 2755.979004,1065.932983 
	C2742.074951,1055.021851 2725.723145,1054.465942 2709.319336,1056.151245 
	C2689.082764,1058.230225 2672.625977,1067.591187 2661.433594,1084.950439 
	C2650.406982,1102.052246 2648.281738,1120.894287 2652.536621,1140.386719 
	C2656.793457,1159.888794 2666.974365,1175.362549 2685.810303,1183.806885 
	C2692.410645,1186.766113 2699.341553,1188.988403 2705.195801,1191.749146 
	C2569.131348,1191.974243 2433.992676,1191.999023 2298.853760,1192.004272 
	C2297.201660,1192.004395 2295.549561,1191.754761 2294.450195,1191.135498 
	C2313.360596,1187.611450 2326.908691,1178.233276 2330.977783,1159.509888 
	C2335.515137,1138.630981 2329.469482,1123.871460 2310.541016,1116.290649 
	C2306.243408,1114.569580 2301.685303,1113.507446 2297.347168,1111.876343 
	C2291.144775,1109.544312 2284.720947,1107.535645 2278.962158,1104.355591 
	C2271.297607,1100.122925 2271.128662,1091.310791 2278.479980,1086.749390 
	C2283.820312,1083.435913 2289.622559,1080.752808 2296.351318,1083.479980 
	C2301.787109,1085.683105 2307.368408,1087.526855 2314.237305,1090.020874 
	C2316.951904,1086.904053 2319.991455,1083.386108 2323.062744,1079.896118 
	C2326.071777,1076.476929 2329.113037,1073.086182 2332.194580,1069.621704 
	C2330.714111,1068.023560 2329.936035,1066.899170 2328.902100,1066.109863 
	C2310.842529,1052.325073 2276.512451,1051.926758 2258.224609,1065.179810 
	C2238.363525,1079.572876 2233.132324,1116.055054 2263.505127,1128.621216 
	C2271.777100,1132.043579 2280.395752,1134.622437 2288.708984,1137.953857 
	C2292.337402,1139.407837 2296.008789,1141.308472 2298.929688,1143.847290 
	C2303.428955,1147.758057 2303.681152,1153.960938 2299.280273,1157.862549 
	C2296.200928,1160.592896 2292.121826,1163.027588 2288.152588,1163.752319 
	C2279.280762,1165.372070 2270.998291,1163.073853 2264.007812,1157.014160 
	C2262.336182,1155.564941 2260.610107,1154.178101 2258.349121,1152.296631 
	C2251.452637,1160.105225 2244.953369,1167.463989 2238.321533,1174.972778 
	C2246.708496,1184.535156 2257.784912,1187.376465 2267.197266,1191.746094 
	C2191.454590,1191.970337 2116.637695,1191.997070 2041.820801,1191.996948 
	C2039.840698,1191.996948 2037.860596,1191.702515 2036.452148,1191.044922 
	C2046.000610,1188.213135 2055.097412,1186.256836 2063.918213,1183.437012 
	C2071.656250,1180.963135 2072.127441,1179.867065 2072.134521,1171.965698 
	C2072.152344,1151.990723 2072.037354,1132.015625 2071.416504,1111.416016 
	C2055.381592,1110.610229 2039.905884,1110.405518 2024.429443,1110.312134 
	C2023.592407,1110.307007 2022.750000,1111.234497 2021.345093,1112.357422 
	C2019.703979,1121.176025 2019.846191,1129.312012 2020.775391,1137.577637 
	C2028.970703,1137.968018 2036.117065,1138.308472 2043.825684,1138.675781 
	C2043.825684,1144.084106 2043.646118,1148.393066 2043.875488,1152.680176 
	C2044.113037,1157.119995 2041.819824,1159.467041 2038.007446,1160.817383 
	C2014.297241,1169.216431 1985.156738,1164.001465 1978.667603,1131.329590 
	C1975.644775,1116.109131 1982.747314,1097.047363 1994.289551,1089.773438 
	C2010.486328,1079.566040 2028.720947,1080.760132 2043.030884,1090.114746 
	C2045.156128,1091.504028 2047.268433,1092.913086 2049.660400,1094.493896 
	C2056.511475,1086.965698 2062.897705,1079.948242 2069.983643,1072.161743 
	C2065.870361,1069.262085 2062.620850,1066.442627 2058.924316,1064.453857 
	C2039.160034,1053.820190 2018.063232,1053.515991 1996.828613,1057.914673 
	C1977.034790,1062.014526 1962.870728,1074.008667 1953.972656,1092.123047 
	C1945.960693,1108.433594 1945.996948,1125.610718 1949.884277,1142.746216 
	C1955.091553,1165.699829 1969.660034,1180.560059 1991.864868,1188.014038 
	C1995.893799,1189.366577 2000.021240,1190.426147 2003.175537,1191.805420 
	C1948.101440,1191.993286 1893.954834,1192.003052 1839.808350,1191.980835 
	C1837.165771,1191.979736 1834.523071,1191.697510 1832.416748,1191.054199 
	C1855.658569,1185.950073 1872.913452,1174.030518 1881.755981,1152.183350 
	C1886.883179,1139.515137 1888.255859,1126.187988 1886.335327,1112.286865 
	C1883.327393,1090.514771 1872.519775,1074.544556 1853.656250,1063.807861 
	C1837.826172,1054.797852 1820.372192,1054.011963 1803.144165,1056.390503 
	C1775.348389,1060.228027 1754.548096,1079.241333 1749.260742,1104.399048 
	C1747.441284,1113.056152 1747.754639,1122.273071 1747.939209,1131.216797 
	C1748.342651,1150.760010 1756.969360,1166.264038 1772.380371,1178.126221 
	C1781.794189,1185.372314 1792.850342,1188.718506 1803.175659,1191.806152 
	C1693.507935,1191.972046 1584.767822,1191.952759 1476.027588,1191.933350 
	C1475.914062,1158.625366 1475.800293,1125.317383 1475.687134,1092.009399 
	C1475.666748,1086.012817 1475.648560,1080.016357 1475.609619,1072.616699 
	C1475.312744,1070.440552 1474.779297,1070.166504 1473.065674,1070.228394 
	C1468.142334,1070.043213 1464.142944,1070.001465 1460.143555,1070.001465 
	C1150.169556,1069.998291 840.195496,1070.000732 530.221436,1069.977051 
	C525.566895,1069.976685 520.912354,1069.654907 516.257812,1069.483154 
	C516.279175,987.243469 516.293762,905.003784 516.344604,822.764099 
	C516.346863,819.122253 516.679626,815.480713 518.477661,812.039551 
	C520.847168,814.027344 521.770813,815.762939 522.322388,817.609619 
	C533.410889,854.731934 553.513000,885.834778 584.493103,909.371033 
	C614.734314,932.346008 648.865051,945.738953 687.013245,945.889526 
	C797.647156,946.326294 908.283813,946.050354 1018.919434,946.014893 
	C1021.778870,946.013977 1024.638184,945.560547 1027.299805,945.334961 
	C1029.077637,930.326721 1028.481079,856.130188 1026.404541,848.043579 
	C1023.388794,848.043579 1020.124817,848.043518 1016.860779,848.043518 
	C998.532593,848.043518 980.204407,848.043518 961.876221,848.043518 
	C872.901184,848.043518 783.923279,847.616028 694.952393,848.222778 
	C650.042480,848.528931 612.897888,811.862793 613.966003,767.646790 
	C614.875183,730.012695 614.514771,692.334717 614.053833,654.684265 
	C613.577698,615.791321 642.833069,580.079346 684.867004,575.743286 
	C763.736084,575.914368 841.671570,575.954041 919.607056,575.982971 
	C952.913086,575.995361 986.219421,576.048767 1019.524658,575.887390 
	C1022.888184,575.871094 1026.245117,574.495239 1029.685425,572.832642 
	C1029.792480,543.341797 1029.868530,514.768433 1029.768677,486.195740 
	C1029.758789,483.372986 1028.672241,480.553986 1027.448975,477.198700 
	C1024.179932,476.442963 1021.547363,476.029053 1018.914673,476.028290 
	C908.409058,475.995941 797.903503,475.985748 687.397949,476.075256 
	C684.237732,476.077820 681.078491,477.188477 677.072632,477.862976 
	C672.308655,478.519348 668.389832,479.088898 664.473022,479.671967 
	C614.357239,487.131683 575.861877,513.035461 546.791138,553.865662 
	C535.309082,569.992371 527.547058,587.866577 522.132324,606.824219 
	C521.443604,609.235535 521.800354,612.544067 517.633850,611.768433 
M2583.493164,1059.131226 
	C2583.159668,1058.531616 2582.650391,1058.255737 2580.125977,1058.123169 
	C2572.096191,1058.183228 2564.066406,1058.243408 2555.140381,1058.473877 
	C2554.541748,1058.827759 2554.297607,1059.348022 2554.242432,1061.897095 
	C2554.212891,1082.843994 2554.169189,1103.790771 2554.157959,1124.737671 
	C2554.146973,1145.552734 2554.169189,1166.367920 2554.176758,1187.277588 
	C2564.762451,1187.277588 2573.854248,1187.277588 2583.591309,1187.277588 
	C2583.591309,1144.355347 2583.591309,1102.196655 2583.493164,1059.131226 
M2145.140381,1058.473877 
	C2144.541748,1058.827759 2144.297607,1059.348022 2144.242188,1061.897095 
	C2144.368408,1103.207397 2144.493408,1144.517700 2144.643799,1185.827881 
	C2144.644775,1186.094849 2144.977783,1186.371948 2145.180908,1186.623901 
	C2145.389648,1186.882690 2145.629395,1187.116455 2145.769775,1187.268188 
	C2155.021240,1187.268188 2164.167969,1187.268188 2173.460449,1187.268188 
	C2173.460449,1144.019897 2173.460449,1101.552734 2173.460449,1058.303467 
	C2163.871094,1058.303467 2154.953857,1058.303467 2145.140381,1058.473877 
M1637.493042,1059.131470 
	C1637.159668,1058.531982 1636.650757,1058.255981 1634.126465,1058.123169 
	C1626.096680,1058.183228 1618.066895,1058.243286 1609.140503,1058.473755 
	C1608.541504,1058.827637 1608.297607,1059.347900 1608.242310,1061.896851 
	C1608.212891,1082.859497 1608.134155,1103.822144 1608.167847,1124.784668 
	C1608.201416,1145.605713 1607.942993,1166.436768 1608.352783,1187.385986 
	C1636.176147,1187.385986 1662.623413,1187.385986 1689.970215,1187.385986 
	C1689.970215,1178.514526 1689.970215,1170.282104 1688.858032,1160.795044 
	C1685.570679,1160.530029 1682.284790,1160.059570 1678.995728,1160.035767 
	C1665.343994,1159.937134 1651.691406,1159.973389 1637.893921,1158.094971 
	C1637.792969,1125.409302 1637.692017,1092.723633 1637.493042,1059.131470 
M1638.038086,481.363983 
	C1651.119873,502.980865 1664.231812,524.579529 1677.276978,546.218384 
	C1703.372925,589.505493 1729.378784,632.846985 1755.520874,676.106201 
	C1785.448486,725.629272 1815.454346,775.105164 1845.484497,824.566284 
	C1861.187744,850.430420 1876.038696,876.881775 1893.009033,901.890991 
	C1920.679199,942.668152 1961.063721,958.674744 2008.889038,953.199890 
	C2047.807251,948.744690 2077.281738,927.296997 2097.901367,893.871277 
	C2112.563477,870.102966 2127.376953,846.427673 2142.183594,822.748901 
	C2164.041992,787.793640 2186.004395,752.903381 2207.831787,717.928833 
	C2238.292480,669.120117 2268.664062,620.255676 2299.083740,571.421448 
	C2318.075439,540.933167 2337.085693,510.456635 2357.011963,478.954712 
	C2356.814697,474.447388 2353.269043,476.089142 2351.121582,476.081848 
	C2317.541260,475.967743 2283.960693,475.968292 2250.380371,476.079712 
	C2248.228271,476.086853 2246.079590,477.216003 2242.829834,478.620361 
	C2225.723145,505.966553 2208.610107,533.308838 2191.510986,560.659668 
	C2158.202881,613.937134 2124.888672,667.210510 2091.605225,720.503418 
	C2072.938232,750.392883 2054.351807,780.332825 2035.679688,810.219177 
	C2028.105469,822.342407 2020.860596,834.707458 2012.645630,846.385437 
	C2000.885010,863.103699 1981.016846,859.437256 1972.404541,846.590820 
	C1970.923096,844.380981 1969.475220,842.145264 1968.100098,839.868164 
	C1940.426758,794.040222 1912.775024,748.199341 1885.101807,702.371277 
	C1844.709961,635.480408 1804.337036,568.577942 1763.862793,501.736755 
	C1758.901245,493.542908 1753.365967,485.696350 1746.803833,476.646667 
	C1745.506714,476.434479 1744.209839,476.038452 1742.912476,476.036987 
	C1709.767700,476.000031 1676.622803,475.993622 1643.478027,476.028412 
	C1641.529663,476.030457 1639.546997,476.288757 1637.671753,476.778931 
	C1637.394531,476.851410 1637.628052,478.878052 1638.038086,481.363983 
M1246.205444,477.942932 
	C1234.482544,480.125946 1222.524414,481.464844 1211.082520,484.655609 
	C1180.875488,493.079315 1155.688843,509.722717 1134.007568,532.408203 
	C1103.417236,564.415344 1087.163940,602.454041 1086.078003,646.347290 
	C1085.023315,688.975098 1085.688721,731.650330 1085.909546,774.303101 
	C1086.044434,800.345337 1092.799194,825.047852 1104.445068,848.086182 
	C1115.933594,870.813538 1131.305786,890.841064 1151.629028,906.686279 
	C1182.983765,931.132507 1218.133911,945.820190 1258.211670,945.934998 
	C1369.510864,946.253906 1480.811523,946.050598 1592.111694,946.019226 
	C1595.005249,946.018433 1597.898804,945.621948 1601.591553,945.351562 
	C1601.591553,913.167358 1601.591553,881.602478 1601.493042,849.131348 
	C1601.159790,848.531921 1600.650879,848.255859 1598.104492,848.121948 
	C1592.105957,848.095703 1586.107422,848.046631 1580.108887,848.046387 
	C1474.796997,848.041626 1369.485107,848.001465 1264.173218,848.092712 
	C1250.176636,848.104797 1237.112915,844.864868 1225.036377,838.022705 
	C1202.847290,825.451111 1189.837524,806.169128 1184.817871,781.363770 
	C1183.713135,775.904541 1183.031250,770.333252 1185.043823,764.046204 
	C1189.330322,764.046204 1193.267700,764.046204 1197.205078,764.046204 
	C1289.852905,764.046204 1382.500732,764.107361 1475.148315,763.957397 
	C1485.077515,763.941345 1495.158081,763.573914 1504.907227,761.872681 
	C1555.906738,752.973267 1591.217041,724.289978 1610.155640,676.082031 
	C1620.338013,650.163025 1621.964966,623.219543 1618.286865,595.698425 
	C1614.314209,565.974670 1601.791870,540.385925 1581.502930,518.735596 
	C1557.399780,493.015289 1526.914429,480.463257 1490.823853,476.687317 
	C1488.859985,476.458618 1486.896362,476.030762 1484.932373,476.029877 
	C1408.752930,475.995850 1332.573608,475.981689 1256.394287,476.075775 
	C1253.568359,476.079254 1250.743652,477.188324 1246.205444,477.942932 
M2426.156250,1180.518433 
	C2426.449463,1182.737183 2426.742676,1184.956055 2427.051270,1187.290039 
	C2436.710205,1187.290039 2445.809814,1187.290039 2456.012207,1187.290039 
	C2456.012207,1152.763794 2456.012207,1118.974854 2456.012207,1083.846924 
	C2468.502197,1083.846924 2479.932373,1083.846924 2491.455078,1083.846924 
	C2491.455078,1074.671509 2491.455078,1066.867798 2491.455078,1059.199341 
	C2479.156738,1057.170654 2397.659912,1057.647827 2390.580811,1059.677368 
	C2390.580811,1067.486450 2390.580811,1075.292358 2390.580811,1084.440430 
	C2402.718750,1084.440430 2414.158936,1084.440430 2426.154297,1084.440430 
	C2426.154297,1116.738770 2426.154297,1147.680054 2426.156250,1180.518433 
z"/>
<path fill="#FE0000" opacity="1.000000" stroke="none" 
	d="
M2915.376221,945.591431 
	C2914.482422,946.100220 2913.777100,946.138245 2911.624023,946.134705 
	C2887.047852,946.063171 2863.918945,946.086121 2840.790283,945.983032 
	C2827.254150,945.922729 2813.718994,945.661255 2800.183350,945.490234 
	C2785.509277,921.724487 2770.903809,897.916321 2756.148926,874.200806 
	C2702.387451,787.789185 2648.580322,701.406311 2594.782715,615.017212 
	C2569.642334,574.646362 2544.491455,534.282288 2519.317627,493.932343 
	C2518.134766,492.036499 2516.680664,490.309998 2514.072754,486.763489 
	C2514.574219,490.454620 2514.640625,491.997925 2515.004150,493.467834 
	C2525.523926,536.023010 2536.054932,578.575317 2546.621338,621.118896 
	C2562.874023,686.559021 2579.195068,751.982239 2595.408203,817.432190 
	C2605.553955,858.388672 2615.558594,899.380005 2625.604492,940.361084 
	C2625.919678,941.646118 2625.990967,942.990967 2625.138672,945.147949 
	C2558.577393,945.993042 2493.052979,946.013794 2427.528809,945.999268 
	C2344.376709,945.980774 2261.224854,945.933716 2178.072754,945.898987 
	C2188.458496,928.926819 2198.705811,911.867981 2209.253174,894.996887 
	C2267.215576,802.283020 2325.272705,709.628540 2383.248779,616.923157 
	C2401.046631,588.463806 2418.642578,559.878296 2436.417725,531.404785 
	C2456.816895,498.727997 2485.117188,477.380981 2524.360840,470.367523 
	C2525.585205,469.715027 2526.162109,469.646210 2527.972412,469.757019 
	C2532.343018,469.549072 2535.483154,469.181732 2538.623047,468.814392 
	C2544.309570,468.856232 2549.996094,468.898071 2557.192627,469.323303 
	C2561.937988,469.624451 2565.173096,469.542297 2568.408447,469.460144 
	C2568.408447,469.460144 2569.042969,469.641815 2569.895020,470.308716 
	C2577.210693,472.465057 2583.797607,473.555878 2590.117188,475.511841 
	C2620.131104,484.801361 2642.132568,504.134521 2658.498535,530.509033 
	C2698.823975,595.495361 2739.263672,660.410889 2779.580566,725.402588 
	C2813.234131,779.652832 2846.719238,834.007690 2880.406982,888.236755 
	C2891.261230,905.709778 2902.522217,922.930054 2913.699707,940.820068 
	C2914.382324,942.284973 2914.962646,943.195801 2915.543213,944.106689 
	C2915.550049,944.444580 2915.557129,944.782593 2915.376221,945.591431 
z"/>
<path fill="#051039" opacity="1.000000" stroke="none" 
	d="
M1028.085571,477.733215 
	C1028.672241,480.553986 1029.758789,483.372986 1029.768677,486.195740 
	C1029.868530,514.768433 1029.792480,543.341797 1028.788086,572.906189 
	C1023.818909,573.927551 1019.827515,573.983887 1015.836121,573.984070 
	C909.053345,573.988831 802.270630,573.970947 695.487915,574.056091 
	C691.635986,574.059143 687.784912,575.067627 683.933411,575.607544 
	C642.833069,580.079346 613.577698,615.791321 614.053833,654.684265 
	C614.514771,692.334717 614.875183,730.012695 613.966003,767.646790 
	C612.897888,811.862793 650.042480,848.528931 694.952393,848.222778 
	C783.923279,847.616028 872.901184,848.043518 961.876221,848.043518 
	C980.204407,848.043518 998.532593,848.043518 1016.860779,848.043518 
	C1020.124817,848.043518 1023.388794,848.043579 1026.404541,848.043579 
	C1028.481079,856.130188 1029.077637,930.326721 1027.299805,945.334961 
	C1024.638184,945.560547 1021.778870,946.013977 1018.919434,946.014893 
	C908.283813,946.050354 797.647156,946.326294 687.013245,945.889526 
	C648.865051,945.738953 614.734314,932.346008 584.493103,909.371033 
	C553.513000,885.834778 533.410889,854.731934 522.322388,817.609619 
	C521.770813,815.762939 520.847168,814.027344 519.284119,811.973267 
	C518.117126,809.772339 517.762878,807.838318 518.052612,804.920166 
	C518.243896,803.431213 517.791016,802.926331 517.338196,802.421448 
	C517.216309,801.536499 517.094482,800.651550 517.369812,798.663452 
	C517.435242,796.917786 517.103394,796.275330 516.771606,795.632812 
	C516.742493,794.311157 516.713379,792.989502 517.052002,790.755432 
	C517.096497,789.140869 516.773315,788.438721 516.450073,787.736572 
	C516.550110,734.557922 516.650146,681.379272 517.228271,626.890503 
	C517.467102,624.915527 517.227905,624.250732 516.988770,623.585876 
	C517.071716,620.200989 517.154663,616.816040 517.435669,612.599792 
	C521.800354,612.544067 521.443604,609.235535 522.132324,606.824219 
	C527.547058,587.866577 535.309082,569.992371 546.791138,553.865662 
	C575.861877,513.035461 614.357239,487.131683 664.473022,479.671967 
	C668.389832,479.088898 672.308655,478.519348 678.014160,477.941040 
	C793.904053,477.958008 908.006226,477.978760 1022.108398,477.985840 
	C1024.100830,477.985962 1026.093140,477.821106 1028.085571,477.733215 
z"/>
<path fill="#4C6971" opacity="1.000000" stroke="none" 
	d="
M2913.597168,940.265991 
	C2902.522217,922.930054 2891.261230,905.709778 2880.406982,888.236755 
	C2846.719238,834.007690 2813.234131,779.652832 2779.580566,725.402588 
	C2739.263672,660.410889 2698.823975,595.495361 2658.498535,530.509033 
	C2642.132568,504.134521 2620.131104,484.801361 2590.117188,475.511841 
	C2583.797607,473.555878 2577.210693,472.465057 2570.216797,470.382782 
	C2571.827881,469.642975 2573.969482,469.495941 2577.841797,469.583374 
	C2583.570557,469.878540 2587.568359,469.991913 2591.566162,469.992279 
	C2695.224365,470.002014 2798.882812,469.994415 2902.541016,470.019501 
	C2906.865479,470.020538 2911.190186,470.308136 2915.514648,470.462219 
	C2915.568115,471.792572 2915.668457,473.122925 2915.668213,474.453278 
	C2915.661621,628.967773 2915.647705,783.482300 2915.070801,938.993774 
	C2914.507324,939.990662 2913.597168,940.265930 2913.597168,940.265991 
z"/>
<path fill="#07123A" opacity="1.000000" stroke="none" 
	d="
M2852.177246,1191.553467 
	C2844.655029,1188.274536 2837.019531,1185.225586 2829.668213,1181.599731 
	C2826.859131,1180.214111 2824.701172,1177.508057 2821.781738,1175.005249 
	C2828.911377,1167.046021 2835.498047,1159.692871 2842.356445,1152.036621 
	C2844.977051,1154.367065 2846.831787,1156.214233 2848.883789,1157.807373 
	C2857.756348,1164.695923 2867.498779,1166.072876 2877.947021,1162.011841 
	C2882.609863,1160.199585 2885.753662,1157.033447 2886.061035,1151.706299 
	C2886.352783,1146.646851 2883.494873,1143.367920 2879.332275,1141.598511 
	C2870.797607,1137.970581 2862.085693,1134.750244 2853.389404,1131.516357 
	C2845.234375,1128.483887 2837.265869,1125.251465 2831.997803,1117.759766 
	C2822.255127,1103.904175 2824.275146,1082.937500 2836.521729,1070.080566 
	C2843.936768,1062.296143 2853.185547,1057.509766 2863.566650,1056.324097 
	C2880.607422,1054.377563 2897.516113,1055.005981 2913.149658,1066.734131 
	C2913.660400,1070.419189 2913.270752,1073.166016 2912.235352,1075.929321 
	C2906.302002,1080.784790 2901.014404,1085.623901 2895.514404,1090.657227 
	C2893.168213,1089.001343 2891.390869,1087.587158 2889.465576,1086.415649 
	C2880.902832,1081.204712 2866.840088,1081.548950 2860.858643,1087.683472 
	C2854.985596,1093.706787 2854.819580,1099.321899 2861.699951,1104.197144 
	C2865.126709,1106.625488 2869.296875,1108.265991 2873.364014,1109.483521 
	C2887.898193,1113.835083 2902.484863,1117.944824 2913.092041,1130.755859 
	C2913.904785,1133.070923 2914.560547,1134.718140 2915.216309,1136.365234 
	C2915.364014,1142.897705 2915.511719,1149.430298 2915.221191,1157.066162 
	C2914.665039,1158.438354 2914.383545,1158.774536 2914.461426,1158.962524 
	C2914.665039,1159.456177 2915.025146,1159.885010 2915.323242,1160.339600 
	C2915.208984,1162.890869 2915.094482,1165.442139 2914.069824,1168.646851 
	C2903.968506,1180.790894 2891.880127,1187.703491 2876.981445,1191.719116 
	C2868.104248,1191.730469 2860.140869,1191.641968 2852.177246,1191.553467 
z"/>
<path fill="#D2B4B8" opacity="1.000000" stroke="none" 
	d="
M2517.590332,468.834473 
	C2513.645508,469.525330 2509.009033,469.971375 2504.372314,469.971588 
	C1846.656616,470.002502 1188.940918,470.000580 531.225281,470.009766 
	C526.896912,470.009827 522.568604,470.142334 517.355530,470.343597 
	C517.723389,469.656555 518.909180,468.295715 520.242065,468.132080 
	C523.197876,467.769196 526.227478,468.000854 529.226990,468.000854 
	C1188.129517,467.999969 1847.031982,467.999390 2505.934570,468.015747 
	C2509.589111,468.015839 2513.243652,468.254333 2517.590332,468.834473 
z"/>
<path fill="#D2FFFF" opacity="1.000000" stroke="none" 
	d="
M2851.247070,1191.752686 
	C2860.140869,1191.641968 2868.104248,1191.730469 2877.908447,1191.902222 
	C2891.729248,1191.840088 2903.709229,1191.694824 2915.689453,1191.549561 
	C2912.692871,1192.366333 2909.703857,1193.855225 2906.698242,1193.890259 
	C2888.038086,1194.108154 2869.374512,1194.000000 2850.711914,1194.000000 
	C2397.143799,1194.000000 1943.575684,1194.002319 1490.007568,1193.966064 
	C1485.720215,1193.965698 1481.432983,1193.453003 1476.586670,1192.556396 
	C1584.767822,1191.952759 1693.507935,1191.972046 1804.093628,1191.904663 
	C1814.586182,1191.727417 1823.233398,1191.636841 1831.880493,1191.546143 
	C1834.523071,1191.697510 1837.165771,1191.979736 1839.808350,1191.980835 
	C1893.954834,1192.003052 1948.101440,1191.993286 2004.098633,1191.903809 
	C2015.926270,1191.727051 2025.903442,1191.636108 2035.880493,1191.545288 
	C2037.860596,1191.702515 2039.840698,1191.996948 2041.820801,1191.996948 
	C2116.637695,1191.997070 2191.454590,1191.970337 2268.108398,1191.866333 
	C2277.929199,1191.730835 2285.913330,1191.676270 2293.897461,1191.621704 
	C2295.549561,1191.754761 2297.201660,1192.004395 2298.853760,1192.004272 
	C2433.992676,1191.999023 2569.131348,1191.974243 2706.110352,1191.868652 
	C2716.592529,1191.705811 2725.234619,1191.625488 2733.876953,1191.545166 
	C2750.123779,1191.696289 2766.370117,1191.931519 2782.617188,1191.978394 
	C2805.183594,1192.043457 2827.750244,1191.967407 2851.247070,1191.752686 
z"/>
<path fill="#D2FFFF" opacity="1.000000" stroke="none" 
	d="
M516.684570,1070.203369 
	C520.912354,1069.654907 525.566895,1069.976685 530.221436,1069.977051 
	C840.195496,1070.000732 1150.169556,1069.998291 1460.143555,1070.001465 
	C1464.142944,1070.001465 1468.142334,1070.043213 1473.051758,1070.653809 
	C1473.961670,1071.242310 1473.895386,1072.091797 1473.895386,1072.091797 
	C1469.233887,1072.061157 1464.572510,1072.003784 1459.911011,1072.003662 
	C1149.898071,1071.999634 839.885071,1072.004395 529.872070,1071.955444 
	C525.618469,1071.954712 521.364929,1071.282471 516.684570,1070.203369 
z"/>
<path fill="#4B6870" opacity="1.000000" stroke="none" 
	d="
M2912.935303,1130.088013 
	C2902.484863,1117.944824 2887.898193,1113.835083 2873.364014,1109.483521 
	C2869.296875,1108.265991 2865.126709,1106.625488 2861.699951,1104.197144 
	C2854.819580,1099.321899 2854.985596,1093.706787 2860.858643,1087.683472 
	C2866.840088,1081.548950 2880.902832,1081.204712 2889.465576,1086.415649 
	C2891.390869,1087.587158 2893.168213,1089.001343 2895.514404,1090.657227 
	C2901.014404,1085.623901 2906.302002,1080.784790 2912.875488,1075.992188 
	C2914.586182,1076.081787 2915.011475,1076.125000 2915.436523,1076.168213 
	C2915.499756,1093.441406 2915.562988,1110.714722 2914.906494,1128.975586 
	C2913.769287,1130.004883 2913.352295,1130.046387 2912.935303,1130.088013 
z"/>
<path fill="#D2B4B8" opacity="1.000000" stroke="none" 
	d="
M2915.161621,469.714020 
	C2911.190186,470.308136 2906.865479,470.020538 2902.541016,470.019501 
	C2798.882812,469.994415 2695.224365,470.002014 2591.566162,469.992279 
	C2587.568359,469.991913 2583.570557,469.878540 2578.643311,469.549835 
	C2580.949951,468.854584 2584.185791,468.055786 2587.422119,468.053802 
	C2693.617188,467.988678 2799.812256,467.992279 2906.007324,468.040497 
	C2908.941162,468.041840 2911.874756,468.643890 2915.161621,469.714020 
z"/>
<path fill="#4B6870" opacity="1.000000" stroke="none" 
	d="
M2915.681152,1190.648438 
	C2903.709229,1191.694824 2891.729248,1191.840088 2878.822021,1191.802368 
	C2891.880127,1187.703491 2903.968506,1180.790894 2913.812500,1169.365967 
	C2914.867920,1176.203613 2915.270264,1182.975464 2915.681152,1190.648438 
z"/>
<path fill="#D2B4B8" opacity="1.000000" stroke="none" 
	d="
M2567.742432,468.982788 
	C2565.173096,469.542297 2561.937988,469.624451 2558.042480,469.261292 
	C2560.613770,468.712433 2563.844971,468.608948 2567.742432,468.982788 
z"/>
<path fill="#D2B4B8" opacity="1.000000" stroke="none" 
	d="
M2537.852783,468.526947 
	C2535.483154,469.181732 2532.343018,469.549072 2528.409180,469.674194 
	C2530.770752,469.034454 2533.926758,468.636963 2537.852783,468.526947 
z"/>
<path fill="#798F95" opacity="1.000000" stroke="none" 
	d="
M2915.659424,1075.323853 
	C2915.011475,1076.125000 2914.586182,1076.081787 2913.520996,1075.975830 
	C2913.270752,1073.166016 2913.660400,1070.419189 2913.831055,1066.861694 
	C2913.611816,1066.051147 2914.547119,1065.946533 2915.015137,1065.896240 
	C2915.616211,1068.723877 2915.749268,1071.601685 2915.659424,1075.323853 
z"/>
<path fill="#798F95" opacity="1.000000" stroke="none" 
	d="
M2913.092041,1130.755859 
	C2913.352295,1130.046387 2913.769287,1130.004883 2914.811523,1129.897095 
	C2915.564209,1131.487183 2915.691650,1133.143433 2915.517822,1135.582520 
	C2914.560547,1134.718140 2913.904785,1133.070923 2913.092041,1130.755859 
z"/>
<path fill="#798F95" opacity="1.000000" stroke="none" 
	d="
M2913.699707,940.820007 
	C2913.597168,940.265930 2914.507324,939.990662 2914.976318,939.915894 
	C2915.602295,940.793762 2915.759033,941.746277 2915.729492,943.402771 
	C2914.962646,943.195801 2914.382324,942.284973 2913.699707,940.820007 
z"/>
<path fill="#798F95" opacity="1.000000" stroke="none" 
	d="
M2915.600586,1159.710938 
	C2915.025146,1159.885010 2914.665039,1159.456177 2914.461426,1158.962524 
	C2914.383545,1158.774536 2914.665039,1158.438354 2915.168213,1157.958252 
	C2915.662109,1158.192139 2915.770264,1158.637207 2915.600586,1159.710938 
z"/>
<path fill="#D1DADC" opacity="1.000000" stroke="none" 
	d="
M1474.264160,1072.143188 
	C1473.895386,1072.091797 1473.961670,1071.242310 1473.975586,1070.816895 
	C1474.779297,1070.166504 1475.312744,1070.440552 1475.483765,1071.699707 
	C1475.377563,1072.185913 1474.632935,1072.194580 1474.264160,1072.143188 
z"/>
<path fill="#4C6971" opacity="1.000000" stroke="none" 
	d="
M517.188660,802.752563 
	C517.791016,802.926331 518.243896,803.431213 518.120605,804.170410 
	C517.250000,804.012756 517.081543,803.572388 517.188660,802.752563 
z"/>
<path fill="#798F95" opacity="1.000000" stroke="none" 
	d="
M516.640564,624.000916 
	C517.227905,624.250732 517.467102,624.915527 517.291016,625.979492 
	C516.681335,625.724365 516.486816,625.070129 516.640564,624.000916 
z"/>
<path fill="#798F95" opacity="1.000000" stroke="none" 
	d="
M516.286438,788.409180 
	C516.773315,788.438721 517.096497,789.140869 517.053955,790.094238 
	C516.499695,789.924194 516.311218,789.502930 516.286438,788.409180 
z"/>
<path fill="#798F95" opacity="1.000000" stroke="none" 
	d="
M516.487061,796.086426 
	C517.103394,796.275330 517.435242,796.917786 517.372192,797.990356 
	C516.719116,797.793579 516.460815,797.166870 516.487061,796.086426 
z"/>
<path fill="#051039" opacity="1.000000" stroke="none" 
	d="
M1601.591553,850.037537 
	C1601.591553,881.602478 1601.591553,913.167358 1601.591553,945.351562 
	C1597.898804,945.621948 1595.005249,946.018433 1592.111694,946.019226 
	C1480.811523,946.050598 1369.510864,946.253906 1258.211670,945.934998 
	C1218.133911,945.820190 1182.983765,931.132507 1151.629028,906.686279 
	C1131.305786,890.841064 1115.933594,870.813538 1104.445068,848.086182 
	C1092.799194,825.047852 1086.044434,800.345337 1085.909546,774.303101 
	C1085.688721,731.650330 1085.023315,688.975098 1086.078003,646.347290 
	C1087.163940,602.454041 1103.417236,564.415344 1134.007568,532.408203 
	C1155.688843,509.722717 1180.875488,493.079315 1211.082520,484.655609 
	C1222.524414,481.464844 1234.482544,480.125946 1248.003540,477.940613 
	C1297.328369,477.958466 1344.854980,478.010498 1392.381714,477.987915 
	C1425.614990,477.972107 1458.848267,477.854279 1492.081543,477.782043 
	C1526.914429,480.463257 1557.399780,493.015289 1581.502930,518.735596 
	C1601.791870,540.385925 1614.314209,565.974670 1618.286865,595.698425 
	C1621.964966,623.219543 1620.338013,650.163025 1610.155640,676.082031 
	C1591.217041,724.289978 1555.906738,752.973267 1504.907227,761.872681 
	C1495.158081,763.573914 1485.077515,763.941345 1475.148315,763.957397 
	C1382.500732,764.107361 1289.852905,764.046204 1197.205078,764.046204 
	C1193.267700,764.046204 1189.330322,764.046204 1185.043823,764.046204 
	C1183.031250,770.333252 1183.713135,775.904541 1184.817871,781.363770 
	C1189.837524,806.169128 1202.847290,825.451111 1225.036377,838.022705 
	C1237.112915,844.864868 1250.176636,848.104797 1264.173218,848.092712 
	C1369.485107,848.001465 1474.796997,848.041626 1580.108887,848.046387 
	C1586.107422,848.046631 1592.105957,848.095703 1599.230957,848.566162 
	C1600.678833,849.460876 1601.090210,849.803284 1601.591553,850.037537 
M1484.759399,574.602478 
	C1482.791626,574.397888 1480.823853,574.015259 1478.855957,574.014404 
	C1406.732544,573.983704 1334.609131,573.969910 1262.485840,574.056763 
	C1259.634277,574.060181 1256.784058,575.068359 1252.317383,575.823975 
	C1202.642700,581.846191 1176.530151,631.498962 1185.798950,666.043091 
	C1189.573853,666.043091 1193.535645,666.043091 1197.497437,666.043091 
	C1283.777344,666.043091 1370.057251,666.043152 1456.337158,666.042969 
	C1465.997803,666.042908 1475.663452,666.236267 1485.317993,665.993835 
	C1498.995605,665.650330 1509.712524,659.859070 1516.119629,647.493591 
	C1523.351074,633.536926 1524.203735,618.712097 1519.687744,603.907104 
	C1514.683960,587.502014 1503.610474,577.511658 1484.759399,574.602478 
z"/>
<path fill="#051139" opacity="1.000000" stroke="none" 
	d="
M1748.096436,477.688843 
	C1753.365967,485.696350 1758.901245,493.542908 1763.862793,501.736755 
	C1804.337036,568.577942 1844.709961,635.480408 1885.101807,702.371277 
	C1912.775024,748.199341 1940.426758,794.040222 1968.100098,839.868164 
	C1969.475220,842.145264 1970.923096,844.380981 1972.404541,846.590820 
	C1981.016846,859.437256 2000.885010,863.103699 2012.645630,846.385437 
	C2020.860596,834.707458 2028.105469,822.342407 2035.679688,810.219177 
	C2054.351807,780.332825 2072.938232,750.392883 2091.605225,720.503418 
	C2124.888672,667.210510 2158.202881,613.937134 2191.510986,560.659668 
	C2208.610107,533.308838 2225.723145,505.966553 2244.321289,478.284882 
	C2279.117676,477.965454 2312.422852,477.923767 2345.727295,478.083893 
	C2349.183838,478.100494 2352.634277,479.315735 2356.087646,479.974792 
	C2337.085693,510.456635 2318.075439,540.933167 2299.083740,571.421448 
	C2268.664062,620.255676 2238.292480,669.120117 2207.831787,717.928833 
	C2186.004395,752.903381 2164.041992,787.793640 2142.183594,822.748901 
	C2127.376953,846.427673 2112.563477,870.102966 2097.901367,893.871277 
	C2077.281738,927.296997 2047.807251,948.744690 2008.889038,953.199890 
	C1961.063721,958.674744 1920.679199,942.668152 1893.009033,901.890991 
	C1876.038696,876.881775 1861.187744,850.430420 1845.484497,824.566284 
	C1815.454346,775.105164 1785.448486,725.629272 1755.520874,676.106201 
	C1729.378784,632.846985 1703.372925,589.505493 1677.276978,546.218384 
	C1664.231812,524.579529 1651.119873,502.980865 1638.471680,480.095642 
	C1642.507080,478.550751 1646.107910,478.050354 1649.710938,478.032501 
	C1682.505981,477.870056 1715.301270,477.791718 1748.096436,477.688843 
z"/>
<path fill="#06123A" opacity="1.000000" stroke="none" 
	d="
M1832.416748,1191.054199 
	C1823.233398,1191.636841 1814.586182,1191.727417 1805.021118,1191.719482 
	C1792.850342,1188.718506 1781.794189,1185.372314 1772.380371,1178.126221 
	C1756.969360,1166.264038 1748.342651,1150.760010 1747.939209,1131.216797 
	C1747.754639,1122.273071 1747.441284,1113.056152 1749.260742,1104.399048 
	C1754.548096,1079.241333 1775.348389,1060.228027 1803.144165,1056.390503 
	C1820.372192,1054.011963 1837.826172,1054.797852 1853.656250,1063.807861 
	C1872.519775,1074.544556 1883.327393,1090.514771 1886.335327,1112.286865 
	C1888.255859,1126.187988 1886.883179,1139.515137 1881.755981,1152.183350 
	C1872.913452,1174.030518 1855.658569,1185.950073 1832.416748,1191.054199 
M1792.737183,1156.455078 
	C1794.998169,1157.851807 1797.137085,1159.519409 1799.539185,1160.603149 
	C1819.955688,1169.813232 1848.577637,1161.936890 1854.686035,1136.276489 
	C1856.121948,1130.244141 1856.566406,1123.665161 1855.904663,1117.505615 
	C1854.293213,1102.508911 1846.779419,1090.809326 1832.356689,1085.486572 
	C1817.474854,1079.994385 1803.237549,1081.501831 1790.451416,1092.388428 
	C1774.621826,1105.866455 1771.977051,1139.792969 1792.737183,1156.455078 
z"/>
<path fill="#06123A" opacity="1.000000" stroke="none" 
	d="
M2036.452148,1191.044922 
	C2025.903442,1191.636108 2015.926270,1191.727051 2005.026123,1191.719482 
	C2000.021240,1190.426147 1995.893799,1189.366577 1991.864868,1188.014038 
	C1969.660034,1180.560059 1955.091553,1165.699829 1949.884277,1142.746216 
	C1945.996948,1125.610718 1945.960693,1108.433594 1953.972656,1092.123047 
	C1962.870728,1074.008667 1977.034790,1062.014526 1996.828613,1057.914673 
	C2018.063232,1053.515991 2039.160034,1053.820190 2058.924316,1064.453857 
	C2062.620850,1066.442627 2065.870361,1069.262085 2069.983643,1072.161743 
	C2062.897705,1079.948242 2056.511475,1086.965698 2049.660400,1094.493896 
	C2047.268433,1092.913086 2045.156128,1091.504028 2043.030884,1090.114746 
	C2028.720947,1080.760132 2010.486328,1079.566040 1994.289551,1089.773438 
	C1982.747314,1097.047363 1975.644775,1116.109131 1978.667603,1131.329590 
	C1985.156738,1164.001465 2014.297241,1169.216431 2038.007446,1160.817383 
	C2041.819824,1159.467041 2044.113037,1157.119995 2043.875488,1152.680176 
	C2043.646118,1148.393066 2043.825684,1144.084106 2043.825684,1138.675781 
	C2036.117065,1138.308472 2028.970703,1137.968018 2020.775391,1137.577637 
	C2019.846191,1129.312012 2019.703979,1121.176025 2022.286011,1112.453613 
	C2039.853149,1111.960449 2055.914307,1112.000488 2071.975586,1112.040649 
	C2072.037354,1132.015625 2072.152344,1151.990723 2072.134521,1171.965698 
	C2072.127441,1179.867065 2071.656250,1180.963135 2063.918213,1183.437012 
	C2055.097412,1186.256836 2046.000610,1188.213135 2036.452148,1191.044922 
z"/>
<path fill="#07123A" opacity="1.000000" stroke="none" 
	d="
M2294.450195,1191.135498 
	C2285.913330,1191.676270 2277.929199,1191.730835 2269.034180,1191.665283 
	C2257.784912,1187.376465 2246.708496,1184.535156 2238.321533,1174.972778 
	C2244.953369,1167.463989 2251.452637,1160.105225 2258.349121,1152.296631 
	C2260.610107,1154.178101 2262.336182,1155.564941 2264.007812,1157.014160 
	C2270.998291,1163.073853 2279.280762,1165.372070 2288.152588,1163.752319 
	C2292.121826,1163.027588 2296.200928,1160.592896 2299.280273,1157.862549 
	C2303.681152,1153.960938 2303.428955,1147.758057 2298.929688,1143.847290 
	C2296.008789,1141.308472 2292.337402,1139.407837 2288.708984,1137.953857 
	C2280.395752,1134.622437 2271.777100,1132.043579 2263.505127,1128.621216 
	C2233.132324,1116.055054 2238.363525,1079.572876 2258.224609,1065.179810 
	C2276.512451,1051.926758 2310.842529,1052.325073 2328.902100,1066.109863 
	C2329.936035,1066.899170 2330.714111,1068.023560 2332.194580,1069.621704 
	C2329.113037,1073.086182 2326.071777,1076.476929 2323.062744,1079.896118 
	C2319.991455,1083.386108 2316.951904,1086.904053 2314.237305,1090.020874 
	C2307.368408,1087.526855 2301.787109,1085.683105 2296.351318,1083.479980 
	C2289.622559,1080.752808 2283.820312,1083.435913 2278.479980,1086.749390 
	C2271.128662,1091.310791 2271.297607,1100.122925 2278.962158,1104.355591 
	C2284.720947,1107.535645 2291.144775,1109.544312 2297.347168,1111.876343 
	C2301.685303,1113.507446 2306.243408,1114.569580 2310.541016,1116.290649 
	C2329.469482,1123.871460 2335.515137,1138.630981 2330.977783,1159.509888 
	C2326.908691,1178.233276 2313.360596,1187.611450 2294.450195,1191.135498 
z"/>
<path fill="#07123A" opacity="1.000000" stroke="none" 
	d="
M2734.397217,1191.053711 
	C2725.234619,1191.625488 2716.592529,1191.705811 2707.035645,1191.666748 
	C2699.341553,1188.988403 2692.410645,1186.766113 2685.810303,1183.806885 
	C2666.974365,1175.362549 2656.793457,1159.888794 2652.536621,1140.386719 
	C2648.281738,1120.894287 2650.406982,1102.052246 2661.433594,1084.950439 
	C2672.625977,1067.591187 2689.082764,1058.230225 2709.319336,1056.151245 
	C2725.723145,1054.465942 2742.074951,1055.021851 2755.979004,1065.932983 
	C2759.022217,1068.321289 2761.663818,1071.221558 2765.416992,1074.759644 
	C2757.510498,1081.278442 2750.444824,1087.103882 2743.357910,1092.947021 
	C2742.215820,1092.383423 2741.199463,1092.129639 2740.517090,1091.509033 
	C2724.545654,1076.979736 2703.000732,1081.473267 2691.025879,1095.659058 
	C2676.775391,1112.540894 2678.244873,1145.530884 2698.850586,1158.612427 
	C2712.030273,1166.979736 2727.565430,1166.051025 2739.363281,1155.637085 
	C2740.828125,1154.343994 2742.275391,1153.030640 2744.581543,1150.964111 
	C2752.506836,1156.906006 2760.285645,1162.737915 2768.746338,1169.081177 
	C2759.389160,1180.971924 2748.218018,1187.409424 2734.397217,1191.053711 
z"/>
<path fill="#051039" opacity="1.000000" stroke="none" 
	d="
M2426.155273,1179.569824 
	C2426.154297,1147.680054 2426.154297,1116.738770 2426.154297,1084.440430 
	C2414.158936,1084.440430 2402.718750,1084.440430 2390.580811,1084.440430 
	C2390.580811,1075.292358 2390.580811,1067.486450 2390.580811,1059.677368 
	C2397.659912,1057.647827 2479.156738,1057.170654 2491.455078,1059.199341 
	C2491.455078,1066.867798 2491.455078,1074.671509 2491.455078,1083.846924 
	C2479.932373,1083.846924 2468.502197,1083.846924 2456.012207,1083.846924 
	C2456.012207,1118.974854 2456.012207,1152.763794 2456.012207,1187.290039 
	C2445.809814,1187.290039 2436.710205,1187.290039 2427.051270,1187.290039 
	C2426.742676,1184.956055 2426.449463,1182.737183 2426.155273,1179.569824 
z"/>
<path fill="#051039" opacity="1.000000" stroke="none" 
	d="
M1610.037109,1058.303467 
	C1618.066895,1058.243286 1626.096680,1058.183228 1635.241943,1058.566895 
	C1636.678467,1059.461304 1637.089600,1059.803833 1637.591064,1060.037964 
	C1637.692017,1092.723633 1637.792969,1125.409302 1638.510254,1159.666260 
	C1656.074463,1161.508301 1673.022339,1161.779053 1689.970215,1162.049683 
	C1689.970215,1170.282104 1689.970215,1178.514526 1689.970215,1187.385986 
	C1662.623413,1187.385986 1636.176147,1187.385986 1608.352783,1187.385986 
	C1607.942993,1166.436768 1608.201416,1145.605713 1608.167847,1124.784668 
	C1608.134155,1103.822144 1608.212891,1082.859497 1608.666260,1060.751099 
	C1609.511353,1059.248169 1609.827026,1058.814209 1610.037109,1058.303467 
z"/>
<path fill="#051039" opacity="1.000000" stroke="none" 
	d="
M2146.036621,1058.303467 
	C2154.953857,1058.303467 2163.871094,1058.303467 2173.460449,1058.303467 
	C2173.460449,1101.552734 2173.460449,1144.019897 2173.460449,1187.268188 
	C2164.167969,1187.268188 2155.021240,1187.268188 2145.769775,1187.268188 
	C2145.629395,1187.116455 2145.389648,1186.882690 2145.180908,1186.623901 
	C2144.977783,1186.371948 2144.644775,1186.094849 2144.643799,1185.827881 
	C2144.493408,1144.517700 2144.368408,1103.207397 2144.666016,1060.751465 
	C2145.511230,1059.248413 2145.826660,1058.814331 2146.036621,1058.303467 
z"/>
<path fill="#051039" opacity="1.000000" stroke="none" 
	d="
M2556.036621,1058.303467 
	C2564.066406,1058.243408 2572.096191,1058.183228 2581.241699,1058.566895 
	C2582.678467,1059.461182 2583.089844,1059.803589 2583.591309,1060.037842 
	C2583.591309,1102.196655 2583.591309,1144.355347 2583.591309,1187.277588 
	C2573.854248,1187.277588 2564.762451,1187.277588 2554.176758,1187.277588 
	C2554.169189,1166.367920 2554.146973,1145.552734 2554.157959,1124.737671 
	C2554.169189,1103.790771 2554.212891,1082.843994 2554.666260,1060.751465 
	C2555.511230,1059.248413 2555.826660,1058.814331 2556.036621,1058.303467 
z"/>
<path fill="#786971" opacity="1.000000" stroke="none" 
	d="
M2178.615479,946.532959 
	C2261.224854,945.933716 2344.376709,945.980774 2427.528809,945.999268 
	C2493.052979,946.013794 2558.577393,945.993042 2625.036133,945.958801 
	C2622.205322,946.619751 2618.440430,947.906799 2614.674072,947.912109 
	C2532.739014,948.027405 2450.803467,948.000000 2368.868164,948.000000 
	C2309.248535,948.000000 2249.628662,948.014465 2190.009033,947.964355 
	C2186.391846,947.961304 2182.775146,947.444641 2178.615479,946.532959 
z"/>
<path fill="#3A3C55" opacity="1.000000" stroke="none" 
	d="
M1027.448975,477.198700 
	C1026.093140,477.821106 1024.100830,477.985962 1022.108398,477.985840 
	C908.006226,477.978760 793.904053,477.958008 678.860352,477.860504 
	C681.078491,477.188477 684.237732,476.077820 687.397949,476.075256 
	C797.903503,475.985748 908.409058,475.995941 1018.914673,476.028290 
	C1021.547363,476.029053 1024.179932,476.442963 1027.448975,477.198700 
z"/>
<path fill="#163752" opacity="1.000000" stroke="none" 
	d="
M684.867004,575.743286 
	C687.784912,575.067627 691.635986,574.059143 695.487915,574.056091 
	C802.270630,573.970947 909.053345,573.988831 1015.836121,573.984070 
	C1019.827515,573.983887 1023.818909,573.927551 1028.707764,573.823853 
	C1026.245117,574.495239 1022.888184,575.871094 1019.524658,575.887390 
	C986.219421,576.048767 952.913086,575.995361 919.607056,575.982971 
	C841.671570,575.954041 763.736084,575.914368 684.867004,575.743286 
z"/>
<path fill="#3A3C55" opacity="1.000000" stroke="none" 
	d="
M1491.452637,477.234680 
	C1458.848267,477.854279 1425.614990,477.972107 1392.381714,477.987915 
	C1344.854980,478.010498 1297.328369,477.958466 1248.860107,477.860229 
	C1250.743652,477.188324 1253.568359,476.079254 1256.394287,476.075775 
	C1332.573608,475.981689 1408.752930,475.995850 1484.932373,476.029877 
	C1486.896362,476.030762 1488.859985,476.458618 1491.452637,477.234680 
z"/>
<path fill="#3A3C55" opacity="1.000000" stroke="none" 
	d="
M2356.549805,479.464752 
	C2352.634277,479.315735 2349.183838,478.100494 2345.727295,478.083893 
	C2312.422852,477.923767 2279.117676,477.965454 2244.871094,477.886292 
	C2246.079590,477.216003 2248.228271,476.086853 2250.380371,476.079712 
	C2283.960693,475.968292 2317.541260,475.967743 2351.121582,476.081848 
	C2353.269043,476.089142 2356.814697,474.447388 2356.549805,479.464752 
z"/>
<path fill="#3A3C55" opacity="1.000000" stroke="none" 
	d="
M1747.450195,477.167725 
	C1715.301270,477.791718 1682.505981,477.870056 1649.710938,478.032501 
	C1646.107910,478.050354 1642.507080,478.550751 1638.265259,479.413940 
	C1637.628052,478.878052 1637.394531,476.851410 1637.671753,476.778931 
	C1639.546997,476.288757 1641.529663,476.030457 1643.478027,476.028412 
	C1676.622803,475.993622 1709.767700,476.000031 1742.912476,476.036987 
	C1744.209839,476.038452 1745.506714,476.434479 1747.450195,477.167725 
z"/>
<path fill="#786971" opacity="1.000000" stroke="none" 
	d="
M2800.631348,946.207886 
	C2813.718994,945.661255 2827.254150,945.922729 2840.790283,945.983032 
	C2863.918945,946.086121 2887.047852,946.063171 2911.105957,946.262817 
	C2909.844482,946.955017 2907.654785,947.926575 2905.462402,947.932800 
	C2872.254150,948.026978 2839.045898,948.009338 2805.837402,947.946716 
	C2804.250977,947.943726 2802.665527,947.281006 2800.631348,946.207886 
z"/>
<path fill="#3A3C55" opacity="1.000000" stroke="none" 
	d="
M1689.414062,1161.422363 
	C1673.022339,1161.779053 1656.074463,1161.508301 1638.582764,1160.598877 
	C1651.691406,1159.973389 1665.343994,1159.937134 1678.995728,1160.035767 
	C1682.284790,1160.059570 1685.570679,1160.530029 1689.414062,1161.422363 
z"/>
<path fill="#3A3C55" opacity="1.000000" stroke="none" 
	d="
M2071.416504,1111.416016 
	C2055.914307,1112.000488 2039.853149,1111.960449 2022.851074,1111.824097 
	C2022.750000,1111.234497 2023.592407,1110.307007 2024.429443,1110.312134 
	C2039.905884,1110.405518 2055.381592,1110.610229 2071.416504,1111.416016 
z"/>
<path fill="#172647" opacity="1.000000" stroke="none" 
	d="
M2555.588379,1058.388672 
	C2555.826660,1058.814331 2555.511230,1059.248413 2554.749023,1059.820312 
	C2554.297607,1059.348022 2554.541748,1058.827759 2555.588379,1058.388672 
z"/>
<path fill="#172647" opacity="1.000000" stroke="none" 
	d="
M2583.542236,1059.584473 
	C2583.089844,1059.803589 2582.678467,1059.461182 2582.161621,1058.656982 
	C2582.650391,1058.255737 2583.159668,1058.531616 2583.542236,1059.584473 
z"/>
<path fill="#172647" opacity="1.000000" stroke="none" 
	d="
M2145.588379,1058.388672 
	C2145.826660,1058.814331 2145.511230,1059.248413 2144.749023,1059.820312 
	C2144.297607,1059.348022 2144.541748,1058.827759 2145.588379,1058.388672 
z"/>
<path fill="#172647" opacity="1.000000" stroke="none" 
	d="
M1637.541992,1059.584717 
	C1637.089600,1059.803833 1636.678467,1059.461304 1636.161865,1058.656982 
	C1636.650757,1058.255981 1637.159668,1058.531982 1637.541992,1059.584717 
z"/>
<path fill="#172647" opacity="1.000000" stroke="none" 
	d="
M1609.588867,1058.388672 
	C1609.827026,1058.814209 1609.511353,1059.248169 1608.749512,1059.820068 
	C1608.297607,1059.347900 1608.541504,1058.827637 1609.588867,1058.388672 
z"/>
<path fill="#172647" opacity="1.000000" stroke="none" 
	d="
M1601.542236,849.584473 
	C1601.090210,849.803284 1600.678833,849.460876 1600.161865,848.656738 
	C1600.650879,848.255859 1601.159790,848.531921 1601.542236,849.584473 
z"/>
<path fill="#4C6971" opacity="1.000000" stroke="none" 
	d="
M1486.066772,575.608032 
	C1503.610474,577.511658 1514.683960,587.502014 1519.687744,603.907104 
	C1524.203735,618.712097 1523.351074,633.536926 1516.119629,647.493591 
	C1509.712524,659.859070 1498.995605,665.650330 1485.317993,665.993835 
	C1475.663452,666.236267 1465.997803,666.042908 1456.337158,666.042969 
	C1370.057251,666.043152 1283.777344,666.043091 1197.497437,666.043091 
	C1193.535645,666.043091 1189.573853,666.043091 1185.798950,666.043091 
	C1176.530151,631.498962 1202.642700,581.846191 1254.059082,575.852783 
	C1330.901611,575.912720 1406.002686,575.946228 1481.103638,575.959656 
	C1482.758057,575.959961 1484.412354,575.730408 1486.066772,575.608032 
z"/>
<path fill="#163752" opacity="1.000000" stroke="none" 
	d="
M1485.413086,575.105225 
	C1484.412354,575.730408 1482.758057,575.959961 1481.103638,575.959656 
	C1406.002686,575.946228 1330.901611,575.912720 1254.866943,575.744995 
	C1256.784058,575.068359 1259.634277,574.060181 1262.485840,574.056763 
	C1334.609131,573.969910 1406.732544,573.983704 1478.855957,574.014404 
	C1480.823853,574.015259 1482.791626,574.397888 1485.413086,575.105225 
z"/>
<path fill="#4B6870" opacity="1.000000" stroke="none" 
	d="
M1792.115967,1156.061890 
	C1771.977051,1139.792969 1774.621826,1105.866455 1790.451416,1092.388428 
	C1803.237549,1081.501831 1817.474854,1079.994385 1832.356689,1085.486572 
	C1846.779419,1090.809326 1854.293213,1102.508911 1855.904663,1117.505615 
	C1856.566406,1123.665161 1856.121948,1130.244141 1854.686035,1136.276489 
	C1848.577637,1161.936890 1819.955688,1169.813232 1799.539185,1160.603149 
	C1797.137085,1159.519409 1794.998169,1157.851807 1792.115967,1156.061890 
z"/>
</svg>