<?xml version="1.0" encoding="UTF-8"?>
<svg version="1.1" xmlns="http://www.w3.org/2000/svg" width="1920" height="603">
<path d="M0 0 C0.72805344 -0.00807175 1.45610687 -0.01614349 2.20622253 -0.02445984 C3.74675161 -0.03823759 5.28731041 -0.04898771 6.82788086 -0.05688477 C8.36833969 -0.06829557 9.90876251 -0.08856999 11.44897461 -0.1184082 C37.4945468 -0.6211751 60.87589603 7.93468574 80.00585938 25.92260742 C91.3613591 36.9320383 99.15658031 49.66090006 107.26113892 63.12339783 C110.72501442 68.87111673 114.28443588 74.55677032 117.85546875 80.23828125 C123.06352043 88.54647799 128.22465718 96.88217538 133.35546875 105.23828125 C139.16756087 114.7032856 145.02634678 124.13754701 150.921875 133.55078125 C155.45543257 140.7910831 159.95849108 148.04966982 164.44873047 155.31689453 C168.49923671 161.86740919 172.5799845 168.39860474 176.66796875 174.92578125 C182.61865711 184.42966989 188.50697424 193.97057348 194.37426758 203.52612305 C198.83491542 210.78448401 203.33161627 218.01916508 207.85546875 225.23828125 C213.06228365 233.54726166 218.22464921 241.8821624 223.35546875 250.23828125 C229.16618057 259.70103779 235.02395458 269.13281658 240.91748047 278.54418945 C247.63330714 289.2708817 254.28703716 300.03567155 260.93945312 310.80175781 C262.53597726 313.38506347 264.13303737 315.96803651 265.73046875 318.55078125 C266.26244873 319.41098877 266.79442871 320.27119629 267.3425293 321.1574707 C270.84371285 326.81282636 274.36628151 332.45442953 277.89868164 338.09033203 C283.74629903 347.42210139 289.55436333 356.77650627 295.29296875 366.17578125 C295.90261475 367.1714209 296.51226074 368.16706055 297.14038086 369.19287109 C297.97194702 370.55919678 297.97194702 370.55919678 298.8203125 371.953125 C299.31136475 372.7587085 299.80241699 373.56429199 300.30834961 374.39428711 C301.35546875 376.23828125 301.35546875 376.23828125 301.35546875 377.23828125 C289.60402501 377.75018626 277.85526616 378.13993581 266.09490776 378.37814903 C260.63199641 378.49255434 255.17675508 378.64732611 249.71826172 378.89794922 C214.54595636 380.47103731 214.54595636 380.47103731 206.07843018 375.19726562 C201.12714086 370.19951858 198.52097481 364.47843926 196.28997803 357.87799072 C195.05783139 354.39754465 193.36486401 351.78524108 191.26953125 348.75390625 C190.172029 346.99941556 189.0756482 345.2442228 187.98046875 343.48828125 C187.37162842 342.5135083 186.76278809 341.53873535 186.13549805 340.53442383 C180.75915215 331.91350694 175.44085519 323.25722954 170.12548828 314.59863281 C165.7813709 307.53056192 161.38125589 300.50154631 156.93286133 293.4987793 C152.67728836 286.78385856 148.51327271 280.01407034 144.35546875 273.23828125 C139.24133882 264.905792 134.08880816 256.60145628 128.85449219 248.34399414 C118.81914101 232.51189837 108.9395175 216.58472715 99.13256836 200.61035156 C94.71210626 193.41865176 90.23774036 186.26415405 85.71533203 179.13623047 C82.11983341 173.46430406 78.57185386 167.76436657 75.04296875 162.05078125 C70.37649251 154.49586761 65.68895042 146.95459342 60.98046875 139.42578125 C60.35350098 138.42313232 59.7265332 137.4204834 59.08056641 136.38745117 C55.93340961 131.35594531 52.78393532 126.32589781 49.6328125 121.296875 C42.41222253 109.76671793 35.24951793 98.20310087 28.13183594 86.60913086 C23.71297506 79.42010059 19.23999329 72.26841467 14.71972656 65.14282227 C9.43110459 56.79900958 4.24296122 48.39363577 -0.94628906 39.98779297 C-3.94589494 35.13132929 -6.95188493 30.2788177 -9.95703125 25.42578125 C-11.05731845 23.64845408 -12.15758145 21.87111193 -13.2578125 20.09375 C-13.71969971 19.34762451 -14.18158691 18.60149902 -14.6574707 17.83276367 C-15.14606567 17.04349487 -15.14606567 17.04349487 -15.64453125 16.23828125 C-12.39269213 31.64747251 -8.52888998 46.90376395 -4.68423462 62.17294312 C-2.64468297 70.27374821 -0.61574718 78.3772183 1.4140625 86.48046875 C1.62300203 87.31430525 1.83194157 88.14814175 2.0472126 89.00724602 C6.07808463 105.09583402 10.05931628 121.19634849 14.02064133 137.30218124 C21.58783912 168.06775196 29.20617214 198.82055986 36.83676147 229.57045746 C39.21983008 239.17387526 41.60195031 248.77752789 43.98339844 258.38134766 C44.14926201 259.0502257 44.31512558 259.71910374 44.48601532 260.40825081 C45.96911781 266.3891637 47.45217436 272.37008798 48.93513489 278.35103607 C52.32744687 292.03256032 55.72109144 305.71374819 59.12090015 319.39341164 C60.79953842 326.14847859 62.47522687 332.90427138 64.14783764 339.66083336 C65.22259112 344.00183474 66.30104068 348.34189217 67.38259888 352.68120289 C68.16766556 355.83602158 68.94673193 358.99232112 69.7265625 362.1484375 C69.99991425 363.23989578 70.27326599 364.33135406 70.55490112 365.45588684 C70.79644928 366.43861069 71.03799744 367.42133453 71.28686523 368.43383789 C71.49536606 369.27370743 71.70386688 370.11357697 71.91868591 370.97889709 C72.35546875 373.23828125 72.35546875 373.23828125 72.35546875 377.23828125 C-45.12453125 377.23828125 -162.60453125 377.23828125 -283.64453125 377.23828125 C-279.91172142 370.39479656 -276.21466847 363.76996857 -272.01953125 357.23828125 C-270.96086849 355.57556477 -269.90227669 353.91280311 -268.84375 352.25 C-268.31056152 351.4151709 -267.77737305 350.5803418 -267.22802734 349.72021484 C-264.75100264 345.83778605 -262.29090549 341.94472212 -259.83203125 338.05078125 C-259.34307373 337.27694092 -258.85411621 336.50310059 -258.3503418 335.70581055 C-252.38978825 326.26419405 -246.48041381 316.79057074 -240.56787109 307.31884766 C-237.42863902 302.29081638 -234.28645974 297.26462784 -231.14453125 292.23828125 C-229.89451661 290.2382904 -228.64451663 288.23829039 -227.39453125 286.23828125 C-214.89453125 266.23828125 -202.39453125 246.23828125 -189.89453125 226.23828125 C-189.27553955 225.24787842 -188.65654785 224.25747559 -188.01879883 223.23706055 C-186.77129878 221.24109297 -185.52374037 219.24516186 -184.27612305 217.24926758 C-181.11238943 212.18787209 -177.94973564 207.12580731 -174.7890625 202.0625 C-168.61595378 192.17548847 -162.42827369 182.29843234 -156.19580078 172.44873047 C-150.28211585 163.09571399 -144.42749101 153.70578995 -138.56787109 144.31884766 C-135.428639 139.29081636 -132.28642292 134.26465088 -129.14453125 129.23828125 C-128.21894409 127.75714844 -128.21894409 127.75714844 -127.2746582 126.24609375 C-124.12591785 121.20745226 -120.97607401 116.16950617 -117.82421875 111.1328125 C-111.91049414 101.68054775 -106.00728791 92.22225826 -100.14453125 82.73828125 C-98.5466418 80.15599101 -96.94831522 77.57397238 -95.34960938 74.9921875 C-94.15505418 73.06283719 -92.961094 71.13311841 -91.76757812 69.203125 C-71.59887491 36.61825314 -52.74765951 10.46810288 -13.64453125 1.23828125 C-9.08428616 0.3444247 -4.63528199 0.05025875 0 0 Z " fill="#E30613" transform="translate(1607.64453125,15.76171875)"/>
<path d="M0 0 C1.99622889 -0.00407608 3.99245553 -0.00942372 5.98867798 -0.01593018 C11.35846643 -0.0294855 16.72807996 -0.02435457 22.09787107 -0.01479292 C27.74778248 -0.00713575 33.39768008 -0.0142585 39.04759216 -0.01895142 C48.52996477 -0.02439102 58.01226701 -0.01726422 67.49462891 -0.00292969 C78.42091877 0.01339802 89.34704065 0.0081001 100.27332646 -0.0084089 C109.69551188 -0.0220695 119.11764707 -0.02392129 128.53983921 -0.0160929 C134.14938063 -0.01144205 139.75884338 -0.01071974 145.36837959 -0.02070236 C150.64386012 -0.02943683 155.91912626 -0.02323304 161.19458389 -0.00601959 C163.11810515 -0.0020893 165.04164479 -0.0031286 166.96515846 -0.00980759 C181.85392295 -0.05669701 196.01700254 1.11550006 210.06811523 6.51318359 C210.85766602 6.8117627 211.6472168 7.1103418 212.46069336 7.41796875 C224.87526001 12.30726726 235.5848171 19.49478203 245.50561523 28.38818359 C246.19913086 28.99919922 246.89264648 29.61021484 247.60717773 30.23974609 C267.89482775 49.23415945 279.07921731 77.87370861 280.44311523 105.20849609 C281.23969965 139.34545721 272.42370467 170.47051995 248.64526367 195.70019531 C231.0412309 213.78646363 205.8004484 226.4461106 180.24021256 227.47979939 C177.58857336 227.51377087 174.93860618 227.51664968 172.28675842 227.50843811 C171.27214002 227.50929254 170.25752161 227.51014696 169.21215719 227.51102728 C165.82045649 227.51267127 162.4288055 227.50717839 159.03710938 227.50170898 C156.60261028 227.50142685 154.1681111 227.50158535 151.73361206 227.50215149 C146.49644047 227.50237903 141.25928007 227.49954695 136.02211189 227.49391365 C128.45011797 227.48577424 120.87813007 227.48318093 113.30613225 227.48192566 C101.02000271 227.47973898 88.73387983 227.47308929 76.44775391 227.46362305 C64.51546258 227.45443901 52.58317306 227.44736302 40.65087891 227.44311523 C39.91493006 227.44285251 39.17898122 227.44258979 38.4207309 227.4423191 C34.72855975 227.44101403 31.03638859 227.43975033 27.34421742 227.4385072 C-3.26865474 227.42814653 -33.88151883 227.41046413 -64.49438477 227.38818359 C-64.21716066 230.24351632 -63.92915505 233.09708513 -63.63500977 235.95068359 C-63.55847168 236.75054687 -63.48193359 237.55041016 -63.40307617 238.37451172 C-61.73622196 254.23390128 -53.44012021 269.1635072 -41.14672852 279.32958984 C-22.80438 292.78839707 -3.59719834 292.83533112 18.24731445 292.82055664 C20.948866 292.82958351 23.65038964 292.83978347 26.35192871 292.85144043 C32.14446481 292.87411923 37.9369412 292.88609288 43.72951889 292.89056969 C52.10435587 292.89705802 60.47908542 292.92004217 68.85387887 292.94691298 C82.44496983 292.99007875 96.03605623 293.02010363 109.62719727 293.04174805 C122.82123041 293.06278846 136.01522639 293.09009015 149.20922852 293.12573242 C150.02398718 293.12793125 150.83874583 293.13013007 151.67819415 293.13239553 C155.76604107 293.14346594 159.85388765 293.15465861 163.94173408 293.16591203 C197.79633852 293.25895244 231.65093212 293.32817519 265.50561523 293.38818359 C265.50561523 319.12818359 265.50561523 344.86818359 265.50561523 371.38818359 C230.03128483 371.45442979 194.55701319 371.50977989 159.08263854 371.54137958 C154.88614694 371.5451313 150.68965547 371.54901431 146.49316406 371.55297852 C145.24009578 371.55415891 145.24009578 371.55415891 143.96171299 371.55536316 C130.46918771 371.56838561 116.97670111 371.59202187 103.48419871 371.61964198 C89.61998724 371.64778444 75.7557959 371.66437846 61.89155704 371.67044908 C53.34972673 371.67454727 44.80800582 371.68744895 36.26620922 371.71193299 C30.39360426 371.72789957 24.52105512 371.73255951 18.64843007 371.72868773 C15.26983983 371.72678296 11.89159129 371.73120457 8.51301003 371.74580002 C-30.98360138 371.9079419 -66.7741705 363.14096718 -96.31079102 335.39599609 C-98.51178224 333.3236979 -98.51178224 333.3236979 -101.07641602 331.33740234 C-126.43826677 310.89222702 -139.48127105 274.5864435 -143.21823883 243.28662109 C-144.1176596 233.84626884 -143.92133543 224.32963481 -143.89282227 214.85693359 C-143.89485038 212.44478264 -143.89776789 210.03263229 -143.90151978 207.6204834 C-143.90590848 202.59816574 -143.89962455 197.57600961 -143.88549805 192.55371094 C-143.86840858 186.1731352 -143.87826847 179.7929383 -143.89621544 173.4123764 C-143.90714736 168.44127642 -143.90356418 163.47026364 -143.89583206 158.49916077 C-143.89385594 156.14884901 -143.89619623 153.79852887 -143.90327072 151.44822693 C-143.99041142 114.37936912 -135.88755319 79.31151187 -111.49438477 50.38818359 C-110.76477539 49.51806641 -110.03516602 48.64794922 -109.28344727 47.75146484 C-80.94591986 15.1684234 -42.59367972 -0.1480688 0 0 Z M-50.49438477 99.38818359 C-58.33335836 109.40846274 -64.67586783 121.25830802 -64.59204102 134.25146484 C-64.58881836 135.13769531 -64.5855957 136.02392578 -64.58227539 136.93701172 C-64.57389648 137.84902344 -64.56551758 138.76103516 -64.55688477 139.70068359 C-64.55237305 140.63203125 -64.54786133 141.56337891 -64.54321289 142.52294922 C-64.53147711 144.81142732 -64.5150584 147.09977167 -64.49438477 149.38818359 C-33.85227865 149.47951497 -3.21020378 149.55026403 27.43200602 149.59244491 C31.0529782 149.59744749 34.6739501 149.6026248 38.29492188 149.60791016 C39.37618692 149.60948402 39.37618692 149.60948402 40.47929569 149.61108968 C52.13752025 149.62847539 63.79566559 149.66000291 75.45384321 149.69679478 C87.42411275 149.73425535 99.3943409 149.75643024 111.36466664 149.76453757 C118.08490964 149.76952439 124.80498771 149.7814771 131.52517128 149.81110382 C137.85427465 149.83831269 144.18312512 149.84661737 150.51228142 149.84061432 C152.83137004 149.84171209 155.15046738 149.84963303 157.46950531 149.86500549 C160.64516379 149.88501856 163.81987761 149.8800811 166.99555969 149.86920166 C168.35991204 149.88667871 168.35991204 149.88667871 169.75182706 149.90450883 C178.08084957 149.82781183 186.17689343 147.87157063 192.44311523 142.13818359 C201.21386382 132.29731975 202.36961969 120.0822795 201.68774414 107.45214844 C200.79826661 97.37219795 196.15369215 89.8615159 188.50561523 83.38818359 C181.65571925 79.20275282 174.87053148 78.2389217 166.94400024 78.24101257 C166.19077087 78.23733589 165.43754149 78.2336592 164.66148698 78.22987109 C162.14158656 78.21887263 159.62172743 78.21499688 157.10180664 78.21118164 C155.29291657 78.20491384 153.48402778 78.19826676 151.67514038 78.19126892 C145.73582857 78.17025497 139.79651659 78.15986558 133.85717773 78.14990234 C131.80793622 78.14585309 129.75869483 78.14173612 127.70945358 78.13755226 C118.07563546 78.1185025 108.44182496 78.10427383 98.80799162 78.09594029 C87.71364207 78.08618345 76.61949286 78.05990363 65.52521384 78.0194394 C56.93471446 77.98919082 48.3442722 77.97446295 39.75372064 77.97115928 C34.63078372 77.9688178 29.50806086 77.95997613 24.38518143 77.9346981 C19.55716155 77.9112605 14.72949426 77.90724663 9.90143204 77.91745949 C8.1403536 77.91795125 6.37925688 77.91173847 4.61823273 77.89790344 C-16.70048069 77.73994605 -35.68530004 82.89369468 -50.49438477 99.38818359 Z " fill="#1D2546" transform="translate(604.494384765625,21.61181640625)"/>
<path d="M0 0 C1.16675284 -0.00170885 2.33350568 -0.0034177 3.53561467 -0.00517833 C6.73295068 -0.00787792 9.93011971 -0.00172391 13.12743604 0.00837779 C16.5907705 0.0170891 20.05409845 0.01408675 23.5174408 0.01257324 C29.50426344 0.0115292 35.49104217 0.01775518 41.47785378 0.02904892 C50.13356068 0.04536665 58.78924656 0.05051831 67.44496717 0.0530249 C81.49141488 0.05739221 95.53783924 0.07067502 109.58427429 0.08963013 C123.2216429 0.10801397 136.85900515 0.12215819 150.49638367 0.13064575 C151.33828801 0.1311712 152.18019235 0.13169665 153.04760895 0.13223802 C157.27158283 0.13484826 161.49555675 0.13737564 165.7195307 0.13986182 C200.71068017 0.16056426 235.70178641 0.19741773 270.69291687 0.24050903 C270.69291687 25.98050903 270.69291687 51.72050903 270.69291687 78.24050903 C262.43042908 78.25509155 254.16794128 78.26967407 245.65507507 78.28469849 C219.18889418 78.33350275 192.72276758 78.39692483 166.25664182 78.46949532 C162.14254566 78.48076287 158.02844915 78.49190142 153.91435242 78.50296021 C153.09534339 78.50516389 152.27633436 78.50736757 151.43250688 78.50963803 C138.1881531 78.54496691 124.94379938 78.5698559 111.69941602 78.59085605 C98.09961642 78.61265329 84.49987773 78.64574083 70.90012997 78.68921059 C62.51493615 78.71565986 54.12981815 78.73340469 45.7445847 78.73985507 C39.98692174 78.74512961 34.22935403 78.76141546 28.47174219 78.78617469 C25.15468231 78.80011952 21.83793689 78.80774913 18.52082634 78.8055172 C14.91245019 78.80385637 11.30459367 78.82063348 7.69628906 78.84178162 C6.1480733 78.83451025 6.1480733 78.83451025 4.56858045 78.82709199 C-12.90471396 78.99504686 -28.34504803 84.98112324 -40.68208313 97.35379028 C-56.89947913 115.18809928 -57.62505366 135.84949892 -57.60786438 158.60379028 C-57.61176072 160.7664854 -57.61609728 162.92917976 -57.62084961 165.09187317 C-57.62827579 169.60783375 -57.62804694 174.1237161 -57.62275696 178.63967896 C-57.61696896 184.385236 -57.6338951 190.13046998 -57.65710163 195.8759737 C-57.67193749 200.33821947 -57.67269732 204.80038919 -57.6695919 209.26265526 C-57.67010023 211.37903673 -57.67524457 213.49542302 -57.68540382 215.61178017 C-57.87322646 238.28836837 -57.87322646 238.28836837 -50.74458313 259.55300903 C-50.40016174 260.20906128 -50.05574036 260.86511353 -49.70088196 261.54104614 C-41.77777152 275.96064865 -28.88492145 285.33569437 -13.30708313 290.24050903 C-5.7188484 291.9724458 1.57687756 292.53362023 9.34188843 292.51898193 C10.46201334 292.52477434 11.58213826 292.53056674 12.73620635 292.53653467 C16.46098279 292.55343674 20.18563459 292.55640273 23.91044617 292.55935669 C26.5918446 292.56866163 29.27322964 292.57874499 31.95462036 292.58979797 C37.71282112 292.61199162 43.47100434 292.62705218 49.22923851 292.63716507 C57.55450737 292.65179678 65.8797151 292.67734599 74.20494793 292.70549636 C87.71451183 292.75088303 101.22408457 292.78753129 114.73368835 292.81863403 C127.85121715 292.84885294 140.96872436 292.88321849 154.08622742 292.92312622 C154.89580026 292.92558777 155.70537309 292.92804932 156.53947844 292.93058546 C160.60116905 292.94296071 164.66285941 292.95541712 168.72454965 292.96791387 C202.38064644 293.07135993 236.03675807 293.15898422 269.69291687 293.24050903 C269.69291687 318.98050903 269.69291687 344.72050903 269.69291687 371.24050903 C234.3289579 371.3067464 198.96505953 371.36209992 163.60105712 371.39370502 C159.41829802 371.39745678 155.23553905 371.40133978 151.05278015 371.40530396 C149.80380433 371.40648435 149.80380433 371.40648435 148.52959667 371.4076886 C135.07842819 371.42071358 121.62729849 371.44435126 108.17615296 371.47196742 C94.3560168 371.50010279 80.53590084 371.51670241 66.71573722 371.52277452 C58.20000695 371.52687416 49.68438633 371.53978391 41.16868983 371.56425843 C35.31524797 371.58021622 29.46186212 371.58488689 23.60840012 371.58101317 C20.24005978 371.57910706 16.87206223 371.58354197 13.50373077 371.59812546 C-24.3781439 371.75399433 -58.03161689 363.30611484 -87.30708313 338.24050903 C-88.13852844 337.53152466 -88.96997375 336.82254028 -89.82661438 336.09207153 C-99.90015692 327.27191908 -108.08456222 317.49147573 -115.30708313 306.24050903 C-115.98770813 305.18347778 -116.66833313 304.12644653 -117.36958313 303.03738403 C-130.24256332 281.81708074 -136.44181889 257.49426903 -136.46821594 232.78591919 C-136.4756633 231.10115479 -136.4756633 231.10115479 -136.48326111 229.38235474 C-136.49781518 225.68142065 -136.50467521 221.98052949 -136.51020813 218.27957153 C-136.51303551 217.00753246 -136.51586288 215.73549339 -136.51877594 214.42490768 C-136.53220594 208.37967136 -136.5421049 202.3344575 -136.54597783 196.28920901 C-136.55044144 189.36398086 -136.56791838 182.43895177 -136.59697843 175.51378405 C-136.62142277 169.47393269 -136.62893299 163.43417356 -136.63065338 157.39426804 C-136.63365557 154.84691666 -136.64160037 152.29956561 -136.65483856 149.75224686 C-136.74029606 132.03697328 -135.94273102 115.20277609 -130.61958313 98.17800903 C-130.36467102 97.35276733 -130.10975891 96.52752563 -129.84712219 95.67727661 C-123.41602734 75.64445456 -112.38056766 58.72859639 -98.30708313 43.24050903 C-97.51817688 42.36781372 -96.72927063 41.49511841 -95.91645813 40.59597778 C-79.42237689 23.25534601 -57.04272478 10.90660696 -34.11958313 4.42800903 C-33.43219055 4.2331189 -32.74479797 4.03822876 -32.03657532 3.83743286 C-21.47244467 1.03063984 -10.90545812 -0.0597512 0 0 Z " fill="#1D2546" transform="translate(147.3070831298828,21.759490966796875)"/>
<path d="M0 0 C11.40184326 -0.74650675 22.7977759 -1.31227974 34.21919727 -1.6579895 C39.52648598 -1.82410676 44.81693011 -2.04826527 50.11450195 -2.4140625 C83.49594326 -4.66022555 83.49594326 -4.66022555 91.985466 1.42260742 C99.67650534 8.67998249 103.85176812 18.67359714 107.55909729 28.38581848 C109.27704856 32.69491423 111.37265597 36.19386862 114 40 C118.97661097 47.76991161 123.61703901 55.74621996 128.3125 63.6875 C133.62769765 72.67676904 138.96008322 81.64658923 144.5 90.5 C150.47889576 100.0549486 156.21489464 109.74812842 161.95117188 119.44970703 C166.56796977 127.25540862 171.20469238 135.03766913 176.07495117 142.6887207 C181.15710689 150.73664243 185.93518244 158.97204447 190.77978516 167.1640625 C197.27123057 178.15429403 197.27123057 178.15429403 204 189 C208.95416579 196.7854374 213.61637671 204.74509983 218.3125 212.6875 C224.10665373 222.48679821 229.95382209 232.2400625 235.99609375 241.88916016 C239.31261117 247.21045373 242.54589872 252.57633381 245.73828125 257.97265625 C246.15588715 258.6784079 246.57349304 259.38415955 247.00375366 260.11129761 C249.07591855 263.61644548 251.14271192 267.12465099 253.203125 270.63671875 C261.81609316 287.77864033 261.81609316 287.77864033 276 299 C281.65259414 299.98423764 287.03185984 299.5046511 292.01635742 296.53564453 C299.33045012 290.87341154 303.95386065 280.35124073 308.6875 272.5625 C310.10493207 270.24236261 311.52498678 267.92383557 312.9453125 265.60546875 C313.29459305 265.03483704 313.6438736 264.46420532 314.0037384 263.87628174 C316.98190653 259.01596749 320.00856359 254.18796188 323.0625 249.375 C329.44536067 239.31097267 335.75739244 229.2032804 342.06787109 219.09375 C343.98762772 216.01981065 345.90946258 212.94718124 347.83203125 209.875 C353.74221795 200.42947882 359.64175559 190.9778411 365.5 181.5 C371.99427777 170.99314361 378.54042507 160.51905273 385.09277344 150.04833984 C388.23041563 145.03341404 391.36507133 140.01662235 394.5 135 C395.74998537 132.99999085 396.99998537 130.99999086 398.25 129 C398.86875 128.01 399.4875 127.02 400.125 126 C417 99 433.875 72 450.75 45 C451.36979736 44.00830811 451.98959473 43.01661621 452.62817383 41.99487305 C453.86753578 40.01192625 455.10695554 38.02901559 456.34643555 36.04614258 C459.28067426 31.35190193 462.21431113 26.65728853 465.14590454 21.96139526 C466.19348279 20.28342022 467.24127127 18.60557643 468.2890625 16.92773438 C469.6110447 14.8107764 470.93267464 12.69359839 472.25390625 10.57617188 C473.14335938 9.15208008 473.14335938 9.15208008 474.05078125 7.69921875 C474.83449097 6.44371216 474.83449097 6.44371216 475.6340332 5.1628418 C476.73104098 3.42586379 477.86042941 1.70935588 479 0 C481.93057069 -0.28611093 484.64887526 -0.37805361 487.58056641 -0.34057617 C488.46843338 -0.34101425 489.35630035 -0.34145233 490.27107239 -0.34190369 C493.21479043 -0.33980852 496.15794358 -0.3164433 499.1015625 -0.29296875 C501.13894337 -0.28737538 503.17632826 -0.28310406 505.2137146 -0.28010559 C510.58307992 -0.26863643 515.95220281 -0.23915143 521.32147217 -0.20599365 C526.79761475 -0.17533737 532.27379639 -0.16160977 537.75 -0.14648438 C548.50010667 -0.11428372 559.2500332 -0.06306238 570 0 C568.53788697 3.76731141 566.85701948 7.06766282 564.7265625 10.5078125 C564.07300781 11.56677734 563.41945313 12.62574219 562.74609375 13.71679688 C562.03919319 14.85294591 561.33215877 15.98901166 560.625 17.125 C559.8942786 18.30518215 559.16381245 19.48552237 558.43359375 20.66601562 C553.86009315 28.05024233 549.23733996 35.40288786 544.58056641 42.73486328 C540.32350235 49.45105659 536.15878203 56.22261699 532 63 C526.88672938 71.33108916 521.73619375 79.634777 516.5012207 87.88989258 C512.53817678 94.14015238 508.60763692 100.41024543 504.6875 106.6875 C504.05706787 107.69699707 503.42663574 108.70649414 502.77709961 109.74658203 C501.4923985 111.80412772 500.20781255 113.86174532 498.92333984 115.91943359 C495.78410777 120.94746487 492.64192849 125.97365341 489.5 131 C488.24998536 132.99999085 486.99998538 134.99999086 485.75 137 C478.25 149 478.25 149 476.37524414 151.99951172 C475.12431331 154.00106619 473.87349965 156.00269389 472.62280273 158.00439453 C469.51299731 162.98121596 466.40121669 167.95677968 463.28515625 172.9296875 C456.75014935 183.36391232 450.25404372 193.82027818 443.8125 204.3125 C438.76101404 212.53944747 433.67051567 220.73817508 428.50048828 228.89111328 C424.53761752 235.14092122 420.60738552 241.41064799 416.6875 247.6875 C416.05706787 248.69699707 415.42663574 249.70649414 414.77709961 250.74658203 C413.4923985 252.80412772 412.20781255 254.86174532 410.92333984 256.91943359 C407.78410775 261.94746489 404.64189167 266.97363037 401.5 272 C400.88294189 272.98742187 400.26588379 273.97484375 399.63012695 274.9921875 C396.4813866 280.03082899 393.33154276 285.06877508 390.1796875 290.10546875 C388.91144605 292.13280481 387.64321681 294.16014852 386.375 296.1875 C385.75544434 297.1772583 385.13588867 298.1670166 384.49755859 299.18676758 C381.47520805 304.01990585 378.46575029 308.8602125 375.484375 313.71875 C357.82460495 342.49707068 339.5831152 366.50830426 305.359375 375.2578125 C279.91807617 380.87856457 254.49941985 377.93321763 231.77734375 364.8125 C216.48305375 354.83141623 205.4505152 342.59319029 196 327 C194.77513179 325.0010617 193.54983367 323.0023868 192.32421875 321.00390625 C184.10955142 307.56794435 176.04377786 294.04593804 168.02520752 280.49224854 C162.7808539 271.63095434 157.459716 262.82859534 151.99780273 254.09912109 C146.53800096 245.33486102 141.30392763 236.43807138 136.04882812 227.55029297 C131.43203023 219.74459138 126.79530762 211.96233087 121.92504883 204.3112793 C116.84289311 196.26335757 112.06481756 188.02795553 107.22021484 179.8359375 C100.72876943 168.84570597 100.72876943 168.84570597 94 158 C89.04583421 150.2145626 84.38362329 142.25490017 79.6875 134.3125 C74.3723008 125.32322833 69.03983442 116.35346444 63.5 107.5 C57.59130025 98.05546081 51.91994743 88.47658817 46.25097656 78.88720703 C40.935432 69.89921829 35.54904789 60.96734887 30.00756836 52.11621094 C24.04337536 42.54556416 18.33759743 32.81951638 12.62109375 23.09960938 C11.84288301 21.7796913 11.06424811 20.46002319 10.28515625 19.140625 C9.91359406 18.51051514 9.54203186 17.88040527 9.15921021 17.23120117 C6.60737597 12.93586664 3.9039531 8.78594644 0.99389648 4.72558594 C0 3 0 3 0 0 Z " fill="#1D2546" transform="translate(897,22)"/>
<path d="M0 0 C10.64049786 8.45034393 16.0320104 20.33896013 18.6875 33.375 C20.06978542 49.40951091 17.80938474 64.6169009 7.92578125 77.7578125 C-1.83323562 89.16887934 -14.57856688 95.92478609 -29.51953125 97.78125 C-45.03924739 98.75667548 -60.13771969 96.20717188 -73 87 C-73.63421875 86.54882812 -74.2684375 86.09765625 -74.921875 85.6328125 C-84.81532934 77.88439914 -91.23476449 65.35664857 -93 53 C-94.0631767 35.85574623 -92.32806658 20.17371706 -80.6875 6.75 C-59.60205044 -15.44703834 -24.82187278 -17.59570895 0 0 Z M-62 22 C-63.6913708 24.56482498 -64.9103476 27.13249368 -66 30 C-66.4125 31.0725 -66.825 32.145 -67.25 33.25 C-69.36185985 43.80929925 -68.31700922 54.09507544 -62.52734375 63.35546875 C-57.34884523 69.88062174 -50.20334572 73.72506872 -42 75 C-33.77754438 75.71860116 -26.14705129 74.93998449 -19.2890625 70.078125 C-10.72902755 62.79832989 -7.62337493 56.38924944 -6.1875 45.3125 C-5.64767528 35.77559663 -8.64012754 28.15980413 -13.75 20.3125 C-20.15851369 13.72597204 -27.63978571 10.98893897 -36.75 10.625 C-46.8349278 10.83930472 -55.36171343 14.27887236 -62 22 Z " fill="#1D2546" transform="translate(1077,490)"/>
<path d="M0 0 C-0.58835577 3.44370946 -1.76126993 5.16493074 -4.16015625 7.671875 C-5.1027832 8.66767578 -5.1027832 8.66767578 -6.06445312 9.68359375 C-6.72380859 10.36550781 -7.38316406 11.04742187 -8.0625 11.75 C-8.72572266 12.44738281 -9.38894531 13.14476562 -10.07226562 13.86328125 C-11.70843485 15.58184749 -13.35108255 17.29367649 -15 19 C-18.04102702 18.31095618 -19.83072488 17.5413731 -22.25 15.5625 C-29.52377467 10.2529514 -38.2917798 10.16090005 -47 11 C-55.04174772 12.96238875 -61.06557144 15.86884893 -65.6875 22.875 C-70.90644073 31.7913721 -72.11823489 41.60341344 -69.7265625 51.6484375 C-67.12134445 60.08037978 -62.68711016 65.97432144 -54.8046875 70.15234375 C-43.59569966 75.41717137 -32.54106781 72.74243195 -21 70 C-21 64.72 -21 59.44 -21 54 C-26.94 54 -32.88 54 -39 54 C-39 46.74 -39 39.48 -39 32 C-25.14 32 -11.28 32 3 32 C3 49.82 3 67.64 3 86 C-11.22422272 93.11211136 -11.22422272 93.11211136 -17.1875 94.375 C-17.92307129 94.53363525 -18.65864258 94.69227051 -19.41650391 94.85571289 C-26.20931035 96.14597051 -32.97318169 96.38921039 -39.875 96.4375 C-40.8961792 96.44765137 -41.9173584 96.45780273 -42.96948242 96.46826172 C-58.67604287 96.28812025 -71.38055746 91.15232035 -82.77734375 80.3515625 C-93.87005263 68.6155155 -97.66367309 53.84497778 -97.2421875 38.05859375 C-96.54804396 23.45752488 -90.70977449 10.33570714 -80.01171875 0.29296875 C-58.12441734 -16.37090405 -21.40561633 -19.2650547 0 0 Z " fill="#1D2546" transform="translate(1239,491)"/>
<path d="M0 0 C0.51046875 0.38671875 1.0209375 0.7734375 1.546875 1.171875 C0.9809379 4.87097113 -0.44125913 6.45982521 -3.140625 8.984375 C-6.84103375 12.53810088 -10.1696006 16.23164572 -13.453125 20.171875 C-15.7046959 19.06994094 -17.82352677 17.9403739 -19.953125 16.609375 C-24.57426941 13.95221697 -29.16481803 13.60069846 -34.453125 14.171875 C-37.97062129 15.22780956 -40.82313001 16.54188001 -43.453125 19.171875 C-43.95343706 22.58759353 -43.95343706 22.58759353 -43.453125 26.171875 C-40.85885004 29.34135119 -38.56261012 30.78834724 -34.703125 32.046875 C-33.74277344 32.376875 -32.78242187 32.706875 -31.79296875 33.046875 C-30.69082031 33.418125 -29.58867188 33.789375 -28.453125 34.171875 C-5.07527835 42.15426803 -5.07527835 42.15426803 0.546875 53.171875 C3.78856628 61.56785542 2.8892337 70.96268233 0.046875 79.359375 C-3.84862845 88.04397409 -10.87004092 93.74623519 -19.58203125 97.23828125 C-33.33223028 101.7094344 -48.23376567 101.19612589 -61.453125 95.171875 C-65.47359279 92.87362514 -69.17317654 90.45182346 -72.453125 87.171875 C-72.13448316 83.76379274 -70.78513068 82.19157531 -68.328125 79.921875 C-64.94289169 76.71077921 -61.97125782 73.29583761 -59.03125 69.67578125 C-57.453125 68.171875 -57.453125 68.171875 -54.453125 68.171875 C-53.3703125 69.3165625 -53.3703125 69.3165625 -52.265625 70.484375 C-47.55204351 74.98846398 -42.78830348 76.32344026 -36.328125 76.546875 C-32.0425487 76.39546447 -29.02418367 75.69774577 -25.453125 73.171875 C-23.3181957 70.97547027 -23.3181957 70.97547027 -22.453125 68.171875 C-23.00392488 64.31627583 -23.81724354 62.68846386 -26.84765625 60.2265625 C-31.40471788 57.33359256 -36.59794596 55.98727906 -41.703125 54.359375 C-52.53947264 50.72863124 -61.76759558 47.37032593 -67.61328125 36.96875 C-70.76172217 30.23255082 -70.42013756 21.36594661 -68.76953125 14.20703125 C-64.74929544 3.38075306 -57.44867075 -1.98910845 -47.2890625 -6.8671875 C-31.77058503 -12.73459771 -13.15618557 -9.42393434 0 0 Z " fill="#1D2546" transform="translate(1445.453125,487.828125)"/>
<path d="M0 0 C1.93359375 1.59765625 1.93359375 1.59765625 2.8984375 3.5859375 C2.93359375 5.59765625 2.93359375 5.59765625 1.74609375 7.23828125 C1.14796875 7.769375 0.54984375 8.30046875 -0.06640625 8.84765625 C-3.50565363 12.02552083 -6.50729784 15.38826804 -9.48828125 18.99609375 C-11.06640625 20.59765625 -11.06640625 20.59765625 -14.06640625 21.59765625 C-14.48535156 21.13746094 -14.90429688 20.67726563 -15.3359375 20.203125 C-19.06139836 16.74677193 -24.12293579 15.42718034 -29.12890625 15.22265625 C-33.58581139 15.64712341 -36.15138056 16.48354238 -40.06640625 18.59765625 C-42.3938997 22.08889642 -42.56939941 23.48987876 -42.06640625 27.59765625 C-39.44727001 30.74417513 -37.17826344 32.21335499 -33.31640625 33.47265625 C-32.35863281 33.80007813 -31.40085937 34.1275 -30.4140625 34.46484375 C-29.30933594 34.83867188 -28.20460938 35.2125 -27.06640625 35.59765625 C-24.28757186 36.57632205 -21.51985293 37.58322076 -18.75390625 38.59765625 C-18.08456055 38.83468262 -17.41521484 39.07170898 -16.72558594 39.31591797 C-9.38339885 42.01024821 -3.35388658 45.95775309 0.93359375 52.59765625 C4.78034812 61.42934325 5.06676087 70.48435766 1.93359375 79.59765625 C-2.4747356 89.18287236 -8.90458422 94.8247459 -18.60546875 98.78125 C-32.12989034 103.26792319 -47.09775435 102.50765619 -60.06640625 96.59765625 C-64.08687404 94.29940639 -67.78645779 91.87760471 -71.06640625 88.59765625 C-70.74776441 85.18957399 -69.39841193 83.61735656 -66.94140625 81.34765625 C-63.05720606 77.64037615 -59.55266023 73.67731517 -56.06640625 69.59765625 C-52.3446906 70.30845602 -50.48137782 71.92488221 -47.62109375 74.38671875 C-42.58682647 78.30788171 -36.14894189 78.22224522 -30.06640625 77.59765625 C-26.61312371 76.72958339 -23.89412272 75.59781365 -21.56640625 72.78515625 C-20.85157631 69.65777526 -21.10836249 67.66339629 -22.06640625 64.59765625 C-26.42608116 60.12112408 -31.92096523 58.66800894 -37.69140625 56.72265625 C-60.80516225 48.57018842 -60.80516225 48.57018842 -66.06640625 38.59765625 C-69.34560278 30.33181947 -69.32404033 20.86914009 -66.02734375 12.58203125 C-61.58269464 3.40365016 -54.09672105 -2.06175407 -44.69140625 -5.83984375 C-29.29953294 -10.46538081 -13.60839527 -7.96122968 0 0 Z " fill="#1D2546" transform="translate(1905.06640625,486.40234375)"/>
<path d="M0 0 C1.2684375 1.051875 1.2684375 1.051875 2.5625 2.125 C4 4 4 4 3.88671875 5.8671875 C2.64827663 8.84599542 0.80729513 10.06311375 -1.75 12 C-2.61109375 12.66 -3.4721875 13.32 -4.359375 14 C-5.23078125 14.66 -6.1021875 15.32 -7 16 C-8.33804687 17.11375 -8.33804687 17.11375 -9.703125 18.25 C-12 20 -12 20 -14 20 C-16 19 -16 19 -18.3125 17.0625 C-24.11790153 12.60719185 -30.94550007 12.3193974 -38 13 C-45.50004594 14.45596324 -50.94746607 17.84628672 -55.47265625 24.00390625 C-60.9349857 32.90606998 -62.01270226 42.84834116 -60 53 C-57.91134071 60.39147303 -54.62518384 67.07131216 -47.9765625 71.28125 C-40.99376058 74.915422 -34.11410655 76.32784666 -26.3671875 74.31640625 C-20.63201599 72.2534565 -17.43227946 70.03400987 -14 65 C-10.62000312 65.61303865 -8.5854416 66.83863269 -5.890625 68.94140625 C-4.75947266 69.81635742 -4.75947266 69.81635742 -3.60546875 70.70898438 C-2.82816406 71.32064453 -2.05085938 71.93230469 -1.25 72.5625 C-0.06083984 73.48579102 -0.06083984 73.48579102 1.15234375 74.42773438 C3.10616775 75.94606748 5.0550928 77.47027276 7 79 C3.21760168 87.1520183 -4.78779535 92.75869866 -13 96 C-28.13016389 100.56022162 -45.08992557 99.25974948 -59.2734375 92.421875 C-71.55654328 85.68891332 -79.82401976 76.12363869 -84.375 62.75 C-88.77162773 46.73642056 -87.91939622 29.74935169 -80 15 C-72.28996953 2.96483049 -60.57574222 -5.58135122 -46.75 -9.375 C-30.08143136 -12.15309477 -13.23809143 -11.74602837 0 0 Z " fill="#1D2546" transform="translate(1785,489)"/>
<path d="M0 0 C27.06 0 54.12 0 82 0 C82 7.26 82 14.52 82 22 C72.43 22 62.86 22 53 22 C53 49.06 53 76.12 53 104 C45.08 104 37.16 104 29 104 C29 76.94 29 49.88 29 22 C19.43 22 9.86 22 0 22 C0 14.74 0 7.48 0 0 Z " fill="#1D2546" transform="translate(1492,481)"/>
<path d="M0 0 C7.92 0 15.84 0 24 0 C25.7082941 1.7082941 25.11971926 3.86004377 25.12442017 6.13786316 C25.12082489 6.87297623 25.11722961 7.60808929 25.11352539 8.36547852 C25.11367142 9.13615662 25.11381744 9.90683472 25.1139679 10.7008667 C25.1132686 13.26024139 25.10547545 15.8195442 25.09765625 18.37890625 C25.09579213 20.14867615 25.0943682 21.91844656 25.09336853 23.68821716 C25.08954288 28.35551366 25.0797122 33.02277923 25.06866455 37.69006348 C25.05665707 43.285076 25.05204841 48.88009884 25.04621124 54.47512054 C25.03650047 62.98343523 25.01734425 71.49168202 25 80 C45.295 80.495 45.295 80.495 66 81 C66 88.59 66 96.18 66 104 C44.22 104 22.44 104 0 104 C0 69.68 0 35.36 0 0 Z " fill="#1D2546" transform="translate(874,481)"/>
<path d="M0 0 C7.92 0 15.84 0 24 0 C25.96217033 1.96217033 25.12694487 4.97404144 25.13552856 7.58636475 C25.13350433 8.53497375 25.1314801 9.48358276 25.12939453 10.4609375 C25.13114685 11.45434143 25.13289917 12.44774536 25.13470459 13.47125244 C25.13912511 16.77251912 25.13618441 20.07373273 25.1328125 23.375 C25.13348548 25.65804047 25.13445546 27.94108087 25.13571167 30.22412109 C25.13718891 35.01595744 25.13503323 39.80777519 25.13037109 44.59960938 C25.1246738 50.75716635 25.12795266 56.91467974 25.13394356 63.07223511 C25.13754845 67.78865897 25.13641091 72.50507241 25.13381577 77.22149658 C25.1331463 79.4926148 25.1339756 81.76373394 25.13629532 84.03485107 C25.13882067 87.20294722 25.1349829 90.37097172 25.12939453 93.5390625 C25.13141876 94.48767151 25.13344299 95.43628052 25.13552856 96.41363525 C25.11426224 102.88573776 25.11426224 102.88573776 24 104 C16.08 104 8.16 104 0 104 C0 69.68 0 35.36 0 0 Z " fill="#1D2546" transform="translate(1298,481)"/>
<path d="M0 0 C7.92 0 15.84 0 24 0 C24 34.32 24 68.64 24 104 C16.08 104 8.16 104 0 104 C0 69.68 0 35.36 0 0 Z " fill="#1D2546" transform="translate(1622,481)"/>
</svg>
