<?xml version="1.0" encoding="UTF-8"?>
<svg version="1.1" xmlns="http://www.w3.org/2000/svg" width="1024" height="768">
<path d="M0 0 C3.80375849 0.00316149 7.60673707 -0.02041254 11.41040039 -0.0456543 C60.52927354 -0.17274116 60.52927354 -0.17274116 77.50610352 8.31567383 C77.26667688 14.55992045 74.2395237 17.3578195 70.06860352 21.56567383 C69.07944946 22.59035767 69.07944946 22.59035767 68.0703125 23.63574219 C65.89654721 25.87687571 63.70316055 28.09738235 61.50610352 30.31567383 C60.73266602 31.10280762 59.95922852 31.88994141 59.16235352 32.70092773 C44.84576144 47.26182021 44.84576144 47.26182021 37.34326172 53.72802734 C33.86420792 56.7345771 30.50484461 59.87254706 27.11938477 62.98364258 C26.25700195 63.75321289 25.39461914 64.5227832 24.50610352 65.31567383 C23.7365332 66.07493164 22.96696289 66.83418945 22.17407227 67.61645508 C16.99296647 70.91628088 10.08460043 69.24471132 4.26391602 68.32739258 C2.87394574 68.11419078 1.48388621 67.90157027 0.09375 67.68945312 C-0.6309549 67.57725433 -1.35565979 67.46505554 -2.10232544 67.34945679 C-51.32639712 59.82908489 -102.1546515 57.44860212 -151.49389648 65.31567383 C-152.69804199 65.50291016 -153.9021875 65.69014648 -155.14282227 65.88305664 C-191.36521713 71.66466012 -227.16634235 81.91451434 -260.49389648 97.31567383 C-262.10310078 98.04001153 -263.71247666 98.76396814 -265.32202148 99.48754883 C-309.77591822 119.74017081 -353.29539421 151.73889413 -378.49389648 194.31567383 C-379.48389648 193.98567383 -380.47389648 193.65567383 -381.49389648 193.31567383 C-381.04611181 188.10723099 -379.1421897 184.8228599 -376.05639648 180.75317383 C-375.60828613 180.14602539 -375.16017578 179.53887695 -374.69848633 178.91333008 C-373.30843841 177.03854003 -371.90238898 175.17663027 -370.49389648 173.31567383 C-369.67205898 172.21297535 -368.8504353 171.11011748 -368.02905273 170.00708008 C-352.89298899 149.96467477 -335.71778566 130.52817053 -316.49389648 114.31567383 C-315.61088867 113.54352539 -314.72788086 112.77137695 -313.81811523 111.97583008 C-299.62796722 99.63858748 -284.42370188 88.3092561 -268.49389648 78.31567383 C-267.20249756 77.50477295 -267.20249756 77.50477295 -265.88500977 76.67749023 C-204.35624127 38.33378 -135.88888965 14.83773483 -64.24389648 4.50317383 C-63.55770233 4.40362396 -62.87150818 4.3040741 -62.16452026 4.20150757 C-57.28209598 3.50286066 -52.39308375 2.88444334 -47.49389648 2.31567383 C-46.7018985 2.22244843 -45.90990051 2.12922302 -45.09390259 2.03317261 C-30.06529651 0.31941466 -15.11758385 -0.02616673 0 0 Z " fill="#FF0000" transform="translate(552.493896484375,75.684326171875)"/>
<path d="M0 0 C0.99 0.33 1.98 0.66 3 1 C2.55221532 6.20844284 0.64829321 9.49281393 -2.4375 13.5625 C-3.10966553 14.47322266 -3.10966553 14.47322266 -3.79541016 15.40234375 C-5.18545807 17.2771338 -6.5915075 19.13904355 -8 21 C-8.8218375 22.10269848 -9.64346119 23.20555635 -10.46484375 24.30859375 C-25.60090749 44.35099906 -42.77611082 63.7875033 -62 80 C-62.88300781 80.77214844 -63.76601563 81.54429687 -64.67578125 82.33984375 C-78.86592927 94.67708635 -94.0701946 106.00641773 -110 116 C-110.86093262 116.54060059 -111.72186523 117.08120117 -112.60888672 117.63818359 C-174.13765522 155.98189383 -242.60500683 179.477939 -314.25 189.8125 C-315.27929123 189.9618248 -315.27929123 189.9618248 -316.32937622 190.11416626 C-321.21180051 190.81281317 -326.10081274 191.43123049 -331 192 C-331.79199799 192.0932254 -332.58399597 192.18645081 -333.3999939 192.28250122 C-348.42859997 193.99625917 -363.37631264 194.34184055 -378.49389648 194.31567383 C-382.29765498 194.31251234 -386.10063355 194.33608637 -389.90429688 194.36132812 C-439.02317003 194.48841499 -439.02317003 194.48841499 -456 186 C-455.76057337 179.75575337 -452.73342018 176.95785433 -448.5625 172.75 C-447.90306396 172.06687744 -447.24362793 171.38375488 -446.56420898 170.67993164 C-444.39044369 168.43879811 -442.19705703 166.21829147 -440 164 C-438.83984375 162.81929932 -438.83984375 162.81929932 -437.65625 161.61474609 C-423.33965792 147.05385362 -423.33965792 147.05385362 -415.8371582 140.58764648 C-412.3581044 137.58109673 -408.99874109 134.44312677 -405.61328125 131.33203125 C-404.75089844 130.56246094 -403.88851562 129.79289063 -403 129 C-402.23042969 128.24074219 -401.46085937 127.48148438 -400.66796875 126.69921875 C-395.48686295 123.39939295 -388.57849691 125.0709625 -382.7578125 125.98828125 C-381.36784223 126.20148305 -379.9777827 126.41410356 -378.58764648 126.6262207 C-377.86294159 126.73841949 -377.13823669 126.85061829 -376.39157104 126.96621704 C-327.16749936 134.48658894 -276.33924499 136.86707171 -227 129 C-225.79585449 128.81276367 -224.59170898 128.62552734 -223.35107422 128.43261719 C-187.12867935 122.65101371 -151.32755413 112.40115949 -118 97 C-116.39079571 96.2756623 -114.78141983 95.55170569 -113.171875 94.828125 C-68.71797827 74.57550301 -25.19850227 42.5767797 0 0 Z " fill="#FF0000" transform="translate(850,498)"/>
<path d="M0 0 C11.55 0 23.1 0 35 0 C38.2484375 5.6615625 38.2484375 5.6615625 41.5625 11.4375 C47.40357166 21.58681151 53.35933108 31.65825585 59.40869141 41.68505859 C66.05821651 52.72077691 72.53858369 63.85334128 79 75 C83.97468855 67.79600501 88.41567104 60.31588843 92.8125 52.75 C93.55080312 51.48460468 94.28941598 50.21939004 95.02832031 48.9543457 C96.56848595 46.31681669 98.1073152 43.6785155 99.64501953 41.03955078 C103.1375224 35.0469869 106.63982083 29.06016434 110.14511108 23.07507324 C111.22393646 21.23202651 112.30113853 19.38803853 113.37817383 17.54394531 C114.37433716 15.84189941 114.37433716 15.84189941 115.390625 14.10546875 C115.96844727 13.11699951 116.54626953 12.12853027 117.14160156 11.11010742 C119.37399749 7.37409957 121.6933568 3.69062913 124 0 C134.89 0 145.78 0 157 0 C157 47.85 157 95.7 157 145 C146.77 145 136.54 145 126 145 C125.67 115.3 125.34 85.6 125 55 C122.03 60.28 119.06 65.56 116 71 C113.52434299 75.10222504 111.03417043 79.18487102 108.5 83.25 C107.12031741 85.47738934 105.74132118 87.70518917 104.36328125 89.93359375 C103.83550835 90.78614998 103.83550835 90.78614998 103.29707336 91.65592957 C99.05375335 98.51701794 94.870139 105.41431431 90.6875 112.3125 C90.32124512 112.91622437 89.95499023 113.51994873 89.57763672 114.14196777 C86.37468594 119.42177546 83.17383852 124.70262763 80 130 C77.40043381 129.64510451 76.28628682 129.35344485 74.60644531 127.27954102 C74.18459961 126.52858154 73.76275391 125.77762207 73.328125 125.00390625 C72.83666992 124.14804932 72.34521484 123.29219238 71.83886719 122.41040039 C71.31454102 121.47059326 70.79021484 120.53078613 70.25 119.5625 C69.09619749 117.55067769 67.93983457 115.54032218 66.78125 113.53125 C66.17023438 112.46777344 65.55921875 111.40429688 64.9296875 110.30859375 C61.63775651 104.66433151 58.19149194 99.11638665 54.75 93.5625 C49.09708843 84.41478178 43.50394787 75.23799878 38 66 C36.02 62.7 34.04 59.4 32 56 C31.67 85.37 31.34 114.74 31 145 C20.77 145 10.54 145 0 145 C0 97.15 0 49.3 0 0 Z " fill="#051039" transform="translate(860,312)"/>
<path d="M0 0 C11.22 0 22.44 0 34 0 C40.73959938 10.10939908 40.73959938 10.10939908 43.33984375 14.6875 C43.92040527 15.70352295 44.5009668 16.7195459 45.09912109 17.76635742 C45.70578613 18.83345947 46.31245117 19.90056152 46.9375 21 C53.91312602 33.18252589 61.0857384 45.23783084 68.34326172 57.25488281 C70.71582288 61.1860761 73.07689193 65.12412258 75.4375 69.0625 C76.62493398 71.04170628 77.8124213 73.02088056 79 75 C84.10125348 66.7867784 89.08711195 58.51893509 93.95620728 50.16531372 C95.7834671 47.0311969 97.6166138 43.90052463 99.44921875 40.76953125 C100.01052742 39.81024971 100.01052742 39.81024971 100.58317566 38.83158875 C104.29689759 32.48735739 108.02681695 26.15276914 111.76977539 19.82574463 C112.78847432 18.10312736 113.80539169 16.37945692 114.82226562 14.65576172 C115.44423828 13.60533691 116.06621094 12.55491211 116.70703125 11.47265625 C117.2481958 10.55750244 117.78936035 9.64234863 118.34692383 8.69946289 C120.15295646 5.75022307 122.08168588 2.87747118 124 0 C134.89 0 145.78 0 157 0 C157 47.85 157 95.7 157 145 C146.77 145 136.54 145 126 145 C125.67 115.3 125.34 85.6 125 55 C117.08 68.365 117.08 68.365 109 82 C100.8125 95.375 100.8125 95.375 96.84765625 101.765625 C94.27173841 105.91878116 91.74182163 110.09506517 89.24609375 114.296875 C88.35990356 115.77341553 88.35990356 115.77341553 87.45581055 117.27978516 C86.34539087 119.13191496 85.24597475 120.99070109 84.15942383 122.85693359 C83.66853271 123.66984863 83.1776416 124.48276367 82.671875 125.3203125 C82.2500293 126.03461426 81.82818359 126.74891602 81.39355469 127.48486328 C80.70374512 128.23485596 80.70374512 128.23485596 80 129 C78.68 129 77.36 129 76 129 C74.20751953 126.79467773 74.20751953 126.79467773 72.3828125 123.68359375 C72.04905609 123.12440247 71.71529968 122.56521118 71.37142944 121.98907471 C70.27557338 120.14628998 69.20058146 118.29217866 68.125 116.4375 C67.36805564 115.15705969 66.60957695 113.87752524 65.84960938 112.59887695 C64.30269637 109.99335907 62.76266134 107.3839651 61.22753906 104.77148438 C58.04780736 99.37193997 54.77230841 94.03125721 51.5 88.6875 C47.63353559 82.34078562 43.77182485 75.99119389 39.9375 69.625 C38.96103516 68.00464844 38.96103516 68.00464844 37.96484375 66.3515625 C35.57436769 62.27397113 33.29545938 58.13182689 31 54 C31 84.03 31 114.06 31 145 C20.77 145 10.54 145 0 145 C0 97.15 0 49.3 0 0 Z " fill="#051039" transform="translate(165,312)"/>
<path d="M0 0 C0.68893845 -0.0049649 1.37787689 -0.00992981 2.08769226 -0.01504517 C4.34753455 -0.02954373 6.6073065 -0.03645043 8.8671875 -0.04199219 C9.64742279 -0.04481956 10.42765808 -0.04764694 11.23153687 -0.05056 C15.36611259 -0.06550769 19.50065386 -0.07476327 23.63525391 -0.07910156 C27.86326118 -0.08455927 32.09094205 -0.1085425 36.31884766 -0.13707352 C39.60667782 -0.15588996 42.8944326 -0.16091562 46.18231201 -0.16243744 C47.73852306 -0.16542522 49.29473406 -0.17331891 50.85089111 -0.18662262 C65.05236762 -0.29930283 80.48876045 0.05284044 91.69921875 9.87597656 C100.75388487 19.19751705 100.88069076 29.23868169 101.7421875 42.16113281 C90.5221875 42.16113281 79.3021875 42.16113281 67.7421875 42.16113281 C66.7521875 38.20113281 66.7521875 38.20113281 65.7421875 34.16113281 C62.05046921 30.14539149 58.93326446 29.90930308 53.57250977 29.65942383 C51.06794715 29.63981541 48.56313687 29.64308139 46.05859375 29.66503906 C44.71630271 29.66488387 43.37401123 29.66339163 42.03172302 29.66062927 C39.22496615 29.65924858 36.41872232 29.67174505 33.61206055 29.69458008 C30.02993398 29.72293706 26.44866073 29.72023082 22.86647129 29.70748997 C20.09617438 29.70050476 17.32607159 29.70835465 14.55579948 29.72074699 C12.5978035 29.72740572 10.6397801 29.72313609 8.68177795 29.71864319 C2.32341665 29.78577529 -2.71545565 29.88996785 -8.2578125 33.16113281 C-11.89952534 37.8953595 -12.38099568 42.24846121 -12.41894531 48.08789062 C-12.42855286 49.28303284 -12.4381604 50.47817505 -12.44805908 51.70953369 C-12.45230896 52.99809265 -12.45655884 54.28665161 -12.4609375 55.61425781 C-12.46376488 56.27359062 -12.46659225 56.93292343 -12.46950531 57.61223602 C-12.48447383 61.10331114 -12.49371724 64.5943452 -12.49804688 68.08544922 C-12.50351949 71.67416426 -12.52752809 75.26249759 -12.55601883 78.85109329 C-12.57473786 81.62566182 -12.57985576 84.40014023 -12.58138275 87.17476654 C-12.58584372 89.13553779 -12.60444623 91.09626062 -12.62335205 93.0569458 C-12.60660986 99.79461117 -12.31180113 105.09830619 -9.2578125 111.16113281 C-2.24294082 117.37885999 6.85011904 116.32989618 15.703125 116.36425781 C17.42083603 116.37280792 17.42083603 116.37280792 19.17324829 116.38153076 C21.58879684 116.39094955 24.00435806 116.39750229 26.41992188 116.40136719 C30.09788549 116.41108183 33.77529207 116.44213946 37.453125 116.47363281 C39.80728837 116.48016297 42.16145571 116.48541339 44.515625 116.48925781 C45.60652435 116.50160461 46.69742371 116.51395142 47.82138062 116.52667236 C53.92418198 116.5090248 60.39744859 116.46679155 65.7421875 113.16113281 C70.14537779 106.69751806 70.14537779 106.69751806 69.7421875 91.16113281 C55.8821875 91.16113281 42.0221875 91.16113281 27.7421875 91.16113281 C27.7421875 82.58113281 27.7421875 74.00113281 27.7421875 65.16113281 C52.1621875 65.16113281 76.5821875 65.16113281 101.7421875 65.16113281 C101.7834375 72.15300781 101.8246875 79.14488281 101.8671875 86.34863281 C101.88539551 88.52739014 101.90360352 90.70614746 101.92236328 92.95092773 C101.99551472 107.81647102 102.01019363 121.5747705 93.6171875 134.41113281 C81.96556278 145.55616516 65.19985929 145.62487963 50.05078125 145.55957031 C48.3717486 145.56159761 46.69271681 145.56451446 45.01368713 145.56826782 C41.51660676 145.57265917 38.01975823 145.56636333 34.52270508 145.55224609 C30.07257123 145.53514272 25.62297996 145.54502299 21.17286587 145.56296349 C17.71271276 145.57387691 14.25268534 145.57032083 10.79252815 145.56258011 C9.15291337 145.56059961 7.51328662 145.56296042 5.87368584 145.57001877 C-7.95033502 145.61649955 -22.60149626 144.72417728 -33.515625 135.18847656 C-44.97459875 123.20095236 -45.57807615 107.97316954 -45.59375 92.21582031 C-45.60019621 90.67660404 -45.60692584 89.13738892 -45.61392212 87.59817505 C-45.62583731 84.38247851 -45.62960911 81.1668889 -45.62841797 77.95117188 C-45.62821554 73.8767797 -45.65546435 69.80309094 -45.68996239 65.72886467 C-45.71245738 62.55078123 -45.71624863 59.37286077 -45.71519852 56.19470596 C-45.71752274 54.69513664 -45.72616132 53.19556054 -45.74186325 51.69607162 C-45.87733693 37.41888521 -44.6696006 21.96465155 -34.2578125 11.16113281 C-24.58190247 2.747298 -12.53863816 0.06926408 0 0 Z " fill="#051039" transform="translate(737.2578125,311.8388671875)"/>
<path d="M0 0 C14.52 0 29.04 0 44 0 C46.94646631 5.89293262 49.6844608 11.40187408 52.1015625 17.453125 C52.37543289 18.13436432 52.64930328 18.81560364 52.93147278 19.51748657 C53.5227627 20.98897236 54.11228136 22.46117095 54.70016479 23.934021 C56.33590751 28.03025972 57.98688185 32.12035965 59.63671875 36.2109375 C59.98680496 37.07965485 60.33689117 37.94837219 60.69758606 38.84341431 C64.88248433 49.21272983 69.16020596 59.54354145 73.4375 69.875 C75.04194345 73.75248969 76.64603988 77.63012285 78.25 81.5078125 C78.84195915 82.93876251 78.84195915 82.93876251 79.44587708 84.39862061 C83.62672936 94.50877996 87.7850647 104.62814195 91.9375 114.75 C92.27079315 115.5619281 92.6040863 116.3738562 92.94747925 117.21038818 C94.72349761 121.53735833 96.49503075 125.86610944 98.26141357 130.19702148 C98.94308732 131.86106929 99.63350328 133.52152871 100.32470703 135.18164062 C100.69321777 136.07560547 101.06172852 136.96957031 101.44140625 137.890625 C101.90268921 138.99712402 101.90268921 138.99712402 102.37329102 140.12597656 C103 142 103 142 103 145 C91.12 145 79.24 145 67 145 C65.68 141.596875 64.36 138.19375 63 134.6875 C62.58234375 133.61846436 62.1646875 132.54942871 61.734375 131.44799805 C61.24710938 130.18016479 61.24710938 130.18016479 60.75 128.88671875 C60.24726563 127.59060669 60.24726563 127.59060669 59.734375 126.26831055 C59 124 59 124 59 121 C34.58 121.33 10.16 121.66 -15 122 C-17.97 129.59 -20.94 137.18 -24 145 C-35.55 145 -47.1 145 -59 145 C-58.10984198 140.54920989 -56.80221086 136.74467104 -55.0703125 132.59765625 C-54.76863159 131.86508606 -54.46695068 131.13251587 -54.15612793 130.37774658 C-53.15000009 127.93755288 -52.13747151 125.50006769 -51.125 123.0625 C-50.40632019 121.32268241 -49.68806785 119.58268819 -48.97021484 117.8425293 C-47.04624232 113.18155683 -45.1169424 108.52280754 -43.18652344 103.86450195 C-40.05559636 96.30582554 -36.93421975 88.74319485 -33.81054688 81.18151855 C-32.62175876 78.30465621 -31.43204433 75.42817829 -30.2421875 72.55175781 C-26.12956041 62.60571372 -22.0344036 52.6528463 -17.96875 42.6875 C-17.55950287 41.68478561 -17.15025574 40.68207123 -16.72860718 39.64897156 C-14.77377198 34.85815491 -12.82158224 30.06628585 -10.87353516 25.27270508 C-10.16835915 23.54245403 -9.46312151 21.81222809 -8.7578125 20.08203125 C-8.45025024 19.32249146 -8.14268799 18.56295166 -7.82580566 17.78039551 C-5.3707517 11.76678492 -2.69458891 5.9280956 0 0 Z M21 26 C18.4001747 32.6655988 15.80466002 39.33286508 13.21191406 46.0012207 C12.33233489 48.26200903 11.4518266 50.52243613 10.5703125 52.7824707 C9.29172622 56.06102745 8.01666707 59.34093873 6.7421875 62.62109375 C6.35755341 63.60516708 5.97291931 64.58924042 5.57662964 65.60313416 C2.18610812 74.34608193 -0.87368767 83.14211506 -4 92 C12.83 92 29.66 92 47 92 C44.67889244 84.13546604 44.67889244 84.13546604 41.96289062 76.4777832 C41.59240601 75.52011551 41.22192139 74.56244781 40.84020996 73.57575989 C40.44950317 72.57751694 40.05879639 71.57927399 39.65625 70.55078125 C39.24588501 69.49392624 38.83552002 68.43707123 38.41271973 67.34819031 C37.55053808 65.12978596 36.68653854 62.91208735 35.82080078 60.69506836 C34.50027772 57.31321124 33.1852014 53.92927638 31.87109375 50.54492188 C31.0289611 48.38008567 30.18652363 46.215368 29.34375 44.05078125 C28.95304321 43.04646561 28.56233643 42.04214996 28.15979004 41.00740051 C26.18978233 35.96540065 24.16892445 30.95981988 22 26 C21.67 26 21.34 26 21 26 Z " fill="#051039" transform="translate(388,312)"/>
<path d="M0 0 C1.47292193 -0.00390035 2.94584276 -0.0082377 4.41876221 -0.01298523 C7.49145162 -0.02039956 10.56402605 -0.02019199 13.63671875 -0.01489258 C17.53059521 -0.00911471 21.42399338 -0.02601144 25.31779099 -0.04923725 C28.3568588 -0.06413435 31.39581576 -0.06482472 34.43491364 -0.06172752 C35.86830845 -0.0622331 37.30171078 -0.06732323 38.73506927 -0.07753944 C53.02888859 -0.16691655 68.99734414 0.69554659 80.19921875 10.70703125 C87.98352714 19.70419223 88.578125 30.96814711 88.578125 42.30078125 C77.688125 42.30078125 66.798125 42.30078125 55.578125 42.30078125 C54.588125 39.33078125 53.598125 36.36078125 52.578125 33.30078125 C47.4476941 28.94620215 40.38386498 29.8692053 33.98828125 29.90234375 C32.77039413 29.89947357 31.55250702 29.89660339 30.29771423 29.89364624 C27.72654759 29.89160811 25.15536535 29.89712034 22.58422852 29.90966797 C18.6580113 29.92571021 14.73282571 29.90981673 10.80664062 29.890625 C8.30468524 29.89260775 5.80273049 29.89645207 3.30078125 29.90234375 C2.13080093 29.89627106 0.96082062 29.89019836 -0.24461365 29.88394165 C-6.38506004 29.93666911 -11.05150809 30.20372564 -16.421875 33.30078125 C-20.06358784 38.03500794 -20.54505818 42.38810965 -20.58300781 48.22753906 C-20.59261536 49.42268127 -20.6022229 50.61782349 -20.61212158 51.84918213 C-20.61637146 53.13774109 -20.62062134 54.42630005 -20.625 55.75390625 C-20.62782738 56.41323906 -20.63065475 57.07257187 -20.63356781 57.75188446 C-20.64853633 61.24295958 -20.65777974 64.73399364 -20.66210938 68.22509766 C-20.66758199 71.8138127 -20.69159059 75.40214603 -20.72008133 78.99074173 C-20.73880036 81.76531026 -20.74391826 84.53978866 -20.74544525 87.31441498 C-20.74990622 89.27518623 -20.76850873 91.23590906 -20.78741455 93.19659424 C-20.77067236 99.93425961 -20.47586363 105.23795462 -17.421875 111.30078125 C-10.74537373 117.21858919 -2.39131851 116.45881753 6.04296875 116.46875 C7.0351088 116.4720784 8.02724884 116.4754068 9.04945374 116.47883606 C11.13965392 116.48387977 13.22986209 116.48624518 15.32006836 116.48608398 C18.50192617 116.48827183 21.68343771 116.50645868 24.86523438 116.52539062 C26.90364466 116.52832489 28.94205657 116.53030946 30.98046875 116.53125 C32.39488503 116.54202827 32.39488503 116.54202827 33.83787537 116.55302429 C40.18600618 116.53126912 46.54790003 116.37409307 51.953125 112.67578125 C54.23788403 109.63180403 54.23788403 109.63180403 55.578125 102.30078125 C66.468125 102.30078125 77.358125 102.30078125 88.578125 102.30078125 C88.578125 114.98595907 88.00082349 125.39172421 79.578125 135.30078125 C70.10624991 144.77265634 56.24683612 145.55048505 43.62295532 145.60432434 C42.10019913 145.60406284 40.57744292 145.60312542 39.0546875 145.6015625 C37.46104828 145.60545936 35.86741009 145.60979603 34.27377319 145.61454773 C30.94712953 145.62197135 27.62059206 145.62174691 24.29394531 145.61645508 C20.06233797 145.61066601 15.83116913 145.62759659 11.59963417 145.65079975 C8.31191531 145.66563797 5.02429962 145.66639518 1.73655319 145.66329002 C0.17787178 145.6637982 -1.3808162 145.66893951 -2.93946457 145.67910194 C-16.55042744 145.75697246 -30.95411973 144.69907954 -41.6796875 135.328125 C-53.10688121 123.3738467 -53.73959158 108.22059632 -53.72265625 92.50390625 C-53.72655453 90.98231899 -53.73089148 89.46073279 -53.73564148 87.93914795 C-53.74306398 84.76213035 -53.7428422 81.58522394 -53.73754883 78.40820312 C-53.73177017 74.3763224 -53.74866559 70.34490347 -53.7718935 66.31309891 C-53.78677006 63.17284573 -53.78748367 60.03270009 -53.78438377 56.89241791 C-53.78489038 55.40795734 -53.79000092 53.92348967 -53.80019569 52.43906403 C-53.87428376 40.1416522 -53.36304143 26.91668285 -46.421875 16.30078125 C-45.87853516 15.41519531 -45.87853516 15.41519531 -45.32421875 14.51171875 C-39.28600222 6.12838449 -28.4773852 2.41424524 -18.68559265 0.713974 C-12.47673326 -0.07207919 -6.24904974 -0.00698649 0 0 Z " fill="#051039" transform="translate(588.421875,311.69921875)"/>
<path d="M0 0 C1.49248394 -0.00202899 2.9849669 -0.00494721 4.47744751 -0.00869751 C7.5853227 -0.01308495 10.69293677 -0.00680883 13.80078125 0.00732422 C17.7394672 0.02438404 21.67753808 0.01457252 25.6162014 -0.00339317 C28.69302813 -0.01435475 31.76971467 -0.01072832 34.84654617 -0.0030098 C36.29667869 -0.00104017 37.7468249 -0.00334989 39.19694138 -0.01044846 C52.93023088 -0.06293794 68.57035381 0.39449314 79.15625 10.25390625 C88.26824488 20.02756051 88.1640625 28.80730903 88.1640625 42.3984375 C77.2740625 42.3984375 66.3840625 42.3984375 55.1640625 42.3984375 C54.1740625 38.4384375 54.1740625 38.4384375 53.1640625 34.3984375 C49.50019174 30.73456674 45.79412217 30.2726108 40.77807617 30.23730469 C39.12572212 30.22289337 39.12572212 30.22289337 37.43998718 30.20819092 C36.24936172 30.20394104 35.05873627 30.19969116 33.83203125 30.1953125 C32.60752762 30.18961243 31.38302399 30.18391235 30.12141418 30.17803955 C27.52813583 30.16858637 24.93484545 30.16205431 22.34155273 30.15820312 C18.3778787 30.14850191 14.41472407 30.11748228 10.45117188 30.0859375 C7.93229475 30.07940701 5.41341391 30.07415672 2.89453125 30.0703125 C1.70997849 30.0579657 0.52542572 30.0456189 -0.69502258 30.03289795 C-8.71835615 29.9865138 -8.71835615 29.9865138 -15.8359375 33.3984375 C-23.85789893 41.81714905 -21.13868543 59.52408363 -21.09667969 70.20727539 C-21.08595138 73.45673231 -21.09662344 76.70563791 -21.109375 79.95507812 C-21.1080534 82.05208453 -21.105491 84.1490906 -21.1015625 86.24609375 C-21.10561096 87.20161636 -21.10965942 88.15713898 -21.11383057 89.14161682 C-21.06135452 96.81146107 -20.96091022 105.67928752 -16.8359375 112.3984375 C-9.66045225 116.90397475 -1.66882562 116.56434819 6.5234375 116.6015625 C7.50846252 116.60726257 8.49348755 116.61296265 9.50836182 116.61883545 C11.58596739 116.62824717 13.66358764 116.63480413 15.74121094 116.63867188 C18.89024401 116.64836419 22.03862009 116.67941915 25.1875 116.7109375 C27.216142 116.71747026 29.24478862 116.72271966 31.2734375 116.7265625 C32.20089783 116.7389093 33.12835815 116.7512561 34.08392334 116.76397705 C40.89393711 116.7412062 46.65215067 115.39753505 53.1640625 113.3984375 C53.8240625 109.7684375 54.4840625 106.1384375 55.1640625 102.3984375 C66.0540625 102.3984375 76.9440625 102.3984375 88.1640625 102.3984375 C88.1640625 125.97085129 88.1640625 125.97085129 79.1640625 136.3984375 C68.96296637 146.12795011 51.24068901 146.00235276 38.0546875 145.89453125 C36.46962416 145.89468687 34.88456046 145.89618622 33.29949951 145.89894104 C30.00857321 145.90031134 26.71809002 145.88799507 23.42724609 145.86499023 C19.24283897 145.83651516 15.05916051 145.8393869 10.87469864 145.85208035 C7.61269063 145.85908366 4.3508466 145.85119715 1.08885956 145.83882332 C-0.45306008 145.83436048 -1.99499763 145.83392587 -3.53691864 145.83788872 C-18.00152753 145.85768701 -31.62516463 144.33851544 -42.6484375 134.0859375 C-51.99900738 124.04433243 -53.2833577 110.60978627 -53.41796875 97.46484375 C-53.4406633 96.15168686 -53.46335785 94.83852997 -53.48674011 93.48558044 C-53.53329621 90.7164241 -53.57003868 87.94736952 -53.59936523 85.17797852 C-53.63688136 81.69170152 -53.69717297 78.20627627 -53.76420593 74.72045803 C-54.66144626 26.69520288 -54.66144626 26.69520288 -43.1484375 12.4609375 C-31.81834109 0.77149102 -15.37277566 -0.07500758 0 0 Z " fill="#051039" transform="translate(59.8359375,311.6015625)"/>
</svg>
