<?xml version="1.0" standalone="no"?>
<!DOCTYPE svg PUBLIC "-//W3C//DTD SVG 20010904//EN"
 "http://www.w3.org/TR/2001/REC-SVG-20010904/DTD/svg10.dtd">
<svg version="1.0" xmlns="http://www.w3.org/2000/svg"
 width="1861.000000pt" height="400.000000pt" viewBox="0 0 1861.000000 400.000000"
 preserveAspectRatio="xMidYMid meet">

<g transform="translate(0.000000,400.000000) scale(0.100000,-0.100000)"
fill="#000000" stroke="none">
<path d="M3120 3989 c-25 -5 -78 -25 -119 -45 -174 -86 -289 -280 -279 -471
l3 -62 -1360 -1677 c-748 -923 -1361 -1684 -1363 -1691 -5 -18 16 -43 36 -43
9 0 291 274 627 609 525 524 623 617 702 669 107 69 209 114 342 149 92 25
113 26 486 33 415 8 487 15 660 65 50 14 135 48 190 74 331 158 530 448 591
863 16 114 16 264 -2 688 -10 237 18 318 180 518 58 73 101 132 94 132 -7 0
-62 -14 -122 -31 l-111 -31 -20 28 c-39 57 -142 149 -196 176 -105 53 -224 69
-339 47z m170 -295 c48 -19 83 -71 83 -123 0 -143 -178 -191 -253 -69 -44 73
-5 173 76 198 42 12 49 12 94 -6z"/>
<path d="M5370 2425 l0 -1515 493 0 c511 0 638 6 820 41 504 94 887 423 1046
897 136 408 111 940 -63 1318 -161 347 -489 605 -902 708 -227 56 -364 66
-931 66 l-463 0 0 -1515z m930 1205 c618 -47 987 -342 1100 -878 28 -129 37
-389 20 -542 -54 -493 -279 -786 -700 -914 -184 -56 -287 -67 -652 -73 l-338
-5 0 1205 0 1206 88 4 c202 7 355 6 482 -3z"/>
<path d="M13910 3725 l0 -215 180 0 180 0 0 215 0 215 -180 0 -180 0 0 -215z"/>
<path d="M14810 2425 l0 -1515 175 0 175 0 2 566 3 566 275 -323 c291 -341
543 -643 624 -746 l49 -63 235 0 235 0 -20 23 c-11 12 -249 285 -528 606
l-507 583 64 67 c103 105 459 481 627 661 85 91 180 191 210 223 l55 57 -215
0 -216 0 -99 -112 c-54 -62 -254 -288 -444 -502 l-345 -389 -3 906 -2 907
-175 0 -175 0 0 -1515z"/>
<path d="M10550 3435 l0 -305 -170 0 -170 0 0 -130 0 -130 170 0 170 0 2 -877
3 -878 27 -51 c15 -29 46 -68 69 -87 71 -62 102 -67 381 -67 l248 0 0 140 0
140 -164 0 c-150 0 -165 2 -190 21 l-26 20 0 820 0 819 210 0 210 0 0 130 0
130 -210 0 -210 0 0 305 0 305 -175 0 -175 0 0 -305z"/>
<path d="M8883 3175 c-337 -61 -593 -274 -658 -547 -8 -35 -15 -87 -15 -115
l0 -53 163 0 163 0 17 76 c43 196 148 309 340 362 98 27 310 23 407 -6 214
-67 310 -219 327 -518 l6 -111 -84 -6 c-120 -10 -483 -63 -627 -93 -556 -114
-799 -306 -819 -649 -10 -180 47 -335 165 -446 146 -138 333 -199 613 -199
208 0 383 42 521 126 68 42 183 145 219 199 13 19 27 35 30 35 3 0 9 -55 13
-122 3 -68 9 -140 12 -160 l7 -38 159 0 c147 0 159 1 154 18 -25 82 -30 195
-36 867 -8 761 -7 757 -56 910 -68 211 -217 366 -421 436 -137 47 -435 64
-600 34z m754 -1302 c-15 -400 -150 -631 -425 -726 -154 -53 -397 -48 -534 12
-179 78 -258 260 -198 454 44 143 190 238 447 292 58 12 606 100 707 114 5 0
7 -62 3 -146z"/>
<path d="M12303 3176 c-340 -65 -583 -266 -653 -542 -11 -43 -20 -99 -20 -126
l0 -48 164 0 164 0 17 75 c22 101 75 203 131 255 98 91 264 137 449 126 168
-10 266 -46 351 -131 89 -89 131 -208 141 -407 l6 -118 -41 0 c-117 0 -627
-82 -822 -132 -401 -102 -620 -284 -661 -548 -50 -327 131 -588 469 -677 120
-31 353 -42 483 -23 213 30 350 99 495 245 l101 102 6 -103 c4 -57 10 -129 13
-159 l7 -55 159 0 158 0 -5 23 c-27 119 -29 181 -30 807 -2 758 -5 808 -71
990 -40 113 -81 178 -158 256 -82 82 -189 141 -321 175 -104 27 -420 36 -532
15z m754 -1313 c-4 -123 -11 -179 -30 -255 -63 -242 -199 -399 -404 -465 -61
-20 -106 -27 -203 -30 -145 -6 -237 10 -335 55 -85 40 -129 83 -167 160 -30
61 -33 74 -33 162 0 88 3 101 33 162 52 106 138 168 310 222 75 23 597 115
826 145 5 1 6 -66 3 -156z"/>
<path d="M13920 2020 l0 -1110 170 0 170 0 0 1110 0 1110 -170 0 -170 0 0
-1110z"/>
<path d="M16800 2374 c0 -635 3 -773 16 -863 50 -343 215 -551 499 -633 113
-32 361 -32 480 0 141 38 239 94 336 191 47 47 93 97 102 111 15 24 16 17 16
-122 l1 -148 175 0 175 0 0 1110 0 1110 -180 0 -179 0 -3 -757 -3 -758 -33
-95 c-43 -123 -108 -221 -189 -282 -217 -163 -558 -133 -713 64 -76 96 -110
183 -135 348 -12 76 -15 233 -15 788 l0 692 -175 0 -175 0 0 -756z"/>
<path d="M2170 1065 l0 -155 830 0 830 0 0 155 0 155 -830 0 -830 0 0 -155z"/>
</g>
</svg>
