<?xml version="1.0" encoding="UTF-8"?>
<svg version="1.1" xmlns="http://www.w3.org/2000/svg" width="1275" height="300">
<path d="M0 0 C13.86 0 27.72 0 42 0 C52.02475248 11.13861386 52.02475248 11.13861386 55.3125 15.25 C58.80432708 19.56450885 62.37576419 23.79709511 66 28 C69.55467214 32.12455611 73.0679263 36.27208312 76.5 40.5 C80.88712902 45.90076172 85.41223412 51.174677 89.94921875 56.44921875 C96.17522367 63.68816124 102.3608624 70.95865909 108.375 78.375 C112.5146667 83.46597251 116.7990816 88.42088437 121.13232422 93.34716797 C125.59854741 98.45122323 129.74785075 103.68481344 134 109 C134.33 73.03 134.66 37.06 135 0 C145.56 0 156.12 0 167 0 C167 55.11 167 110.22 167 167 C140 167 140 167 132.5 160.3125 C130.76660156 158.07836914 130.76660156 158.07836914 129.640625 156.16015625 C127.16663346 152.18069505 124.34726474 148.75415403 121.25 145.25 C117.20412718 140.48731033 113.25103373 135.64984568 109.3046875 130.8046875 C104.93243049 125.48387304 100.45992856 120.24733664 96 115 C90.80780978 108.89111965 85.61876419 102.78489359 80.5625 96.5625 C77.10725849 92.31607618 73.57302166 88.14703706 70 84 C65.67832458 78.98403597 61.44520959 73.90824892 57.26953125 68.76953125 C54.7507115 65.6957908 52.19465399 62.65624416 49.625 59.625 C48.94352905 58.8208667 48.94352905 58.8208667 48.24829102 58.00048828 C45.8003138 55.11489587 43.34682305 52.2340654 40.890625 49.35546875 C40.3857959 48.76233887 39.8809668 48.16920898 39.36083984 47.55810547 C38.38895863 46.41631272 37.41539203 45.27595188 36.43994141 44.13720703 C33.11262 40.22524001 33.11262 40.22524001 32 38 C31.67 80.57 31.34 123.14 31 167 C20.77 167 10.54 167 0 167 C0 111.89 0 56.78 0 0 Z " fill="#002D74" transform="translate(403,56)"/>
<path d="M0 0 C11.34467243 9.18900198 17.46514652 21.23204354 19.5 35.5078125 C22.26273309 63.99849747 11.82953923 92.32141289 -1.75 116.875 C-2.11456299 117.53540283 -2.47912598 118.19580566 -2.85473633 118.8762207 C-4.87442075 122.40778054 -6.96724794 125.28145199 -10 128 C-8.54645468 123.16975709 -6.515648 118.94207593 -4.1875 114.5 C4.21284455 98.05361115 10.85402674 79.06198482 5.8125 60.5 C2.71978032 51.92669336 -2.15979883 44.94361186 -10.42578125 40.77734375 C-30.44876325 32.30023908 -52.75938668 39.46895186 -72 47 C-85.88937376 52.67700594 -98.15519362 59.81488813 -110 69 C-111.01449219 69.78375 -112.02898437 70.5675 -113.07421875 71.375 C-119.01984742 76.12471763 -124.61516605 81.23297896 -130.17578125 86.421875 C-132.13766871 88.21280961 -134.09197246 89.91681456 -136.14453125 91.59375 C-138.47519032 93.55775272 -140.42233682 95.43059297 -142.375 97.75 C-144.17836769 99.87300178 -145.97972993 101.97807955 -147.87109375 104.0234375 C-154.70738374 111.42368702 -160.4194285 119.62914274 -166 128 C-168.57318919 128.28654687 -170.90497099 128.37852887 -173.47900391 128.34057617 C-174.6352401 128.34123329 -174.6352401 128.34123329 -175.81483459 128.34190369 C-178.36899937 128.3398095 -180.92251205 128.31644941 -183.4765625 128.29296875 C-185.24489992 128.28737502 -187.01324197 128.28310387 -188.78158569 128.28010559 C-193.44076322 128.26863921 -198.09966114 128.23915675 -202.75872803 128.20599365 C-207.51098854 128.1753313 -212.26329413 128.16160847 -217.015625 128.14648438 C-226.34387299 128.11428866 -235.67191327 128.06307078 -245 128 C-243.78894506 124.90142107 -242.59614868 122.14616838 -240.71484375 119.3984375 C-240.27148682 118.7492334 -239.82812988 118.1000293 -239.37133789 117.43115234 C-238.89817139 116.75262207 -238.42500488 116.0740918 -237.9375 115.375 C-237.44435303 114.66424316 -236.95120605 113.95348633 -236.44311523 113.22119141 C-232.2429337 107.23022429 -227.74576197 101.56868029 -223 96 C-222.21367187 95.02933594 -221.42734375 94.05867188 -220.6171875 93.05859375 C-213.86488049 84.81296367 -206.44945108 77.23436154 -198.9375 69.6875 C-198.43088837 69.17571198 -197.92427673 68.66392395 -197.40231323 68.1366272 C-190.60898578 61.28865546 -183.60060891 54.96184846 -176 49 C-175.26966553 48.42096924 -174.53933105 47.84193848 -173.78686523 47.24536133 C-164.17184194 39.67297293 -154.32571997 32.56832675 -144 26 C-142.99428955 25.35514648 -142.99428955 25.35514648 -141.96826172 24.69726562 C-104.95674645 1.08572853 -42.05568914 -29.88695238 0 0 Z " fill="#002D74" transform="translate(245,10)"/>
<path d="M0 0 C0.33 0.66 0.66 1.32 1 2 C-0.103909 4.20475158 -1.26469872 6.30771756 -2.5 8.4375 C-12.10886491 25.7117443 -19.56801559 46.27492693 -15.3125 66.22265625 C-12.48113808 74.61056593 -8.21859955 82.64841632 -0.24609375 87.00390625 C18.56967974 95.34829275 39.91626104 90.1065999 58.37304688 83.06054688 C73.82725891 76.82141146 88.08631373 69.55979915 101 59 C101.91523438 58.29101562 102.83046875 57.58203125 103.7734375 56.8515625 C108.88248919 52.87436226 113.7262751 48.6411315 118.50390625 44.2734375 C120.14162692 42.78180459 121.79495423 41.30709219 123.46484375 39.8515625 C134.7868961 29.9425309 149.05350677 16.55204345 155.10469055 2.42010498 C157 0 157 0 160.35990906 -0.60127258 C161.77075255 -0.61577104 163.18204135 -0.6024596 164.5925293 -0.56762695 C165.74898453 -0.56872215 165.74898453 -0.56872215 166.92880249 -0.56983948 C169.47798955 -0.56635501 172.02535085 -0.52745633 174.57421875 -0.48828125 C176.34112042 -0.47895611 178.10803501 -0.47183858 179.87495422 -0.46684265 C184.52612993 -0.44774918 189.17652527 -0.39862853 193.82739258 -0.34332275 C198.57297203 -0.29218068 203.31867755 -0.26933942 208.06445312 -0.24414062 C217.37664501 -0.19051175 226.68825762 -0.10517081 236 0 C235.3096401 2.98603078 234.5042881 5.03159057 232.734375 7.546875 C232.26314209 8.21887939 231.79190918 8.89088379 231.30639648 9.58325195 C230.79278564 10.29827881 230.2791748 11.01330566 229.75 11.75 C229.21640869 12.49789795 228.68281738 13.2457959 228.13305664 14.01635742 C216.25604331 30.48154837 202.77125429 45.28220215 188.5 59.6875 C187.63375 60.56688232 186.7675 61.44626465 185.875 62.35229492 C179.89907467 68.33553266 173.63592644 73.76239093 167 79 C166.39687988 79.48267334 165.79375977 79.96534668 165.17236328 80.46264648 C156.42888772 87.42752754 147.30585053 93.81440855 138 100 C137.28634277 100.47695313 136.57268555 100.95390625 135.83740234 101.4453125 C99.35976077 125.66122188 57.58114424 144.47367158 12.84375 137.3046875 C-0.87979639 134.5012545 -11.9588156 127.6033988 -20.0078125 116.140625 C-31.91748825 96.9057512 -29.89416093 75.51909112 -24.96875 54.3671875 C-20.26182582 35.66864418 -12.20553998 15.12854956 0 0 Z " fill="#002D74" transform="translate(64,162)"/>
<path d="M0 0 C44.88 0 89.76 0 136 0 C136 9.57 136 19.14 136 29 C79.57 29.495 79.57 29.495 22 30 C24.64 32.97 27.28 35.94 30 39 C30 48.24 30 57.48 30 67 C60.36 67 90.72 67 122 67 C122 76.57 122 86.14 122 96 C91.64 96 61.28 96 30 96 C30 109.53 30 123.06 30 137 C66.63 137 103.26 137 141 137 C141 146.9 141 156.8 141 167 C94.47 167 47.94 167 0 167 C0 111.89 0 56.78 0 0 Z " fill="#002D74" transform="translate(771,56)"/>
<path d="M0 0 C44.88 0 89.76 0 136 0 C136 9.57 136 19.14 136 29 C79.57 29.495 79.57 29.495 22 30 C24.64 32.97 27.28 35.94 30 39 C30 48.24 30 57.48 30 67 C60.03 67 90.06 67 121 67 C121 76.57 121 86.14 121 96 C90.97 96 60.94 96 30 96 C30 109.53 30 123.06 30 137 C66.63 137 103.26 137 141 137 C141 146.9 141 156.8 141 167 C94.47 167 47.94 167 0 167 C0 111.89 0 56.78 0 0 Z " fill="#002D74" transform="translate(941,56)"/>
<path d="M0 0 C0.42667969 0.4125 0.85335937 0.825 1.29296875 1.25 C-2.63238549 5.3263294 -6.80695962 8.94509064 -11.20703125 12.5 C-12.18349609 13.31210938 -12.18349609 13.31210938 -13.1796875 14.140625 C-19.62169471 19.34628739 -19.62169471 19.34628739 -23.70703125 19.25 C-25.99609375 17.9921875 -25.99609375 17.9921875 -28.33203125 16.125 C-44.75652023 3.91004671 -65.82395224 1.04444796 -85.77734375 3.7109375 C-93.51459389 5.15635786 -101.98707749 7.43398843 -107.01953125 13.94921875 C-109.14576661 18.17321311 -108.86259167 21.79283836 -107.70703125 26.25 C-106.26746236 30.11884139 -104.51133647 31.56244743 -100.8828125 33.2421875 C-95.0638145 35.72734833 -89.11194411 36.68463531 -82.89453125 37.6875 C-81.68055664 37.89503906 -80.46658203 38.10257813 -79.21582031 38.31640625 C-75.38129889 38.97177877 -71.54455079 39.61243665 -67.70703125 40.25 C-26.52970895 47.1119998 -26.52970895 47.1119998 -13.70703125 56.25 C-12.63453125 56.9925 -11.56203125 57.735 -10.45703125 58.5 C-2.22607909 66.73095216 1.60515315 77.41549732 1.76147461 88.9362793 C1.75124268 89.80293213 1.74101074 90.66958496 1.73046875 91.5625 C1.72217041 92.47749268 1.71387207 93.39248535 1.70532227 94.33520508 C1.34116025 109.01961731 -3.79799376 119.68407935 -14.20703125 129.9375 C-32.03707522 145.22426001 -57.02860569 146.59171083 -79.43554688 145.06396484 C-105.07324317 142.80803135 -129.50473481 134.64959982 -146.83203125 114.8125 C-148.70703125 112.25 -148.70703125 112.25 -148.70703125 110.25 C-145.1430568 107.29871643 -141.26095765 104.75638994 -137.45703125 102.125 C-135.86181641 100.99384766 -135.86181641 100.99384766 -134.234375 99.83984375 C-133.20957031 99.12699219 -132.18476562 98.41414063 -131.12890625 97.6796875 C-130.1862793 97.02210449 -129.24365234 96.36452148 -128.27246094 95.68701172 C-125.70703125 94.25 -125.70703125 94.25 -121.70703125 94.25 C-120.33583696 95.88565943 -119.00849748 97.55833183 -117.70703125 99.25 C-100.44231556 112.83031672 -79.35783721 117.76540638 -57.70703125 116.25 C-48.94492533 115.07711968 -39.54770527 112.26975227 -33.9765625 104.98828125 C-30.76989585 99.26658193 -29.52485477 93.74634123 -30.70703125 87.25 C-33.24938714 81.63563074 -37.22752756 78.72777425 -42.70703125 76.25 C-52.58371168 73.48945811 -62.76718207 72.3823869 -72.92050171 71.17337036 C-119.78732936 65.52118551 -119.78732936 65.52118551 -133.70703125 49.25 C-140.88317345 37.49623445 -142.28589981 25.71334925 -140.24609375 12.1953125 C-137.02123415 0.32024126 -129.58043526 -8.86474335 -119.33203125 -15.375 C-83.5446786 -35.15807072 -29.70023924 -27.43444779 0 0 Z " fill="#002D74" transform="translate(742.70703125,80.75)"/>
<path d="M0 0 C10.03784638 8.02752324 19.76006488 17.17406789 25.6875 28.75 C25.6875 30.07 25.6875 31.39 25.6875 32.75 C21.61557387 34.6505292 17.52847554 36.5158739 13.4375 38.375 C12.27863281 38.91640625 11.11976563 39.4578125 9.92578125 40.015625 C8.81074219 40.51835938 7.69570312 41.02109375 6.546875 41.5390625 C5.52045898 42.01037598 4.49404297 42.48168945 3.43652344 42.96728516 C0.6875 43.75 0.6875 43.75 -1.58056641 43.00366211 C-3.70040545 41.46921419 -4.93419945 39.82913672 -6.4375 37.6875 C-15.71200995 25.43963336 -28.06800084 17.36114847 -43.3125 14.75 C-63.40083747 12.16325445 -82.80110659 15.36645495 -99.3125 27.75 C-107.87602053 34.37816489 -114.53036421 46.00098829 -116.91015625 56.515625 C-119.07866864 73.94793822 -117.28511056 89.46818944 -106.3125 103.75 C-96.53754296 115.47994845 -83.24145915 122.11039091 -68.3125 124.75 C-47.9922619 126.17905933 -27.68849761 124.53858452 -11.4375 110.9375 C-7.28647036 107.02842473 -4.20190853 102.64499798 -1.3125 97.75 C4.43676538 99.43759531 9.65265952 102.03107924 15 104.6875 C15.91845703 105.13029297 16.83691406 105.57308594 17.78320312 106.02929688 C18.65525391 106.46177734 19.52730469 106.89425781 20.42578125 107.33984375 C21.61747925 107.92560181 21.61747925 107.92560181 22.83325195 108.52319336 C24.6875 109.75 24.6875 109.75 25.6875 112.75 C19.13007461 128.28824711 3.7001566 141.16613104 -11.54296875 147.57421875 C-39.18560365 158.6457226 -70.91476797 159.73980668 -98.65625 148.34765625 C-119.7116748 139.14715546 -135.70159102 123.8241992 -144.625 102.5 C-152.81363246 81.59216145 -152.99204212 56.47726477 -144.3125 35.75 C-133.81757999 12.72568377 -116.92068199 -2.24330431 -93.3125 -11.25 C-63.13484392 -22.20809283 -26.25682057 -18.81340459 0 0 Z " fill="#002D74" transform="translate(1249.3125,70.25)"/>
<path d="M0 0 C11.22 0 22.44 0 34 0 C34 55.11 34 110.22 34 167 C22.78 167 11.56 167 0 167 C0 111.89 0 56.78 0 0 Z " fill="#002D74" transform="translate(340,56)"/>
</svg>
