<?xml version="1.0" encoding="UTF-8"?>
<svg version="1.1" xmlns="http://www.w3.org/2000/svg" width="668" height="178">
<path d="M0 0 C3.58058951 1.43421403 6.81358887 3.22718264 10.078125 5.2578125 C11.59153195 6.17339076 13.10592074 7.08734734 14.62109375 8 C15.86318604 8.75168457 15.86318604 8.75168457 17.13037109 9.51855469 C22.17871863 12.53933966 27.28916774 15.45295215 32.390625 18.3828125 C41.29574842 23.51268187 50.19453841 28.65322369 59.078125 33.8203125 C60.07142822 34.39620117 61.06473145 34.97208984 62.08813477 35.56542969 C63.01811279 36.1071582 63.94809082 36.64888672 64.90625 37.20703125 C65.71481445 37.67713623 66.52337891 38.14724121 67.35644531 38.6315918 C68.17209961 39.12699463 68.98775391 39.62239746 69.828125 40.1328125 C70.85505463 40.64211807 71.88198425 41.15142365 72.94003296 41.67616272 C76.2495802 44.49130794 76.2495802 44.49130794 76.5496521 48.06854248 C76.56702028 49.69246777 76.55114179 51.31695121 76.50927734 52.94042969 C76.51059158 54.27266823 76.51059158 54.27266823 76.51193237 55.63182068 C76.50775458 58.56534002 76.46109418 61.49656809 76.4140625 64.4296875 C76.40287103 66.46420035 76.39433061 68.49872937 76.38833618 70.53326416 C76.36543414 75.88650202 76.30649839 81.23876208 76.2401123 86.59161377 C76.17871982 92.05443087 76.15132761 97.51740607 76.12109375 102.98046875 C76.05675703 113.69834613 75.95436035 124.41549799 75.828125 135.1328125 C75.07403854 135.55022202 74.31995209 135.96763153 73.54301453 136.39768982 C70.68213485 137.98202662 67.82186096 139.56744714 64.96195984 141.15354919 C63.73593479 141.8332286 62.50968582 142.51250429 61.28318787 143.19132996 C53.01465673 147.76814767 44.79953781 152.4247183 36.640625 157.1953125 C35.62271881 157.79007889 34.60481262 158.38484528 33.55606079 158.99763489 C28.39538365 162.01644667 23.25896924 165.07269514 18.13671875 168.15625 C17.03932373 168.81101318 15.94192871 169.46577637 14.8112793 170.14038086 C12.69840801 171.40159414 10.59148783 172.67284557 8.49145508 173.95532227 C7.5455249 174.51791748 6.59959473 175.0805127 5.625 175.66015625 C4.79323242 176.16281006 3.96146484 176.66546387 3.10449219 177.18334961 C0.3818702 178.31894344 -0.47370303 178.23327934 -3.171875 177.1328125 C-4.86780514 176.29026741 -6.53760796 175.39431539 -8.1875 174.46484375 C-9.1787085 173.90869385 -10.16991699 173.35254395 -11.19116211 172.77954102 C-12.25729736 172.17424561 -13.32343262 171.5689502 -14.421875 170.9453125 C-15.53506104 170.3174585 -16.64824707 169.68960449 -17.79516602 169.04272461 C-27.12883735 163.76218704 -36.39814174 158.37323904 -45.64746094 152.9465332 C-52.38975867 148.99833063 -59.1558523 145.09198671 -65.92578125 141.19140625 C-67.12343444 140.50097291 -68.32106637 139.81050269 -69.51867676 139.11999512 C-72.40286876 137.45724062 -75.28727084 135.79485184 -78.171875 134.1328125 C-78.47350955 122.53716585 -78.70427651 110.94245642 -78.84543324 99.34368134 C-78.91319626 93.95720068 -79.00503448 88.57340916 -79.15258789 83.18847656 C-79.29418656 77.98812125 -79.37163356 72.79034562 -79.40527916 67.58821106 C-79.42924239 65.60715605 -79.47604585 63.6262376 -79.54636574 61.64628601 C-80.06102818 46.55037268 -80.06102818 46.55037268 -76.93123055 42.54515266 C-73.43592818 39.50004781 -69.44876571 37.86871201 -65.171875 36.1328125 C-63.14067508 34.98376251 -61.12332974 33.80941693 -59.12890625 32.59765625 C-57.08181563 31.41998444 -55.03360532 30.24425714 -52.984375 29.0703125 C-50.72003848 27.76825283 -48.45571599 26.46616875 -46.19140625 25.1640625 C-45.02820117 24.4960178 -43.86495223 23.82804946 -42.70166016 23.16015625 C-37.98578302 20.45219393 -33.27284816 17.73913208 -28.5612793 15.02368164 C-26.36667708 13.75889649 -24.17156032 12.49500357 -21.97583008 11.23217773 C-20.46412231 10.3612146 -20.46412231 10.3612146 -18.921875 9.47265625 C-17.95507812 8.9194873 -16.98828125 8.36631836 -15.9921875 7.79638672 C-14.10700345 6.68440229 -12.24682168 5.52894005 -10.4140625 4.33251953 C-3.9850606 0.16686214 -3.9850606 0.16686214 0 0 Z " fill="#3DDC98" transform="translate(78.171875,-0.1328125)"/>
<path d="M0 0 C2.51031769 1.30143198 4.85695656 2.63646218 7.25 4.125 C8.76340695 5.04057826 10.27779574 5.95453484 11.79296875 6.8671875 C13.03506104 7.61887207 13.03506104 7.61887207 14.30224609 8.38574219 C19.35059726 11.40652933 24.46113369 14.31997478 29.5625 17.25 C31.78670706 18.53212068 34.01066307 19.81467699 36.234375 21.09765625 C39.63288137 23.05814378 43.03162247 25.01820947 46.43164062 26.97607422 C49.7276921 28.87571056 53.02045637 30.78092858 56.3125 32.6875 C57.31418213 33.26338867 58.31586426 33.83927734 59.34790039 34.43261719 C60.28110107 34.9743457 61.21430176 35.51607422 62.17578125 36.07421875 C62.98958252 36.54432373 63.80338379 37.01442871 64.6418457 37.4987793 C67.25420704 39.16183032 69.61453955 41.02831958 72 43 C62.67318558 42.44731297 53.49013007 41.49905009 44.25 40.125 C42.42529175 39.85937256 42.42529175 39.85937256 40.5637207 39.58837891 C33.05068685 38.48429694 25.55539632 37.29855567 18.07177734 36.01098633 C11.07226459 34.81442437 4.0454785 33.8832827 -3 33 C3.85022891 45.33481733 10.73926052 57.64007057 17.875 69.8125 C22.83190295 78.26851839 27.74863575 86.74599663 32.61651611 95.25350952 C33.32273973 96.48759977 34.02955427 97.72135207 34.73699951 98.95474243 C35.72614596 100.6797692 36.71272722 102.40626609 37.69921875 104.1328125 C38.26471436 105.12168457 38.83020996 106.11055664 39.4128418 107.12939453 C41.02354738 110.04258884 42.51130436 113.02260872 44 116 C12.65 116 -18.7 116 -51 116 C-49.54647577 111.63942731 -48.29243282 108.43802525 -46.09375 104.54296875 C-45.52019775 103.52211182 -44.94664551 102.50125488 -44.35571289 101.44946289 C-43.74332764 100.37301514 -43.13094238 99.29656738 -42.5 98.1875 C-41.86634521 97.06529053 -41.23269043 95.94308105 -40.57983398 94.78686523 C-36.75273159 88.02799396 -32.87385013 81.30214416 -28.91137695 74.62182617 C-24.95143418 67.94460724 -21.06712369 61.2240755 -17.1875 54.5 C-16.23532593 52.85173218 -16.23532593 52.85173218 -15.26391602 51.17016602 C-14.65475342 50.11369873 -14.04559082 49.05723145 -13.41796875 47.96875 C-12.61008911 46.56786133 -12.61008911 46.56786133 -11.78588867 45.13867188 C-9.49323335 41.10936541 -7.2450509 37.05597536 -5 33 C-13.29322004 34.15284419 -21.58600625 35.30874202 -29.87825489 36.46855068 C-33.72860587 37.00698813 -37.57909819 37.54436887 -41.42993164 38.0793457 C-45.14554417 38.59557643 -48.86076141 39.11456844 -52.57571983 39.6354847 C-53.99376357 39.83382815 -55.41194737 40.03117291 -56.83027077 40.22750664 C-58.8153555 40.50246837 -60.79990342 40.78129719 -62.78442383 41.06030273 C-64.47986076 41.29679787 -64.47986076 41.29679787 -66.20954895 41.53807068 C-69.07275651 41.93700431 -69.07275651 41.93700431 -72 43 C-73.39439664 43.06665376 -74.79169875 43.08538199 -76.1875 43.0625 C-77.445625 43.041875 -78.70375 43.02125 -80 43 C-76.57142523 40.13522487 -73.12061062 37.79396436 -69.23046875 35.6015625 C-68.10616455 34.96428223 -66.98186035 34.32700195 -65.82348633 33.67041016 C-65.23097076 33.33712708 -64.6384552 33.00384399 -64.02798462 32.66046143 C-60.87550235 30.88686671 -57.73138171 29.09853665 -54.5859375 27.3125 C-53.94745377 26.95048492 -53.30897003 26.58846985 -52.65113831 26.21548462 C-46.51135775 22.73131748 -40.4077446 19.18646128 -34.3125 15.625 C-32.84550659 14.77240601 -32.84550659 14.77240601 -31.34887695 13.90258789 C-26.8445876 11.27886699 -22.36764628 8.62471316 -17.94140625 5.87109375 C-17.16434326 5.39397949 -16.38728027 4.91686523 -15.58666992 4.42529297 C-14.16512008 3.54935841 -12.75166916 2.66006517 -11.34887695 1.75439453 C-7.12753508 -0.83201666 -4.72590863 -1.59792472 0 0 Z " fill="#3CAFD0" transform="translate(81,1)"/>
<path d="M0 0 C19 0 19 0 24.375 5.3125 C25.66552734 7.15698242 25.66552734 7.15698242 26.5859375 8.85546875 C28.90857975 12.92259769 31.53172143 16.72558773 34.21337891 20.56323242 C37.53929945 25.33214254 40.77497502 30.16246253 44 35 C44.33 23.45 44.66 11.9 45 0 C52.92 0 60.84 0 69 0 C69 26.4 69 52.8 69 80 C49 80 49 80 44.58984375 76.40625 C43.17651367 74.05395508 43.17651367 74.05395508 41.9375 71.5 C40.93372772 69.76349203 39.92849096 68.02782985 38.921875 66.29296875 C38.44427734 65.4117334 37.96667969 64.53049805 37.47460938 63.62255859 C35.15269392 59.49308577 32.41911968 55.67711173 29.6875 51.8125 C27.3671875 48.4403125 27.3671875 48.4403125 25 45 C24.67 56.55 24.34 68.1 24 80 C16.08 80 8.16 80 0 80 C0 53.6 0 27.2 0 0 Z " fill="#2E4787" transform="translate(597,9)"/>
<path d="M0 0 C8.00912013 6.80226641 12.51527012 14.53877817 14.99609375 24.6953125 C16.11749075 38.9822015 14.03947524 50.2684041 4.99609375 61.6953125 C-4.00528602 70.56528527 -15.32836837 74.54304734 -27.81640625 75.0078125 C-39.30354384 74.7017289 -50.6174673 71.39398111 -59.2890625 63.65625 C-69.35696222 53.00497665 -71.49834307 42.57532353 -71.28125 28.484375 C-70.83106368 17.00350404 -65.37313012 8.57526086 -57.12890625 0.9453125 C-41.3693165 -12.1826949 -16.41549672 -11.98783063 0 0 Z M-42.37890625 18.9453125 C-46.50603439 24.28366303 -47.68129722 30.03430131 -47.00390625 36.6953125 C-45.13959896 43.44283377 -42.88412206 47.81687229 -37.00390625 51.6953125 C-31.01429823 53.69184851 -24.2824357 53.77243551 -18.56640625 51.0703125 C-14.05661431 46.89050534 -10.30180239 43.26518264 -9.765625 36.83984375 C-9.6110446 29.89999722 -9.70470701 24.36689455 -14.00390625 18.6953125 C-18.0637283 14.63549045 -22.20598917 12.99943392 -27.87890625 12.3828125 C-33.7848004 12.97340192 -38.29074782 14.50816493 -42.37890625 18.9453125 Z " fill="#2E4786" transform="translate(353.00390625,16.3046875)"/>
<path d="M0 0 C12.82270924 0.50769218 25.33927266 2.43281703 38 4.4375 C41.0257739 4.91124946 44.05183226 5.38310737 47.078125 5.85353088 C48.94306838 6.14398358 50.80768849 6.43652481 52.671875 6.73179626 C60.43728664 7.95057138 68.20056045 8.96007473 76 10 C76 39.37 76 68.74 76 99 C70.42931995 96.77172798 65.27982051 94.08341153 60 91.25 C59.01515625 90.73695312 58.0303125 90.22390625 57.015625 89.6953125 C46.51332853 84.04678007 42.73702935 77.09265581 37.1875 66.8125 C35.85594257 64.37316227 34.5172913 61.93778308 33.17578125 59.50390625 C32.83305176 58.88184296 32.49032227 58.25977966 32.13720703 57.61886597 C28.51877749 51.08128107 24.70973316 44.66306035 20.875 38.25 C15.66720277 29.52514132 10.51955815 20.7722569 5.5 11.9375 C4.9416748 10.96135742 4.38334961 9.98521484 3.80810547 8.97949219 C3.30424316 8.0877832 2.80038086 7.19607422 2.28125 6.27734375 C1.83845703 5.49609131 1.39566406 4.71483887 0.93945312 3.90991211 C0 2 0 2 0 0 Z " fill="#FD6170" transform="translate(78,34)"/>
<path d="M0 0 C19.47 0 38.94 0 59 0 C59 6.93 59 13.86 59 21 C47.78 21 36.56 21 25 21 C25 24.3 25 27.6 25 31 C34.57 31 44.14 31 54 31 C54 37.27 54 43.54 54 50 C44.43 50 34.86 50 25 50 C25 52.97 25 55.94 25 59 C36.22 59 47.44 59 59 59 C59 65.93 59 72.86 59 80 C39.53 80 20.06 80 0 80 C0 53.6 0 27.2 0 0 Z " fill="#2E4786" transform="translate(524,9)"/>
<path d="M0 0 C7.05375 -0.061875 14.1075 -0.12375 21.375 -0.1875 C23.58106934 -0.21481201 25.78713867 -0.24212402 28.06005859 -0.27026367 C29.83951269 -0.27903841 31.61897288 -0.28668 33.3984375 -0.29296875 C34.29731689 -0.30831665 35.19619629 -0.32366455 36.12231445 -0.33947754 C45.17529491 -0.34315662 54.34773052 1.43258089 61 8 C67.39647501 16.08065327 69.0450291 24.8593473 68 35 C65.63956247 44.21208593 60.86268571 49.04235904 52.96484375 53.984375 C49.27605235 55.89110614 45.91128725 56.12157725 41.796875 56.09765625 C40.91354492 56.09515869 40.03021484 56.09266113 39.12011719 56.09008789 C38.00797852 56.08098389 36.89583984 56.07187988 35.75 56.0625 C32.2025 56.041875 28.655 56.02125 25 56 C25 63.92 25 71.84 25 80 C16.75 80 8.5 80 0 80 C0 53.6 0 27.2 0 0 Z M25 21 C25 25.95 25 30.9 25 36 C28.6196875 36.12375 28.6196875 36.12375 32.3125 36.25 C33.06829346 36.28641602 33.82408691 36.32283203 34.6027832 36.36035156 C37.84304552 36.41416066 39.54296462 36.42693125 41.95703125 34.171875 C43.37028755 31.22891432 43.40353984 29.22831873 43 26 C41.22015595 22.8640843 40.47691793 22.15897264 37 21 C32.99616868 20.86600297 29.0072645 20.95691113 25 21 Z " fill="#2E4786" transform="translate(206,9)"/>
<path d="M0 0 C-1.29200417 3.37025107 -2.74338343 6.53389903 -4.46875 9.703125 C-4.95214844 10.59201416 -5.43554688 11.48090332 -5.93359375 12.39672852 C-6.45050781 13.33830811 -6.96742187 14.2798877 -7.5 15.25 C-8.30630859 16.72327759 -8.30630859 16.72327759 -9.12890625 18.22631836 C-12.71588728 24.74786114 -16.40381885 31.19848306 -20.20898438 37.59472656 C-23.53875253 43.19286618 -26.77920955 48.83853427 -30 54.5 C-35.24759091 63.7180083 -40.59388583 72.87419223 -46 82 C-48.66412792 79.66439613 -49.8088544 77.50378742 -51.08129883 74.21582031 C-51.46212112 73.24340393 -51.84294342 72.27098755 -52.23530579 71.269104 C-52.63847519 70.21608093 -53.04164459 69.16305786 -53.45703125 68.078125 C-53.88247726 66.98594666 -54.30792328 65.89376831 -54.7462616 64.76849365 C-56.10912785 61.2651698 -57.46105377 57.75774307 -58.8125 54.25 C-60.1526439 50.79397923 -61.49498767 47.3388181 -62.83737183 43.88366699 C-63.70362404 41.6516716 -64.5681677 39.41901229 -65.43093872 37.18566895 C-67.24835019 32.48408227 -69.07287232 27.78754861 -70.97412109 23.11914062 C-71.26010666 22.41658142 -71.54609222 21.71402222 -71.84074402 20.99017334 C-72.57054038 19.20844335 -73.30773155 17.42974693 -74.0456543 15.65136719 C-75 13 -75 13 -75 10 C-37.89951254 4.23446177 -37.89951254 4.23446177 -20.0625 1.625 C-18.94713867 1.45774414 -17.83177734 1.29048828 -16.68261719 1.11816406 C-11.05428955 0.30613417 -5.68655869 -0.1779188 0 0 Z " fill="#FCC161" transform="translate(76,34)"/>
<path d="M0 0 C8.25 0 16.5 0 25 0 C25 19.47 25 38.94 25 59 C36.88 59 48.76 59 61 59 C61 65.93 61 72.86 61 80 C40.87 80 20.74 80 0 80 C0 53.6 0 27.2 0 0 Z " fill="#2E4786" transform="translate(452,9)"/>
<path d="M0 0 C7.92 0 15.84 0 24 0 C24 19.47 24 38.94 24 59 C35.88 59 47.76 59 60 59 C60 65.93 60 72.86 60 80 C40.2 80 20.4 80 0 80 C0 53.6 0 27.2 0 0 Z " fill="#2E4787" transform="translate(381,9)"/>
<path d="M0 0 C1.60133025 2.40199537 2.59603 4.2574578 3.62890625 6.89111328 C3.9371785 7.67192261 4.24545074 8.45273193 4.56306458 9.25720215 C4.89287827 10.10302856 5.22269196 10.94885498 5.5625 11.8203125 C5.91015915 12.70368286 6.2578183 13.58705322 6.61601257 14.49719238 C7.36076666 16.39054688 8.1039765 18.2845094 8.84579468 20.17901611 C10.0021911 23.13059254 11.16397906 26.07999167 12.32739258 29.02880859 C15.37971822 36.76874167 18.42958976 44.50947994 21.4303894 52.26956177 C22.10843179 54.02069521 22.7914141 55.76991347 23.47460938 57.51904297 C24.25183991 59.50936641 25.02084357 61.50293395 25.77929688 63.50048828 C29.08499955 71.92694067 33.79543166 78.83509454 39.6875 85.6875 C43.36304948 90.0145636 46.94043533 94.40234331 50.4375 98.875 C51.12114624 99.74898437 51.12114624 99.74898437 51.81860352 100.640625 C53.21349026 102.42623701 54.60674472 104.21311487 56 106 C62.57238576 114.41383594 69.19761384 122.76995254 76 131 C75.67 131.66 75.34 132.32 75 133 C58.54561608 123.86194036 42.24391175 114.51068408 26 105 C17.42 100.05 8.84 95.1 0 90 C0 60.3 0 30.6 0 0 Z " fill="#FC6170" transform="translate(0,44)"/>
<path d="M0 0 C3.49472611 1.39789045 6.44993488 2.71716195 9.67578125 4.546875 C10.57353271 5.05468506 11.47128418 5.56249512 12.39624023 6.08569336 C13.83978882 6.90952515 13.83978882 6.90952515 15.3125 7.75 C16.32578369 8.32564697 17.33906738 8.90129395 18.38305664 9.49438477 C27.58427442 14.73492132 36.73596227 20.05934682 45.87109375 25.4140625 C50.18818527 27.9444571 54.51483051 30.45758148 58.84765625 32.9609375 C59.96084229 33.60554932 61.07402832 34.25016113 62.22094727 34.91430664 C64.37475021 36.16111015 66.53014067 37.4051761 68.68725586 38.64624023 C69.64639893 39.20255127 70.60554199 39.7588623 71.59375 40.33203125 C72.44646484 40.82421143 73.29917969 41.3163916 74.17773438 41.82348633 C74.77908203 42.21173584 75.38042969 42.59998535 76 43 C76 43.33 76 43.66 76 44 C66.67317614 43.44731241 57.49014838 42.49895635 48.25 41.125 C47.03280273 40.94791504 45.81560547 40.77083008 44.56152344 40.58837891 C36.52576123 39.40802655 28.51207821 38.13290094 20.515625 36.7109375 C13.70157141 35.63813668 6.84472013 34.85559002 0 34 C0 22.78 0 11.56 0 0 Z " fill="#2F4786" transform="translate(77,0)"/>
<path d="M0 0 C0.33 11.55 0.66 23.1 1 35 C-2.3 35 -5.6 35 -9 35 C-11.08148979 35.18685071 -13.15985371 35.41990771 -15.22827148 35.71850586 C-16.33899521 35.87544418 -17.44971893 36.03238251 -18.59410095 36.19407654 C-19.75800858 36.36592972 -20.9219162 36.5377829 -22.12109375 36.71484375 C-23.95366478 36.97763878 -23.95366478 36.97763878 -25.82325745 37.2457428 C-28.3877761 37.61487177 -30.95181367 37.98735723 -33.51538086 38.36303711 C-37.44866684 38.93913558 -41.38328847 39.50459634 -45.31835938 40.06835938 C-47.81519323 40.42907151 -50.31194124 40.79037854 -52.80859375 41.15234375 C-53.98667099 41.3221727 -55.16474823 41.49200165 -56.37852478 41.66697693 C-58.01151268 41.90711266 -58.01151268 41.90711266 -59.67749023 42.15209961 C-60.63550034 42.29199814 -61.59351044 42.43189667 -62.58055115 42.57603455 C-65.13075878 42.96151027 -65.13075878 42.96151027 -68 44 C-69.39439664 44.06665376 -70.79169875 44.08538199 -72.1875 44.0625 C-73.445625 44.041875 -74.70375 44.02125 -76 44 C-72.57142523 41.13522487 -69.12061062 38.79396436 -65.23046875 36.6015625 C-64.10616455 35.96428223 -62.98186035 35.32700195 -61.82348633 34.67041016 C-61.23097076 34.33712708 -60.6384552 34.00384399 -60.02798462 33.66046143 C-56.87550235 31.88686671 -53.73138171 30.09853665 -50.5859375 28.3125 C-49.94745377 27.95048492 -49.30897003 27.58846985 -48.65113831 27.21548462 C-42.51137235 23.73132576 -36.40701574 20.18768855 -30.3125 16.625 C-29.33740479 16.05587891 -28.36230957 15.48675781 -27.35766602 14.90039062 C-22.82821115 12.25305205 -18.30733465 9.59240096 -13.80078125 6.90625 C-13.00567139 6.43364746 -12.21056152 5.96104492 -11.39135742 5.47412109 C-9.924306 4.60081224 -8.4594672 3.72377116 -6.99731445 2.84228516 C-2.22205759 0 -2.22205759 0 0 0 Z " fill="#3EDD98" transform="translate(77,0)"/>
<path d="M0 0 C9.77756491 5.14896975 19.43823916 10.4603666 29 16 C29 16.66 29 17.32 29 18 C27.96166016 18.57161865 27.96166016 18.57161865 26.90234375 19.15478516 C14.47069679 26.00734154 2.06525169 32.89328226 -10.1875 40.0625 C-11.14873779 40.62412842 -12.10997559 41.18575684 -13.1003418 41.7644043 C-18.32495614 44.82464153 -23.53138602 47.9134912 -28.7265625 51.0234375 C-29.82846924 51.67820068 -30.93037598 52.33296387 -32.06567383 53.00756836 C-34.19047153 54.27056 -36.31033473 55.54189962 -38.42456055 56.82250977 C-39.37371338 57.38510498 -40.32286621 57.9477002 -41.30078125 58.52734375 C-42.55628784 59.28132446 -42.55628784 59.28132446 -43.8371582 60.05053711 C-46 61 -46 61 -49 60 C-48.26910156 59.45988281 -47.53820312 58.91976562 -46.78515625 58.36328125 C-43.82988824 55.85565552 -41.74785212 53.29533406 -39.4375 50.1875 C-38.56129274 49.02238566 -37.68362726 47.85836687 -36.8046875 46.6953125 C-36.34803711 46.08977539 -35.89138672 45.48423828 -35.42089844 44.86035156 C-33.02124185 41.71853314 -30.54135543 38.64195035 -28.0625 35.5625 C-19.95296037 25.46419541 -11.94787233 15.28814693 -4.08349609 4.99755859 C-1.10173576 1.10173576 -1.10173576 1.10173576 0 0 Z " fill="#2E4886" transform="translate(125,117)"/>
<path d="M0 0 C1.60623587 2.4093538 2.60590134 4.28027386 3.64477539 6.92285156 C3.9561998 7.71001556 4.26762421 8.49717957 4.58848572 9.30819702 C4.92151199 10.16039825 5.25453827 11.01259949 5.59765625 11.890625 C5.94836685 12.77964508 6.29907745 13.66866516 6.66041565 14.58462524 C7.79822432 17.47161277 8.93079225 20.36061591 10.0625 23.25 C11.22050882 26.20106653 12.37892069 29.15197464 13.53735352 32.10287476 C14.29974271 34.04540426 15.06162664 35.98813214 15.82299805 37.93106079 C17.90225986 43.23113208 20.00927818 48.5176541 22.16015625 53.7890625 C22.58868896 54.84834961 23.01722168 55.90763672 23.45874023 56.99902344 C24.21256132 58.85793329 24.97577104 60.71307566 25.75024414 62.56347656 C26.0724292 63.36495117 26.39461426 64.16642578 26.7265625 64.9921875 C27.00064941 65.65589355 27.27473633 66.31959961 27.55712891 67.00341797 C28.15859459 69.71498706 27.9238868 71.38026532 27 74 C25.05395508 75.62158203 25.05395508 75.62158203 22.51953125 77.0078125 C21.60236328 77.51957031 20.68519531 78.03132813 19.74023438 78.55859375 C18.77408203 79.07550781 17.80792969 79.59242187 16.8125 80.125 C15.86568359 80.64964844 14.91886719 81.17429687 13.94335938 81.71484375 C9.34079455 84.2521963 4.70326728 86.64836636 0 89 C0 59.63 0 30.26 0 0 Z " fill="#304886" transform="translate(0,44)"/>
<path d="M0 0 C0.33 0 0.66 0 1 0 C1 29.04 1 58.08 1 88 C-4.65229694 85.73908122 -9.844828 82.96320184 -15.1875 80.0625 C-16.19748047 79.52431641 -17.20746094 78.98613281 -18.24804688 78.43164062 C-19.21162109 77.90892578 -20.17519531 77.38621094 -21.16796875 76.84765625 C-22.04735107 76.37336182 -22.9267334 75.89906738 -23.83276367 75.41040039 C-26 74 -26 74 -28 71 C-27.65478516 69.18286133 -27.65478516 69.18286133 -26.7890625 67.08203125 C-26.4585791 66.25904541 -26.1280957 65.43605957 -25.78759766 64.58813477 C-25.40394043 63.67217529 -25.0202832 62.75621582 -24.625 61.8125 C-24.23231934 60.84304443 -23.83963867 59.87358887 -23.43505859 58.87475586 C-22.51519039 56.6038848 -21.58972821 54.33527553 -20.66015625 52.06835938 C-17.62513832 44.65323768 -14.67517788 37.20351359 -11.70428467 29.76254272 C-10.63802013 27.09507242 -9.56879761 24.42880793 -8.49853516 21.76293945 C-8.15838379 20.91495789 -7.81823242 20.06697632 -7.46777344 19.19329834 C-6.8289613 17.60102763 -6.18952353 16.0090077 -5.54931641 14.41729736 C-3.63229189 9.63520655 -1.79325861 4.82992056 0 0 Z " fill="#FEC061" transform="translate(153,45)"/>
<path d="M0 0 C31.86046512 0 31.86046512 0 37.8125 5.6875 C40.80573434 10.220112 41.59032898 13.72859356 40.625 19.078125 C38.92632338 24.64129094 35.62895212 27.651936 31 31 C31.79664063 31.45439453 31.79664063 31.45439453 32.609375 31.91796875 C37.93423795 35.07596229 41.96469514 37.89408541 44 44 C44.39614654 49.24894167 43.86557317 52.55342094 41 57 C29.4919416 67.90237111 16.68981938 63 0 63 C0 42.21 0 21.42 0 0 Z M3 2 C3 11.24 3 20.48 3 30 C18.70250997 31.05041929 18.70250997 31.05041929 32.9296875 25.55859375 C36.08244347 22.42763102 37.37676229 19.83270509 37.5625 15.375 C37.26962027 11.54803822 36.59644847 8.9426416 34 6 C28.85200849 2.86643995 24.09915154 1.86387644 18.13671875 1.90234375 C16.93728638 1.90609009 16.93728638 1.90609009 15.71362305 1.90991211 C14.71500244 1.91901611 13.71638184 1.92812012 12.6875 1.9375 C9.490625 1.958125 6.29375 1.97875 3 2 Z M3 33 C3 41.91 3 50.82 3 60 C7.50101609 60.13539153 11.99792821 60.23433903 16.5 60.3125 C17.7684375 60.35439453 19.036875 60.39628906 20.34375 60.43945312 C27.78305998 60.53631914 33.39297323 60.26795153 39 55 C41.42946991 51.40438453 41.22185753 48.07335064 40.52734375 43.921875 C39.26354935 39.31604653 36.5706796 37.36309907 32.66015625 34.875 C26.97327898 32.10621011 21.18855447 32.56712692 15 32.75 C11.04 32.8325 7.08 32.915 3 33 Z " fill="#2E4787" transform="translate(348,105)"/>
<path d="M0 0 C7.95577777 4.92038521 13.85776942 11.2334645 16.84765625 20.203125 C18.47979403 29.23644204 18.21094407 38.5233906 13.2421875 46.38671875 C12.81808594 47.0828125 12.39398438 47.77890625 11.95703125 48.49609375 C7.652864 54.87441403 2.06607545 58.73719846 -4.9453125 61.76171875 C-14.62161828 63.34799839 -24.17655491 63.61438142 -32.7578125 58.38671875 C-40.53667203 52.77817245 -46.10261577 46.31718762 -48.36328125 36.8515625 C-49.78722979 27.95540876 -48.32952896 19.9300845 -43.8828125 12.07421875 C-33.18745594 -1.4522616 -16.46224898 -7.8985538 0 0 Z M-39.31640625 10.9765625 C-44.02731063 16.6939509 -45.83236998 24.17422105 -45.703125 31.4765625 C-44.56942337 40.46519688 -41.03241384 48.09609327 -33.8828125 53.82421875 C-25.81570567 59.18709768 -18.45291906 60.43483838 -8.7578125 59.38671875 C-1.16221444 57.43555594 5.41840554 52.53480541 9.81640625 46.07421875 C14.5813042 37.7731931 15.79518135 29.21789354 13.3046875 19.82421875 C10.38671564 12.2293107 4.32120215 6.15638425 -2.7578125 2.32421875 C-16.51910614 -3.62489434 -29.10032966 0.55565229 -39.31640625 10.9765625 Z " fill="#2E4786" transform="translate(312.7578125,106.61328125)"/>
<path d="M0 0 C9.04639513 5.57913567 13.908527 12.38183099 17.2421875 22.3828125 C18.22517159 34.77485785 16.16992732 43.76778946 8.234375 53.40625 C1.88792617 59.70292276 -6.69106344 62.65807552 -15.5078125 62.7578125 C-26.15876744 62.54524092 -32.8695507 59.21325534 -40.5546875 51.890625 C-46.87875837 44.69194858 -49.17142129 36.56243431 -49.03125 27.12890625 C-48.14865515 18.26513225 -43.97474191 10.65018352 -37.7578125 4.3828125 C-27.41873709 -3.79645606 -12.02843797 -5.79147013 0 0 Z M-35.0078125 6.640625 C-41.73682882 13.33960106 -45.10087103 19.91791711 -45.77734375 29.4140625 C-45.72382447 37.54899378 -43.08256059 44.18106317 -37.859375 50.37109375 C-30.25598769 57.64942919 -22.56317439 59.88913077 -12.28125 59.78515625 C-4.60708985 58.90883863 1.93568096 55.18770871 7.2421875 49.6328125 C12.50744057 42.84848886 14.99715167 35.71408976 14.62109375 27.11328125 C13.31715412 17.71685029 8.55114203 10.88911732 1.43359375 4.84765625 C-9.65463258 -3.05933259 -24.68129907 -2.00782999 -35.0078125 6.640625 Z " fill="#2E4786" transform="translate(452.7578125,106.6171875)"/>
<path d="M0 0 C5.15625 -0.0825 10.3125 -0.165 15.625 -0.25 C17.24100098 -0.28641602 18.85700195 -0.32283203 20.52197266 -0.36035156 C21.8063623 -0.3703418 23.09075195 -0.38033203 24.4140625 -0.390625 C25.7232666 -0.41157227 27.0324707 -0.43251953 28.38134766 -0.45410156 C33.27502692 0.16000203 36.27185268 2.23166321 39.6796875 5.71875 C43.61338947 11.58073726 43.99476318 17.08314201 43 24 C41.6539807 28.6321111 39.80413461 31.3182337 36.125 34.4375 C32.97390764 36.01304618 30.45683405 36.50410319 27 37 C28.9342694 47.17648317 28.9342694 47.17648317 34 56 C34 56.66 34 57.32 34 58 C37.77222089 59.75163456 40.666639 60.22490027 44.8125 60.125 C45.78832031 60.10695312 46.76414063 60.08890625 47.76953125 60.0703125 C48.50558594 60.04710937 49.24164063 60.02390625 50 60 C50 60.99 50 61.98 50 63 C46.27826273 64.86086863 42.06185464 64.42624401 38 64 C32.09949509 61.39016129 29.01365275 56.51255116 26 51 C24.02554005 45.79460558 24 42.81497548 24 37 C17.07 37 10.14 37 3 37 C3 45.58 3 54.16 3 63 C2.01 63 1.02 63 0 63 C0 42.21 0 21.42 0 0 Z M3 2 C3 12.56 3 23.12 3 34 C9.2184375 34.12375 9.2184375 34.12375 15.5625 34.25 C16.85615479 34.28641602 18.14980957 34.32283203 19.48266602 34.36035156 C26.22068718 34.42518547 30.60605677 34.18779759 36 30 C39.57688883 25.67836115 40.6107037 21.72837024 40.31640625 16.13671875 C39.61359108 11.39054717 37.57295009 8.30691261 34.0625 5.1875 C29.71438795 2.08170568 26.63352781 1.87428975 21.359375 1.90234375 C19.91256348 1.90609009 19.91256348 1.90609009 18.43652344 1.90991211 C17.2199707 1.91901611 16.00341797 1.92812012 14.75 1.9375 C10.8725 1.958125 6.995 1.97875 3 2 Z " fill="#2E4786" transform="translate(206,105)"/>
<path d="M0 0 C3.3945303 2.06844276 6.48923637 4.43788571 8.33984375 8.0234375 C8.33984375 9.3434375 8.33984375 10.6634375 8.33984375 12.0234375 C7.34984375 12.0234375 6.35984375 12.0234375 5.33984375 12.0234375 C4.00651042 10.0234375 2.67317708 8.0234375 1.33984375 6.0234375 C-2.53616893 2.90109395 -6.72958271 1.87375937 -11.66015625 2.0234375 C-16.97100693 3.08036667 -21.25584116 4.62619717 -24.66015625 9.0234375 C-26.19230513 12.08773526 -25.88954173 14.6400017 -25.66015625 18.0234375 C-23.64376403 22.43136469 -21.70398461 23.87791461 -17.22265625 25.5859375 C-15.62550781 26.20855469 -15.62550781 26.20855469 -13.99609375 26.84375 C-10.80153331 27.97344233 -7.58837358 28.97321257 -4.34765625 29.9609375 C1.55560372 31.8719535 6.15664103 34.52736287 9.49609375 39.875 C11.58407945 45.19163025 11.08094511 51.20437052 8.96484375 56.3984375 C3.41342553 61.94985572 -2.37597953 64.31948126 -10.22265625 64.5859375 C-17.67339727 64.27000502 -22.93595607 62.34190574 -28.59765625 57.5234375 C-30.36080387 55.38628887 -31.62033293 53.57573111 -32.66015625 51.0234375 C-31.17515625 50.5284375 -31.17515625 50.5284375 -29.66015625 50.0234375 C-29.00015625 50.9309375 -28.34015625 51.8384375 -27.66015625 52.7734375 C-23.78484912 57.32881246 -19.7143103 59.62060157 -13.7578125 60.40625 C-7.27398666 60.65153975 -1.91295721 60.03873648 3.33984375 56.0234375 C6.31298523 52.67865334 6.95341445 49.4981792 6.7421875 45.01171875 C6.01918389 41.43881739 4.1156943 39.19980859 1.33984375 37.0234375 C-3.41838122 34.24618782 -8.62519668 32.69514292 -13.84765625 31.0234375 C-20.46643447 28.86203216 -26.08841434 26.34267319 -29.66015625 20.0234375 C-30.48170209 15.01871438 -30.25067352 11.20447205 -27.97265625 6.6484375 C-20.8360847 -1.45253561 -10.28967458 -3.77741358 0 0 Z " fill="#2E4786" transform="translate(657.66015625,104.9765625)"/>
<path d="M0 0 C1.19109375 0.00241699 1.19109375 0.00241699 2.40625 0.00488281 C8.41842577 0.13013647 14.23535071 0.74833399 19.25 4.375 C20.5 6.515625 20.5 6.515625 21.25 8.375 C18.06328881 8.375 17.00761596 7.8619303 14.25 6.4375 C4.87213324 2.19549242 -4.21578421 2.8110503 -13.75 6.375 C-21.79858982 10.29579564 -25.86666356 15.53213486 -29.0625 23.75 C-30.60579125 31.88735386 -30.35200051 39.79754743 -26.75 47.375 C-21.73676738 54.7162165 -15.5505859 59.65588913 -6.75 61.375 C2.23177299 62.06503546 9.16636836 61.32946813 17.25 57.375 C18.24 57.045 19.23 56.715 20.25 56.375 C20.25 57.695 20.25 59.015 20.25 60.375 C19.00264433 61.0259259 17.75198168 61.67051669 16.5 62.3125 C15.80390625 62.67214844 15.1078125 63.03179687 14.390625 63.40234375 C6.27453731 67.09012812 -5.30542443 66.57008662 -13.6875 63.875 C-22.4147136 60.12164197 -27.9523295 54.22547595 -31.875 45.671875 C-35.30878386 36.65819236 -34.74574667 26.72922091 -31.07421875 17.87890625 C-26.83545369 9.8640142 -20.34743009 4.67553566 -12.05078125 1.265625 C-7.96310023 0.16267675 -4.21635115 -0.00884302 0 0 Z " fill="#2E4786" transform="translate(593.75,103.625)"/>
<path d="M0 0 C16.83 0 33.66 0 51 0 C51 0.99 51 1.98 51 3 C43.08 3 35.16 3 27 3 C27 23.13 27 43.26 27 64 C26.01 64 25.02 64 24 64 C24 43.87 24 23.74 24 3 C16.08 3 8.16 3 0 3 C0 2.01 0 1.02 0 0 Z " fill="#2E4787" transform="translate(474,104)"/>
<path d="M0 0 C0.99 0 1.98 0 3 0 C3 21.12 3 42.24 3 64 C2.01 64 1.02 64 0 64 C0 42.88 0 21.76 0 0 Z " fill="#2D4786" transform="translate(539,104)"/>
</svg>
