<?xml version="1.0" encoding="UTF-8"?>
<svg version="1.1" xmlns="http://www.w3.org/2000/svg" width="3840" height="456">
<path d="M0 0 C4.55824607 0.01133389 9.11625688 0.00464244 13.67449474 -0.0068779 C45.36137063 -0.07471443 76.9326154 1.10654437 108.49536133 4.01074219 C109.40435181 4.09277893 110.31334229 4.17481567 111.24987793 4.25933838 C139.32444236 6.81588659 167.31574344 10.41903036 195.05786133 15.44824219 C196.05783142 15.62888214 196.05783142 15.62888214 197.07800293 15.81317139 C205.03806619 17.26669822 212.58473191 19.12034325 220.43286133 21.26074219 C220.43286133 45.02074219 220.43286133 68.78074219 220.43286133 93.26074219 C93.38286133 93.26074219 -33.66713867 93.26074219 -164.56713867 93.26074219 C-164.56713867 119.99074219 -164.56713867 146.72074219 -164.56713867 174.26074219 C-155.74592285 174.25026855 -146.92470703 174.23979492 -137.83618164 174.22900391 C-109.53972771 174.19683371 -81.24327369 174.17462722 -52.94680618 174.15861153 C-48.54388311 174.15611042 -44.1409601 174.15352175 -39.73803711 174.15087891 C-38.86157658 174.15035429 -37.98511605 174.14982966 -37.08209611 174.14928915 C-22.93202364 174.14061104 -8.78196759 174.12485552 5.36809517 174.1064366 C19.91145998 174.08766506 34.45481625 174.07661021 48.99819267 174.0725652 C57.95610007 174.06983511 66.91396103 174.06124524 75.87185411 174.04490925 C82.03321426 174.03425259 88.19455076 174.03116096 94.35591944 174.03373943 C97.89884282 174.03500738 101.44168567 174.03320876 104.98459435 174.02233124 C160.827909 173.87636126 160.827909 173.87636126 185.43286133 185.26074219 C186.37258789 185.69 187.31231445 186.11925781 188.28051758 186.56152344 C205.17561561 194.99719123 215.31830687 209.68403372 221.21801758 227.15917969 C225.04931541 239.46541466 226.57798013 252.40031523 226.59399414 265.24658203 C226.59895905 266.21370117 226.60392395 267.18082031 226.60903931 268.17724609 C226.62357297 271.35873139 226.63045034 274.54016672 226.63598633 277.72167969 C226.63881371 278.81719776 226.64164108 279.91271584 226.64455414 281.04143143 C226.65951574 286.84581999 226.66876272 292.65018392 226.6730957 298.45458984 C226.67855739 304.40297079 226.70254546 310.35112019 226.73106766 316.29942894 C226.74984657 320.91359071 226.75490781 325.52769857 226.75643158 330.14189529 C226.75942737 332.33198936 226.76734958 334.5220832 226.78061676 336.71213913 C226.92595235 362.56045781 224.3509104 387.26131109 205.82739258 406.95214844 C163.55373245 447.70864621 73.81306244 448.87220938 18.30786133 453.51074219 C17.3148703 453.59391693 16.32187927 453.67709167 15.29879761 453.76278687 C-6.35214666 455.55317548 -27.90405419 456.47040173 -49.62963867 456.44824219 C-50.7408609 456.44763794 -51.85208313 456.44703369 -52.99697876 456.44641113 C-84.06190676 456.40132376 -245.3004324 455.52744846 -265.56713867 435.26074219 C-265.56713867 411.50074219 -265.56713867 387.74074219 -265.56713867 363.26074219 C-136.53713867 363.26074219 -7.50713867 363.26074219 125.43286133 363.26074219 C125.43286133 331.25074219 125.43286133 299.24074219 125.43286133 266.26074219 C111.94411133 266.28430786 111.94411133 266.28430786 98.18286133 266.30834961 C69.32910623 266.35661619 40.47535094 266.38991944 11.62156588 266.41393818 C7.13109265 266.41768978 2.64061953 266.4215728 -1.84985352 266.42553711 C-2.74373311 266.42632404 -3.63761271 266.42711097 -4.55857956 266.42792175 C-18.98537208 266.44093499 -33.4121283 266.46456604 -47.83889937 266.49220058 C-62.66929575 266.52036891 -77.49967327 266.53694245 -92.33009529 266.54300767 C-101.46306532 266.54710056 -110.59593276 266.55997276 -119.72887117 266.58449159 C-126.01266281 266.6004903 -132.2964023 266.60511103 -138.58021277 266.60124632 C-142.19228139 266.59934645 -145.80417222 266.6020174 -149.41620827 266.61835861 C-182.12450155 266.75881586 -218.80326354 265.65149625 -244.11401367 241.93261719 C-260.35625423 224.24202396 -265.69340841 198.98548524 -265.72827148 175.55419922 C-265.73323639 174.7348439 -265.73820129 173.91548859 -265.74331665 173.07130432 C-265.75779992 170.38704554 -265.76471946 167.70284597 -265.77026367 165.01855469 C-265.77309105 164.09069027 -265.77591843 163.16282585 -265.77883148 162.20684433 C-265.79377316 157.2895861 -265.80303246 152.37235679 -265.80737305 147.45507812 C-265.81282881 142.43163296 -265.83680988 137.40846278 -265.865345 132.38510323 C-265.88417831 128.47432745 -265.88918799 124.56361495 -265.89070892 120.6527977 C-265.89369312 118.80404036 -265.90157378 116.95528295 -265.9148941 115.1065712 C-266.08076237 90.30186454 -263.2084382 64.43638984 -245.50463867 45.51074219 C-239.45075527 39.76286109 -232.99126614 35.94024396 -225.56713867 32.26074219 C-224.53588867 31.73996094 -223.50463867 31.21917969 -222.44213867 30.68261719 C-181.78023762 11.74692797 -130.87628527 8.47838117 -86.81713867 4.01074219 C-86.06573608 3.93360992 -85.3143335 3.85647766 -84.54016113 3.77700806 C-78.88759161 3.20459299 -73.23010537 2.71788578 -67.56713867 2.26074219 C-66.51599884 2.17320679 -65.46485901 2.08567139 -64.38186646 1.9954834 C-42.91011058 0.25374153 -21.53228867 -0.05394183 0 0 Z " fill="#2B2E72" transform="translate(3613.567138671875,-0.2607421875)"/>
<path d="M0 0 C4.92847885 0.00460832 9.85670948 -0.00222698 14.78515625 -0.02050781 C41.68971243 -0.11919055 68.50625307 0.19457753 95.37426758 1.69067383 C97.03090518 1.78262055 97.03090518 1.78262055 98.72101021 1.87642479 C223.13692387 8.9489551 223.13692387 8.9489551 247.87036133 21.31567383 C247.87036133 46.06567383 247.87036133 70.81567383 247.87036133 96.31567383 C126.76036133 96.31567383 5.65036133 96.31567383 -119.12963867 96.31567383 C-119.12963867 123.04567383 -119.12963867 149.77567383 -119.12963867 177.31567383 C-40.25963867 177.31567383 38.61036133 177.31567383 119.87036133 177.31567383 C119.87036133 206.02567383 119.87036133 234.73567383 119.87036133 264.31567383 C41.00036133 264.31567383 -37.86963867 264.31567383 -119.12963867 264.31567383 C-119.12963867 296.32567383 -119.12963867 328.33567383 -119.12963867 361.31567383 C2.31036133 361.31567383 123.75036133 361.31567383 248.87036133 361.31567383 C248.87036133 385.40567383 248.87036133 409.49567383 248.87036133 434.31567383 C249.53036133 434.64567383 250.19036133 434.97567383 250.87036133 435.31567383 C201.79807955 444.22367783 152.65352272 450.22008177 102.87036133 453.31567383 C101.90225525 453.37625977 100.93414917 453.4368457 99.93670654 453.49926758 C38.30629532 457.27971069 -24.50728169 457.16848715 -86.12963867 453.31567383 C-87.70352356 453.21739288 -87.70352356 453.21739288 -89.3092041 453.11712646 C-138.30166551 450.00781069 -186.87039706 444.36428163 -235.12963867 435.31567383 C-235.12963867 298.69567383 -235.12963867 162.07567383 -235.12963867 21.31567383 C-220.09446149 17.84601756 -220.09446149 17.84601756 -212.93041992 16.66723633 C-211.6989624 16.46084785 -211.6989624 16.46084785 -210.44262695 16.25028992 C-207.77684419 15.80706951 -205.10980675 15.37239609 -202.44213867 14.94067383 C-201.5082431 14.78915863 -200.57434753 14.63764343 -199.6121521 14.48153687 C-170.86341814 9.84677915 -142.01453829 6.6061108 -113.00463867 4.12817383 C-112.09791412 4.0492691 -111.19118958 3.97036438 -110.25698853 3.8890686 C-103.21957156 3.28430498 -96.17780447 2.77764982 -89.12963867 2.31567383 C-88.47904606 2.27241848 -87.82845345 2.22916313 -87.1581459 2.18459702 C-58.11218273 0.26834851 -29.10225147 -0.02943437 0 0 Z " fill="#2C2E72" transform="translate(2923.129638671875,-0.315673828125)"/>
<path d="M0 0 C0 58.74 0 117.48 0 178 C95.37 178 190.74 178 289 178 C289 119.26 289 60.52 289 0 C302.29581608 0 315.19641415 0.01458463 328.375 1.1875 C329.12948425 1.25246674 329.88396851 1.31743347 330.66131592 1.3843689 C398.27612687 7.27612687 398.27612687 7.27612687 406 15 C406.09811838 17.2256637 406.12371107 19.45451815 406.12304783 21.68234348 C406.12420167 22.39261427 406.12535552 23.10288507 406.12654433 23.83467922 C406.1292178 26.2448352 406.12468288 28.65492606 406.12025452 31.06507874 C406.12069007 32.7983581 406.12156468 34.53163741 406.12284368 36.26491636 C406.12509177 41.05132634 406.1210631 45.83771416 406.11606562 50.62412131 C406.11176578 55.77684444 406.11320721 60.92956623 406.1139679 66.08229065 C406.11449343 75.01753602 406.11134358 83.95277411 406.10573006 92.88801765 C406.09761901 105.80703982 406.09500024 118.72605845 406.09374207 131.64508288 C406.09155092 152.6029902 406.08488915 173.56089363 406.07543945 194.51879883 C406.06626694 214.88305644 406.05918532 235.247313 406.05493164 255.61157227 C406.05466892 256.86584768 406.05440619 258.1201231 406.05413551 259.41240687 C406.05283052 265.70444616 406.0515668 271.99648545 406.05032361 278.28852475 C406.03994905 330.52568585 406.02232905 382.76284274 406 435 C403.14592127 435.80527781 400.29101122 436.60737748 397.43554688 437.40771484 C396.63542175 437.63381943 395.83529663 437.85992401 395.01092529 438.09288025 C388.23361733 439.98816682 381.43850949 441.44341795 374.5 442.625 C372.70937134 442.93401245 372.70937134 442.93401245 370.88256836 443.24926758 C348.98852259 446.9298256 327.10973649 448.58776767 304.9609375 449.66796875 C303.93272636 449.71926941 303.93272636 449.71926941 302.88374329 449.77160645 C298.24056733 449.987037 293.6595721 450 289 450 C289 388.95 289 327.9 289 265 C193.63 265 98.26 265 0 265 C0 326.05 0 387.1 0 450 C-35.21963171 448.82601228 -35.21963171 448.82601228 -46 447.75 C-47.308479 447.62214111 -48.61695801 447.49428223 -49.96508789 447.36254883 C-59.16581452 446.42803691 -68.30892325 445.1708342 -77.4375 443.6875 C-79.08395508 443.42308105 -79.08395508 443.42308105 -80.76367188 443.15332031 C-93.02243564 441.03887967 -104.83681706 437.9191639 -117 435 C-117 296.4 -117 157.8 -117 15 C-91.66457828 5.49921685 -63.87378941 2.89521747 -37.0625 0.75 C-36.09570312 0.66975586 -35.12890625 0.58951172 -34.1328125 0.50683594 C-22.72399723 -0.29897723 -11.50880705 0 0 0 Z " fill="#2C2E72" transform="translate(808,3)"/>
<path d="M0 0 C0.66632362 -0.00791008 1.33264723 -0.01582017 2.01916248 -0.02396995 C4.26843404 -0.04917964 6.51770153 -0.06699378 8.76704407 -0.08467102 C10.37320245 -0.10074801 11.97935783 -0.11712774 13.58551025 -0.13378906 C28.26124497 -0.27855507 42.93783654 -0.35354734 57.6141386 -0.41270733 C68.46743301 -0.45729678 79.31946526 -0.53445078 90.17219514 -0.65429181 C97.79770051 -0.73566524 105.42285967 -0.7788397 113.04878074 -0.79400951 C117.6059085 -0.80418406 122.16144797 -0.83153903 126.71809959 -0.90032005 C131.00734538 -0.96434932 135.2942013 -0.98112588 139.58385658 -0.96182442 C141.15691657 -0.96297801 142.73007236 -0.98123515 144.30270386 -1.01796722 C148.90742129 -1.11995711 153.22872562 -1.10033487 157.69404602 0.18754578 C160.7369818 3.16697217 162.19478138 6.24658178 163.69404602 10.18754578 C164.2999054 11.27422546 164.90576477 12.36090515 165.52998352 13.48051453 C166.03787415 14.43570984 166.54576477 15.39090515 167.06904602 16.37504578 C167.65452209 17.47252136 168.23999817 18.56999695 168.84321594 19.70072937 C169.75937683 21.42670349 169.75937683 21.42670349 170.69404602 23.18754578 C171.35038584 24.41899738 172.00704916 25.65027661 172.66401672 26.88139343 C173.67552974 28.77697316 174.68687388 30.67264047 175.69729614 32.56880188 C179.07576857 38.90881128 182.4754171 45.23735344 185.88154602 51.56254578 C186.46041565 52.63778503 187.03928528 53.71302429 187.63569641 54.82084656 C191.75773624 62.46933305 195.91562626 70.09772588 200.08540344 77.72026062 C204.49138764 85.7878423 208.82884752 93.89171018 213.16203308 101.9985199 C217.30466277 109.74737073 221.47448723 117.48027579 225.69404602 125.18754578 C230.5711332 134.09582968 235.37494185 143.04237358 240.16230774 151.99906921 C244.30484789 159.74773561 248.47458564 167.48045554 252.69404602 175.18754578 C257.5711332 184.09582968 262.37494185 193.04237358 267.16230774 201.99906921 C271.30484789 209.74773561 275.47458564 217.48045554 279.69404602 225.18754578 C284.5711332 234.09582968 289.37494185 243.04237358 294.16230774 251.99906921 C298.30484789 259.74773561 302.47458564 267.48045554 306.69404602 275.18754578 C311.5711332 284.09582968 316.37494185 293.04237358 321.16230774 301.99906921 C325.30484789 309.74773561 329.47458564 317.48045554 333.69404602 325.18754578 C338.5711332 334.09582968 343.37494185 343.04237358 348.16230774 351.99906921 C352.77230575 360.62212062 357.42657037 369.21951547 362.12226868 377.79618835 C366.95113186 386.62965257 371.70044394 395.50538125 376.44404602 404.3848114 C377.0395929 405.49920593 377.63513977 406.61360046 378.24873352 407.76176453 C378.82204407 408.83603699 379.39535461 409.91030945 379.98603821 411.01713562 C382.16003724 415.05252032 384.38853702 419.0568769 386.6320343 423.05400085 C387.69404602 425.18754578 387.69404602 425.18754578 387.69404602 427.18754578 C358.72988851 434.82822722 329.49449277 438.79194507 299.69404602 441.18754578 C298.61010559 441.28615906 297.52616516 441.38477234 296.40937805 441.4863739 C287.82131722 442.18564377 279.28931703 442.23890244 270.67622375 442.21391296 C268.80063404 442.21105789 268.80063404 442.21105789 266.88715363 442.20814514 C263.82277545 442.20320547 260.75841532 442.19628672 257.69404602 442.18754578 C251.36231116 429.54765361 245.03302571 416.90653743 238.7064085 404.26408291 C235.76741218 398.39126875 232.82768682 392.5188221 229.88618469 386.64726257 C227.03790921 380.96172207 224.1916932 375.27515468 221.34679604 369.58792305 C220.270873 367.43789901 219.19425636 365.2882219 218.11687279 363.13892937 C212.21368012 351.36130021 206.4052073 339.54752435 200.7466917 327.65032864 C196.39401369 318.51641419 191.88957937 309.46202079 187.34822083 300.42073059 C185.88885772 297.51516694 184.43227774 294.6082212 182.97627258 291.70097351 C179.88450281 285.52867372 176.78954288 279.35797704 173.69404602 273.18754578 C170.09718029 266.01770723 166.50175514 258.84715316 162.90974426 251.67488098 C161.49872295 248.85915486 160.0852361 246.0446769 158.67158508 243.23027039 C153.60294925 233.12133516 148.65507391 222.962881 143.79634857 212.75143433 C139.48531892 203.70894506 135.03009676 194.7424579 130.53341675 185.79112244 C129.10765387 182.95277099 127.68468252 180.11303348 126.26228333 177.272995 C123.24184539 171.24335355 120.21821553 165.21531633 117.19404602 159.18754578 C113.20193585 151.23047721 109.21134186 143.27265427 105.22529602 135.31254578 C104.74956146 134.36259735 104.2738269 133.41264893 103.78367615 132.43391418 C97.30914264 119.49834941 90.92329779 106.53076551 84.77534485 93.43608093 C83.12571939 90.00572409 81.38060248 86.62423499 79.63288879 83.2429657 C78.69404602 81.18754578 78.69404602 81.18754578 78.69404602 79.18754578 C75.20460647 79.05940872 72.06112125 79.21729055 68.69404602 80.18754578 C66.20640175 82.56632368 65.05544698 85.3766865 63.71357727 88.51176453 C63.30180237 89.38439438 62.89002747 90.25702423 62.46577454 91.15609741 C61.11028049 94.0472467 59.80969387 96.9599767 58.50654602 99.87504578 C57.56454995 101.90458835 56.61810472 103.93207126 55.66743469 105.95756531 C54.18305146 109.12243941 52.7020849 112.28853765 51.23526001 115.46159363 C45.91759288 126.9593574 40.22025873 138.25792573 34.50654602 149.56254578 C29.02010762 160.44382155 23.59081182 171.34383216 18.36201477 182.35160828 C11.61063586 196.55795114 4.52249038 210.59350307 -2.54472351 224.64457703 C-8.87141745 237.23026162 -15.13107318 249.8369214 -21.17228699 262.56230164 C-27.2395752 275.30630199 -33.62883328 287.89087738 -39.9719696 300.49906921 C-45.66911906 311.82976893 -51.33554018 323.16784036 -56.77470398 334.62504578 C-63.47718798 348.741782 -70.52330993 362.68456351 -77.54472351 376.64457703 C-84.01374772 389.51339905 -90.43862939 402.39434593 -96.58207703 415.42253113 C-100.87286213 424.49407749 -105.55280534 433.35143215 -110.30595398 442.18754578 C-150.43234289 443.2306928 -195.04450497 439.94136211 -233.30595398 427.18754578 C-232.7035503 423.20383581 -231.45095303 420.22720534 -229.52470398 416.69926453 C-228.64576477 415.07577087 -228.64576477 415.07577087 -227.74906921 413.41947937 C-227.1013661 412.23800043 -226.45366096 411.0565226 -225.80595398 409.87504578 C-224.78429981 407.99366021 -223.76504421 406.11098661 -222.74575806 404.22831726 C-222.03174149 402.9100254 -221.31693382 401.59216174 -220.60137939 400.27470398 C-216.96110377 393.5693253 -213.38604696 386.82991959 -209.8157196 380.08711243 C-203.79430094 368.71794872 -197.72631765 357.37501111 -191.61430359 346.054245 C-186.97464935 337.45142889 -182.38525765 328.82257039 -177.80595398 320.18754578 C-172.11445687 309.45529887 -166.38587063 298.7443429 -160.61454773 288.05473328 C-155.97484738 279.45173536 -151.38534293 270.8227312 -146.80595398 262.18754578 C-141.67050695 252.50382207 -136.51338834 242.83283551 -131.30595398 233.18754578 C-126.12102781 223.58306238 -120.98338942 213.95440724 -115.86845398 204.31254578 C-107.44803628 188.4405859 -98.96704658 172.60172261 -90.4719696 156.76957703 C-88.62444773 153.32584337 -86.77749812 149.8818038 -84.93095398 146.43754578 C-84.01358459 144.72655701 -84.01358459 144.72655701 -83.0776825 142.98100281 C-79.70744766 136.6893718 -76.34889914 130.39174451 -73.00517273 124.08598328 C-72.64356552 123.40406418 -72.28195831 122.72214508 -71.90939331 122.01956177 C-70.44827246 119.26390186 -68.98721889 116.50820632 -67.52638245 113.75239563 C-62.60090856 104.46403824 -57.61153829 95.21440604 -52.55131531 85.99858093 C-49.05131112 79.60465471 -45.66114072 73.15849522 -42.30595398 66.68754578 C-38.03255663 58.44569807 -33.65342452 50.27178402 -29.1816864 42.1360321 C-26.01283765 36.35560245 -22.89367654 30.55064922 -19.80595398 24.72660828 C-19.41852524 23.99584579 -19.0310965 23.26508331 -18.63192749 22.51217651 C-16.69426673 18.85496924 -14.75999342 15.19599789 -12.82865906 11.53544617 C-12.1192829 10.19421096 -11.40989231 8.85298338 -10.70048523 7.51176453 C-10.2076001 6.57434921 -10.2076001 6.57434921 -9.70475769 5.61799622 C-6.79670656 0.12530167 -6.27409625 0.06305248 0 0 Z " fill="#2B2E72" transform="translate(1588.3059539794922,10.812454223632813)"/>
<path d="M0 0 C1.96591967 -0.00240866 3.93183935 -0.00482038 5.89775872 -0.00746042 C12.06791013 -0.01551253 18.23804705 -0.01805373 24.40820312 -0.01733398 C29.94404019 -0.01680455 35.47980604 -0.02379713 41.015625 -0.0378418 C74.39323627 -0.12052489 107.68688636 0.17209598 141.015625 2.16796875 C141.69371216 2.20797375 142.37179932 2.24797874 143.07043457 2.28919601 C151.10132984 2.76516285 159.12171448 3.33497041 167.140625 3.98046875 C168.20374908 4.06411682 169.26687317 4.14776489 170.36221313 4.23394775 C199.71087094 6.55653641 228.87883562 10.03886636 258.015625 14.23046875 C259.25764175 14.40736237 259.25764175 14.40736237 260.52474976 14.58782959 C261.32764435 14.70305969 262.13053894 14.81828979 262.95776367 14.93701172 C263.65060959 15.03617889 264.34345551 15.13534607 265.05729675 15.23751831 C275.54262691 16.83501684 285.5685695 18.96858864 296.015625 21.16796875 C296.015625 45.91796875 296.015625 70.66796875 296.015625 96.16796875 C228.365625 96.16796875 160.715625 96.16796875 91.015625 96.16796875 C91.015625 211.66796875 91.015625 327.16796875 91.015625 446.16796875 C52.405625 446.16796875 13.795625 446.16796875 -25.984375 446.16796875 C-25.984375 330.66796875 -25.984375 215.16796875 -25.984375 96.16796875 C-93.304375 96.16796875 -160.624375 96.16796875 -229.984375 96.16796875 C-229.984375 71.41796875 -229.984375 46.66796875 -229.984375 21.16796875 C-221.89058813 19.14452203 -213.8347142 17.71568603 -205.609375 16.41796875 C-204.79459686 16.28924377 -203.97981873 16.1605188 -203.14035034 16.02789307 C-153.4434495 8.23999561 -103.22419924 3.53725213 -52.984375 1.16796875 C-52.14044567 1.12743881 -51.29651634 1.08690887 -50.4270134 1.04515076 C-33.61249278 0.2536294 -16.83155345 0.00497092 0 0 Z " fill="#2B2E72" transform="translate(229.984375,-0.16796875)"/>
<path d="M0 0 C38.61 0 77.22 0 117 0 C117 113.85 117 227.7 117 345 C221.94 345 326.88 345 435 345 C435 371.4 435 397.8 435 425 C392.7580056 433.21372113 392.7580056 433.21372113 378.3125 435.1875 C377.03939468 435.36569275 377.03939468 435.36569275 375.74057007 435.54748535 C345.66789216 439.74433048 315.33480618 442.60609485 285 444 C284.09660889 444.04236786 283.19321777 444.08473572 282.26245117 444.12838745 C260.71748129 445.10436398 239.18746866 445.20201289 217.625 445.1875 C216.73445797 445.18723312 215.84391594 445.18696625 214.92638779 445.18669128 C186.5814012 445.17604804 158.28777732 444.99118995 130 443 C128.60110535 442.90171906 128.60110535 442.90171906 127.1739502 442.80145264 C90.04017197 440.14948418 53.45633561 435.521426 16.890625 428.55078125 C15.8898996 428.3603978 15.8898996 428.3603978 14.86895752 428.16616821 C9.88600214 427.20372409 4.95956298 426.10212511 0 425 C0 284.75 0 144.5 0 0 Z " fill="#2B2E72" transform="translate(2112,10)"/>
<path d="M0 0 C16.24921354 12.72932659 26.73191464 31.01615948 29.41796875 51.45703125 C31.37423073 72.89286412 25.96161363 92.56296688 12.41796875 109.45703125 C11.63421875 110.50890625 10.85046875 111.56078125 10.04296875 112.64453125 C-2.16640972 125.72600818 -19.93107097 135.3146829 -38.00708008 136.6340332 C-61.34525499 137.19886609 -80.70159462 133.58386989 -98.58203125 117.45703125 C-99.26652344 116.86535156 -99.95101563 116.27367187 -100.65625 115.6640625 C-115.04165686 102.40913948 -122.3334222 83.32381944 -123.54296875 64.10546875 C-123.77500442 42.43333695 -116.62287523 22.80843781 -101.39453125 7.2109375 C-74.04756632 -19.56629899 -31.01370239 -22.83634539 0 0 Z " fill="#5DBED4" transform="translate(1708.58203125,267.54296875)"/>
</svg>
