<?xml version="1.0" encoding="UTF-8"?>
<svg version="1.1" xmlns="http://www.w3.org/2000/svg" width="1163" height="148">
<path d="M0 0 C383.79 0 767.58 0 1163 0 C1163 48.84 1163 97.68 1163 148 C779.21 148 395.42 148 0 148 C0 99.16 0 50.32 0 0 Z " fill="#FDFDFD" transform="translate(0,0)"/>
<path d="M0 0 C2.54630052 2.32718267 4.1984032 4.77923517 5.9375 7.75 C6.4634375 8.64460938 6.989375 9.53921875 7.53125 10.4609375 C8.98248621 12.9697235 10.43252209 15.47893281 11.85546875 18.00390625 C12.82099248 19.687806 13.80844706 21.35910297 14.80078125 23.02734375 C15.44402344 24.11144531 16.08726562 25.19554688 16.75 26.3125 C17.67039062 27.85357422 17.67039062 27.85357422 18.609375 29.42578125 C20 32 20 32 20 34 C20.66 34 21.32 34 22 34 C22.3403125 34.63164063 22.680625 35.26328125 23.03125 35.9140625 C25.98716525 41.36992735 28.99115838 46.79592849 32.0625 52.1875 C32.40152344 52.78296631 32.74054688 53.37843262 33.08984375 53.99194336 C34.97632627 57.28277684 36.93544903 60.50586904 39 63.6875 C41 67 41 67 41 70 C41.66 70 42.32 70 43 70 C44.31582063 72.26896632 45.62775236 74.54003187 46.9375 76.8125 C47.31068359 77.45509766 47.68386719 78.09769531 48.06835938 78.75976562 C49.63466635 81.48316424 51.00369374 84.01108122 52 87 C19.66 87 -12.68 87 -46 87 C-44.67370343 83.68425858 -43.38904372 80.6830621 -41.75 77.55078125 C-41.31139648 76.71168213 -40.87279297 75.87258301 -40.42089844 75.00805664 C-39.95200195 74.11852295 -39.48310547 73.22898926 -39 72.3125 C-38.51305664 71.38493896 -38.02611328 70.45737793 -37.52441406 69.50170898 C-33.94865868 62.72108159 -30.25242893 56.01500018 -26.49682617 49.33276367 C-23.35497918 43.71517899 -20.48065303 38.00507761 -17.64453125 32.2265625 C-15.52779606 28.07353812 -13.15576953 24.09985724 -10.76953125 20.09765625 C-8.12997796 15.47698128 -5.81047585 10.71623991 -3.48046875 5.93359375 C-2 3 -2 3 0 0 Z " fill="#56C4C0" transform="translate(357,28)"/>
<path d="M0 0 C-2.09168492 8.92384704 -4.19707557 17.84421042 -6.33203125 26.7578125 C-7.15911573 30.21347912 -7.98594317 33.66920713 -8.8125 37.125 C-9.1367395 38.48049454 -9.1367395 38.48049454 -9.4675293 39.8633728 C-11.74166663 49.3806208 -13.99975458 58.90010314 -16.13671875 68.44921875 C-16.29831985 69.17109375 -16.45992096 69.89296875 -16.62641907 70.63671875 C-17.3728357 73.97969628 -18.11178523 77.32406392 -18.84301758 80.67041016 C-19.10107178 81.83749512 -19.35912598 83.00458008 -19.625 84.20703125 C-19.84414062 85.2122583 -20.06328125 86.21748535 -20.2890625 87.25317383 C-20.98821929 89.95448325 -21.90414036 92.43684751 -23 95 C-25.34459083 93.01219473 -27.67628912 91.01206461 -30 89 C-30.65033203 88.43998291 -31.30066406 87.87996582 -31.97070312 87.30297852 C-40.92991903 79.41562591 -49.22554997 70.84754926 -57.625 62.375 C-60.71837061 59.25483039 -63.81518315 56.13813497 -66.9140625 53.0234375 C-67.60698395 52.32221771 -68.2999054 51.62099792 -69.01382446 50.89852905 C-72.94180255 46.95112283 -76.96938144 43.19244664 -81.20162964 39.57228088 C-84.10206757 37.03648335 -86.79950432 34.30777431 -89.5 31.5625 C-90.03625 31.02173828 -90.5725 30.48097656 -91.125 29.92382812 C-92.41904036 28.61823383 -93.70988174 27.30947004 -95 26 C-94.67 25.34 -94.34 24.68 -94 24 C-91.26172558 23.1059164 -88.56206717 22.33072896 -85.77734375 21.609375 C-84.93357178 21.38427246 -84.0897998 21.15916992 -83.22045898 20.92724609 C-80.46150266 20.1935778 -77.6996139 19.47168075 -74.9375 18.75 C-73.0415995 18.24828235 -71.14584768 17.74600255 -69.25024414 17.24316406 C-58.58554396 14.42265076 -47.90329869 11.68671041 -37.18408203 9.08056641 C-28.95775541 7.05551035 -20.84480211 4.67241386 -12.74780273 2.18261719 C-11.80622314 1.89805664 -10.86464355 1.61349609 -9.89453125 1.3203125 C-9.06800049 1.06523926 -8.24146973 0.81016602 -7.38989258 0.54736328 C-4.85255104 -0.03377062 -2.59420208 -0.09756763 0 0 Z " fill="#030303" transform="translate(130,9)"/>
<path d="M0 0 C32.34 0 64.68 0 98 0 C88.5125 18.975 88.5125 18.975 83.875 27.875 C83.14603516 29.28652344 83.14603516 29.28652344 82.40234375 30.7265625 C79.5589474 36.18709024 76.54033624 41.48654268 73.33935547 46.74462891 C71.60126618 49.67143694 70.09880265 52.68269499 68.625 55.75 C65.91675834 61.30135897 62.96161663 66.66077898 59.85791016 71.99951172 C57.02181721 76.89872601 54.4459283 81.89647654 52 87 C48.76932857 84.22794123 46.89806931 80.64360465 44.8125 77 C43.92516569 75.47095556 43.03709126 73.94234048 42.1484375 72.4140625 C41.4073877 71.13644043 41.4073877 71.13644043 40.65136719 69.83300781 C37.44330018 64.32939906 34.18733224 58.85400771 30.9375 53.375 C30.23459529 52.18897898 29.53171432 51.00294389 28.82885742 49.81689453 C24.60699885 42.69507256 20.36147347 35.58814693 16.08984375 28.49609375 C14.50306274 25.85197102 12.93764344 23.1959054 11.37890625 20.53515625 C10.9307959 19.77025879 10.48268555 19.00536133 10.02099609 18.21728516 C9.16152805 16.74791265 8.30365691 15.27760433 7.44775391 13.80615234 C5.6191834 10.67823532 3.76309231 7.61321973 1.70703125 4.62890625 C0 2 0 2 0 0 Z " fill="#020202" transform="translate(371,28)"/>
<path d="M0 0 C4.60677496 3.83897914 8.87951539 7.84580134 13.0859375 12.1171875 C14.73234639 13.73671624 16.39930182 15.22943071 18.1875 16.6875 C20.98423515 18.98703779 23.4551962 21.42558393 26 24 C26.91845703 24.91845703 27.83691406 25.83691406 28.78320312 26.78320312 C51 49 51 49 53.70507812 51.73632812 C55.96036506 54.0390962 55.96036506 54.0390962 58.5 56 C65.54545455 61.63636364 65.54545455 61.63636364 67 66 C69.01508358 66.73323796 69.01508358 66.73323796 71 67 C71.33 68.32 71.66 69.64 72 71 C71.0716333 71.23952393 71.0716333 71.23952393 70.12451172 71.48388672 C55.28413528 75.31565632 40.45086098 79.17494604 25.625 83.0625 C24.80777466 83.2766153 23.99054932 83.49073059 23.14855957 83.71133423 C12.80228895 86.42547834 2.47379373 89.18026032 -7.76318359 92.28735352 C-12.51472471 93.70141469 -17.0634552 94.50411683 -22 95 C-20.76085361 85.46826503 -18.73953254 76.28604189 -16.4024353 66.9758606 C-15.38347509 62.9153587 -14.38279245 58.85036752 -13.3828125 54.78515625 C-13.18070663 53.96456223 -12.97860077 53.1439682 -12.77037048 52.29850769 C-10.4971738 43.02333118 -8.41729183 33.70586559 -6.3840332 24.37548828 C-4.56701526 16.14221477 -2.40022302 8.0793427 0 0 Z " fill="#56C4C0" transform="translate(27,43)"/>
<path d="M0 0 C38.97912317 0 38.97912317 0 49 8 C54.02503135 13.33411066 55.38204907 18.37087245 55.5625 25.625 C55.21835636 33.3916962 54.01031937 39.599293 48.671875 45.61328125 C45.22229944 48.47449462 41.07855777 50.2101863 37 52 C39.86759875 57.27091962 43.10085945 61.99370604 46.75 66.75 C47.81306233 68.15191752 48.87555984 69.55426351 49.9375 70.95703125 C50.45570313 71.63975098 50.97390625 72.3224707 51.5078125 73.02587891 C53.61368902 75.8118929 55.68712155 78.61946069 57.75 81.4375 C58.38421875 82.30246094 59.0184375 83.16742188 59.671875 84.05859375 C61 86 61 86 61 87 C55.91885505 87.9995695 50.96949174 88.71496186 46 87 C40.73190443 82.95872121 37.39156356 76.5946104 34 71 C32.61535724 68.72113887 31.22470851 66.45016862 29.79199219 64.20117188 C28.91267571 62.81277743 28.06817815 61.40147857 27.26660156 59.96679688 C25.94733085 57.69372318 25.94733085 57.69372318 23 55 C19.37 54.67 15.74 54.34 12 54 C12 64.89 12 75.78 12 87 C8.04 87 4.08 87 0 87 C0 58.29 0 29.58 0 0 Z " fill="#030303" transform="translate(684,28)"/>
<path d="M0 0 C39.16385135 0 39.16385135 0 48.49609375 7.48828125 C53.83658584 12.85651615 55.33622751 17.9726685 55.5625 25.5 C55.34055944 31.82847658 54.35312096 36.63031678 51 42 C50.46375 42.9075 49.9275 43.815 49.375 44.75 C45.77930466 48.15644822 41.48838974 49.98707712 37 52 C40.25540488 58.10491958 44.23082211 63.45607124 48.4375 68.9375 C52.93557759 74.80667302 57.18704257 80.65976442 61 87 C55.91885505 87.9995695 50.96949174 88.71496186 46 87 C40.73190443 82.95872121 37.39156356 76.5946104 34 71 C32.61535724 68.72113887 31.22470851 66.45016862 29.79199219 64.20117188 C28.91267571 62.81277743 28.06817815 61.40147857 27.26660156 59.96679688 C25.94733085 57.69372318 25.94733085 57.69372318 23 55 C19.37 54.67 15.74 54.34 12 54 C12 64.89 12 75.78 12 87 C8.04 87 4.08 87 0 87 C0 58.29 0 29.58 0 0 Z " fill="#030303" transform="translate(241,28)"/>
<path d="M0 0 C4.40444979 2.73403153 4.40444979 2.73403153 6.2734375 4.50390625 C6.2734375 8.09303037 5.60907196 8.61247654 3.2734375 11.19140625 C2.7165625 11.81402344 2.1596875 12.43664062 1.5859375 13.078125 C1.1528125 13.54863281 0.7196875 14.01914062 0.2734375 14.50390625 C-1.7020815 13.52271721 -3.67033171 12.53358683 -5.62109375 11.50390625 C-14.69569788 6.77254442 -23.51357641 4.9020862 -33.6640625 7.15625 C-41.68406611 9.75161228 -48.13408353 13.96570478 -52.1015625 21.56640625 C-52.68684544 22.86004565 -53.22501755 24.17555701 -53.7265625 25.50390625 C-54.08234375 26.4371875 -54.438125 27.37046875 -54.8046875 28.33203125 C-57.60068286 37.95215087 -56.03052949 47.6288295 -51.7265625 56.50390625 C-47.39317346 64.30400653 -41.94872252 68.01318624 -33.65625 70.77734375 C-24.05259626 73.15904988 -14.96286416 71.31599418 -6.3515625 66.69140625 C0.62086759 60.88104784 2.83613699 53.12770932 4.2734375 44.50390625 C-5.2965625 44.50390625 -14.8665625 44.50390625 -24.7265625 44.50390625 C-24.7265625 40.87390625 -24.7265625 37.24390625 -24.7265625 33.50390625 C-11.1965625 33.50390625 2.3334375 33.50390625 16.2734375 33.50390625 C16.2734375 58.0534558 16.2734375 58.0534558 8.2734375 68.50390625 C7.5515625 69.53515625 6.8296875 70.56640625 6.0859375 71.62890625 C0.02148254 78.58407803 -9.66874253 82.87407903 -18.74560547 83.68408203 C-33.78909526 84.60430427 -44.87575394 81.58713021 -56.6640625 71.9140625 C-61.46880312 67.51316862 -64.25557152 62.49166341 -66.7265625 56.50390625 C-67.09394531 55.6428125 -67.46132813 54.78171875 -67.83984375 53.89453125 C-70.56156342 43.48725077 -70.58579639 28.54866605 -66.05078125 18.71484375 C-59.02151146 6.97865879 -50.40640893 -0.22619441 -37.5234375 -4.578125 C-24.89797139 -7.63057823 -11.370012 -6.23884613 0 0 Z " fill="#060606" transform="translate(1022.7265625,32.49609375)"/>
<path d="M0 0 C7.87300041 6.74828607 7.87300041 6.74828607 11.15600586 10.05834961 C11.89044418 10.79609116 12.62488251 11.5338327 13.38157654 12.29393005 C14.15155472 13.07220657 14.9215329 13.85048309 15.71484375 14.65234375 C16.93670128 15.87988121 16.93670128 15.87988121 18.1832428 17.13221741 C21.6412044 20.60640667 25.09317001 24.08653108 28.5456543 27.56616211 C31.07912305 30.11781423 33.61566329 32.6663851 36.15234375 35.21484375 C36.9202977 35.99109604 37.68825165 36.76734833 38.47947693 37.56712341 C41.89125596 40.99418174 45.32335456 44.33272685 48.99047852 47.48657227 C53.51584542 51.45202043 57.74537165 55.74537165 62 60 C62.33 40.53 62.66 21.06 63 1 C66.96 1 70.92 1 75 1 C75 30.04 75 59.08 75 89 C70.78306275 85.38548235 66.86305774 81.98207333 63.00390625 78.06640625 C62.11509766 77.16986328 61.22628906 76.27332031 60.31054688 75.34960938 C58.48239411 73.49547008 56.654269 71.64130353 54.82617188 69.78710938 C49.16055595 64.0670902 49.16055595 64.0670902 43.18359375 58.6796875 C36.94930786 53.34154564 31.27872995 47.38218557 25.5 41.5625 C21.375 37.416875 17.25 33.27125 13 29 C12.67 48.47 12.34 67.94 12 88 C8.04 88 4.08 88 0 88 C0 58.96 0 29.92 0 0 Z " fill="#020202" transform="translate(866,27)"/>
<path d="M0 0 C2.96412819 3.5583277 4.82850291 7.55346176 6.7734375 11.71875 C7.13362976 12.48093338 7.49382202 13.24311676 7.8649292 14.02839661 C9.03942656 16.5168507 10.20731542 19.00834275 11.375 21.5 C12.18702359 23.22435021 12.99936328 24.9485516 13.81201172 26.67260742 C19.65700962 39.08554063 25.44888977 51.52312453 31.20703125 63.9765625 C34.0404799 70.10068639 36.91246955 76.20628626 39.81884766 82.29614258 C42 86.89287018 42 86.89287018 42 88 C37.38 88 32.76 88 28 88 C25.03 81.73 22.06 75.46 19 69 C6.46 69 -6.08 69 -19 69 C-23.455 78.405 -23.455 78.405 -28 88 C-32.29 88 -36.58 88 -41 88 C-40.0872787 83.43639352 -38.68712255 79.93306051 -36.640625 75.83984375 C-36.29988953 75.14589005 -35.95915405 74.45193634 -35.60809326 73.73695374 C-34.87508123 72.24492216 -34.13958623 70.75410835 -33.40185547 69.2644043 C-31.44768666 65.31671823 -29.51314254 61.35944357 -27.578125 57.40234375 C-27.18798218 56.60533051 -26.79783936 55.80831726 -26.39587402 54.9871521 C-22.83690097 47.70071022 -19.39615566 40.36348294 -16 33 C-15.47857422 31.87029785 -14.95714844 30.7405957 -14.41992188 29.57666016 C-13.42088617 27.41112586 -12.42217407 25.24544222 -11.42382812 23.07958984 C-9.22042244 18.31385608 -6.99122419 13.560548 -4.75 8.8125 C-4.37875 8.02166016 -4.0075 7.23082031 -3.625 6.41601562 C-1.11838839 1.11838839 -1.11838839 1.11838839 0 0 Z " fill="#050505" transform="translate(815,27)"/>
<path d="M0 0 C15.84 0 31.68 0 48 0 C48 3.63 48 7.26 48 11 C36.12 11 24.24 11 12 11 C12 19.58 12 28.16 12 37 C21.9 37 31.8 37 42 37 C42 40.63 42 44.26 42 48 C32.1 48 22.2 48 12 48 C12 57.24 12 66.48 12 76 C23.88 76 35.76 76 48 76 C48 79.63 48 83.26 48 87 C32.16 87 16.32 87 0 87 C0 58.29 0 29.58 0 0 Z " fill="#000000" transform="translate(1106,28)"/>
<path d="M0 0 C15.84 0 31.68 0 48 0 C48 3.63 48 7.26 48 11 C36.12 11 24.24 11 12 11 C12 19.58 12 28.16 12 37 C21.9 37 31.8 37 42 37 C42 40.63 42 44.26 42 48 C32.1 48 22.2 48 12 48 C12 57.24 12 66.48 12 76 C23.88 76 35.76 76 48 76 C48 79.63 48 83.26 48 87 C32.16 87 16.32 87 0 87 C0 58.29 0 29.58 0 0 Z " fill="#000000" transform="translate(479,28)"/>
<path d="M0 0 C21.12 0 42.24 0 64 0 C64 3.63 64 7.26 64 11 C55.42 11 46.84 11 38 11 C38 36.08 38 61.16 38 87 C34.04 87 30.08 87 26 87 C26 61.92 26 36.84 26 11 C17.42 11 8.84 11 0 11 C0 7.37 0 3.74 0 0 Z " fill="#040404" transform="translate(612,28)"/>
<path d="M0 0 C20.79 0 41.58 0 63 0 C63 3.63 63 7.26 63 11 C54.75 11 46.5 11 38 11 C38 36.08 38 61.16 38 87 C34.04 87 30.08 87 26 87 C26 61.92 26 36.84 26 11 C17.42 11 8.84 11 0 11 C0 7.37 0 3.74 0 0 Z " fill="#030303" transform="translate(169,28)"/>
<path d="M0 0 C3.96 0 7.92 0 12 0 C12 25.41 12 50.82 12 77 C23.55 77 35.1 77 47 77 C47 80.3 47 83.6 47 87 C31.49 87 15.98 87 0 87 C0 58.29 0 29.58 0 0 Z " fill="#000000" transform="translate(1050,28)"/>
<path d="M0 0 C3.96 0 7.92 0 12 0 C12 25.41 12 50.82 12 77 C23.55 77 35.1 77 47 77 C47 80.3 47 83.6 47 87 C31.49 87 15.98 87 0 87 C0 58.29 0 29.58 0 0 Z " fill="#000000" transform="translate(540,28)"/>
<path d="M0 0 C3.96 0 7.92 0 12 0 C12 28.71 12 57.42 12 87 C8.04 87 4.08 87 0 87 C0 58.29 0 29.58 0 0 Z " fill="#000000" transform="translate(753,28)"/>
<path d="M0 0 C19.63870968 0 19.63870968 0 26 4 C29.77484674 7.77484674 31.14038029 11.02334896 31.25 16.3125 C31.15386069 22.24429562 29.45202951 25.58023781 25.1875 29.75 C16.82614468 35.65213317 10.91546943 34 0 34 C0 22.78 0 11.56 0 0 Z " fill="#F9F9F9" transform="translate(696,38)"/>
<path d="M0 0 C20.86075949 0 20.86075949 0 27 5 C30.18305836 8.36685701 31.23020138 11.99425273 31.4375 16.5625 C31.13478972 22.31399532 29.31680346 25.71245884 25.1875 29.75 C16.82614468 35.65213317 10.91546943 34 0 34 C0 22.78 0 11.56 0 0 Z " fill="#F9F9F9" transform="translate(253,38)"/>
<path d="M0 0 C3.0502678 2.58569116 4.31710302 5.50424963 5.91796875 9.12890625 C6.44970703 10.32837891 6.98144531 11.52785156 7.52929688 12.76367188 C7.8012085 13.38685303 8.07312012 14.01003418 8.35327148 14.65209961 C9.18763009 16.5627979 10.03334073 18.46815483 10.88085938 20.37304688 C15 29.72284226 15 29.72284226 15 32 C5.43 32 -4.14 32 -14 32 C-12.4325 28.390625 -10.865 24.78125 -9.25 21.0625 C-8.7643457 19.94367432 -8.27869141 18.82484863 -7.77832031 17.67211914 C-5.21312991 11.76894604 -2.62648994 5.87616755 0 0 Z " fill="#F7F7F7" transform="translate(814,53)"/>
<path d="M0 0 C0.66 0.33 1.32 0.66 2 1 C1.67 2.98 1.34 4.96 1 7 C0.01 7 -0.98 7 -2 7 C-2 8.98 -2 10.96 -2 13 C-2.63164062 13.2475 -3.26328125 13.495 -3.9140625 13.75 C-6.11560768 14.80295507 -6.11560768 14.80295507 -6.8359375 16.8125 C-7.01382812 17.534375 -7.19171875 18.25625 -7.375 19 C-9.33800993 25.70243171 -13.15637079 31.23455619 -17 37 C-17 37.99 -17 38.98 -17 40 C-12.57323972 41.10056597 -8.25267162 41.1347519 -3.72143555 41.11352539 C-2.90140549 41.11367142 -2.08137543 41.11381744 -1.23649597 41.1139679 C1.46345704 41.1132734 4.16334035 41.1055027 6.86328125 41.09765625 C8.73943545 41.09579043 10.61559013 41.0943673 12.491745 41.09336853 C17.422021 41.0895563 22.3522674 41.07973707 27.28253174 41.06866455 C32.31660563 41.05842259 37.35068431 41.05386494 42.38476562 41.04882812 C52.2565234 41.03811364 62.12825924 41.02105276 72 41 C70.47444034 36.18877153 70.47444034 36.18877153 67 33 C66.59270772 30.67843403 66.25561323 28.3431213 66 26 C68.25624743 28.91150492 70.2295298 31.9049705 72.125 35.0625 C72.64320313 35.91972656 73.16140625 36.77695313 73.6953125 37.66015625 C75 40 75 40 76 43 C43.66 43 11.32 43 -22 43 C-20.66526878 39.66317194 -19.37367219 36.66124516 -17.71484375 33.515625 C-17.27052002 32.6702417 -16.82619629 31.8248584 -16.3684082 30.95385742 C-15.8962085 30.06158447 -15.42400879 29.16931152 -14.9375 28.25 C-14.4530542 27.33001221 -13.9686084 26.41002441 -13.46948242 25.4621582 C-11.98239803 22.63998087 -10.49167628 19.81975255 -9 17 C-8.53948242 16.12843262 -8.07896484 15.25686523 -7.60449219 14.35888672 C-5.07416276 9.57019651 -2.53930965 4.78393399 0 0 Z " fill="#7EC7C4" transform="translate(333,72)"/>
<path d="M0 0 C2.25624743 2.91150492 4.2295298 5.9049705 6.125 9.0625 C6.64320313 9.91972656 7.16140625 10.77695313 7.6953125 11.66015625 C9 14 9 14 10 17 C-19.35220086 17.12007635 -48.66200953 16.96097956 -78 16 C-78 15.67 -78 15.34 -78 15 C-50.28 15 -22.56 15 6 15 C3.98848737 8.22510108 3.98848737 8.22510108 1 7 C0.59270772 4.67843403 0.25561323 2.3431213 0 0 Z " fill="#6EBDBA" transform="translate(399,98)"/>
<path d="M0 0 C0.33 0 0.66 0 1 0 C1.1799928 5.21979128 0.97094808 9.07262981 -1 14 C0.23363281 13.57074219 1.46726562 13.14148438 2.73828125 12.69921875 C8.48473018 10.78598531 14.31476333 9.28340807 20.1875 7.8125 C21.24130859 7.53986328 22.29511719 7.26722656 23.38085938 6.98632812 C24.40373047 6.72916016 25.42660156 6.47199219 26.48046875 6.20703125 C27.39723389 5.9747583 28.31399902 5.74248535 29.25854492 5.50317383 C32.22551961 4.95860754 34.98998476 4.91447405 38 5 C32.82044165 7.8239552 27.10444078 8.9909205 21.4375 10.5 C20.30763672 10.80808594 19.17777344 11.11617187 18.01367188 11.43359375 C11.05297029 13.30100131 4.11381003 14.84325372 -3 16 C-2.69075786 13.89535207 -2.3774944 11.7912947 -2.0625 9.6875 C-1.88847656 8.51574219 -1.71445313 7.34398437 -1.53515625 6.13671875 C-1 3 -1 3 0 0 Z " fill="#73C1BD" transform="translate(8,122)"/>
<path d="M0 0 C1.9375 0.8125 1.9375 0.8125 4 2 C4.33 2.99 4.66 3.98 5 5 C7.01508358 5.73323796 7.01508358 5.73323796 9 6 C9.33 7.32 9.66 8.64 10 10 C6.940229 10.84357963 3.8767954 11.6730202 0.8125 12.5 C-0.05181641 12.73847656 -0.91613281 12.97695312 -1.80664062 13.22265625 C-2.64775391 13.44824219 -3.48886719 13.67382812 -4.35546875 13.90625 C-5.12528076 14.11572266 -5.89509277 14.32519531 -6.68823242 14.54101562 C-9.17823523 15.03538729 -11.46781499 15.07833519 -14 15 C-13 13 -13 13 -9.83984375 11.9296875 C-8.54126339 11.57008063 -7.24033915 11.21885784 -5.9375 10.875 C-5.27427734 10.69324219 -4.61105469 10.51148437 -3.92773438 10.32421875 C-2.28708521 9.87569596 -0.64377551 9.43692614 1 9 C1.2165625 8.0409375 1.2165625 8.0409375 1.4375 7.0625 C2 5 2 5 3 4 C2.01 3.67 1.02 3.34 0 3 C0 2.01 0 1.02 0 0 Z " fill="#74C1BC" transform="translate(89,104)"/>
<path d="M0 0 C2 3 2 3 1.5390625 5.53125 C1.23742188 6.5109375 0.93578125 7.490625 0.625 8.5 C-0.85079177 13.78076792 -1.19677917 18.27069559 -0.8125 23.72265625 C-1.04715742 26.57276612 -1.93175264 27.13595934 -4 29 C-4.7269226 32.10839021 -4.7269226 32.10839021 -5 35 C-5.66 35 -6.32 35 -7 35 C-6.26209611 27.52755549 -4.60192502 20.31420182 -2.9375 13 C-2.51500977 11.12248047 -2.51500977 11.12248047 -2.08398438 9.20703125 C-1.39269604 6.13724235 -0.69794475 3.06828108 0 0 Z " fill="#74C4BF" transform="translate(22,61)"/>
<path d="M0 0 C2.54630052 2.32718267 4.1984032 4.77923517 5.9375 7.75 C6.45699219 8.63429688 6.97648437 9.51859375 7.51171875 10.4296875 C8.00285156 11.27789062 8.49398438 12.12609375 9 13 C9.39832031 13.68320312 9.79664063 14.36640625 10.20703125 15.0703125 C11.90138164 18.00210981 13.53443685 20.94674344 15 24 C14.34 24 13.68 24 13 24 C11.65668346 22.00669158 10.32405988 20.00615134 9 18 C8.01 17.34 7.02 16.68 6 16 C5.30741771 14.00882592 4.64252365 12.0078864 4 10 C2.68864588 7.63709315 2.68864588 7.63709315 1 6 C0.01 6 -0.98 6 -2 6 C-1.49396008 3.83125748 -1.00016187 2.00032373 0 0 Z " fill="#76C4C1" transform="translate(357,28)"/>
<path d="M0 0 C0.66 0 1.32 0 2 0 C1.29843593 7.15595346 -0.30785021 14.01855181 -2 21 C-0.87851563 20.65775391 -0.87851563 20.65775391 0.265625 20.30859375 C1.25046875 20.02113281 2.2353125 19.73367187 3.25 19.4375 C4.22453125 19.14746094 5.1990625 18.85742188 6.203125 18.55859375 C8.96243932 18.00750164 10.3912824 18.06210391 13 19 C12.01 19.33 11.02 19.66 10 20 C9.67 20.66 9.34 21.32 9 22 C5.04 22 1.08 22 -3 22 C-3.45755719 14.37404682 -1.74536299 7.3970146 0 0 Z " fill="#DFFAFA" transform="translate(7,117)"/>
<path d="M0 0 C1.17539996 0.92652701 2.34010577 1.86663387 3.5 2.8125 C4.1496875 3.33457031 4.799375 3.85664062 5.46875 4.39453125 C7 6 7 6 7 9 C6.401875 8.360625 5.80375 7.72125 5.1875 7.0625 C3.09189663 4.79689611 3.09189663 4.79689611 0 4 C-0.06058594 4.75925781 -0.12117188 5.51851562 -0.18359375 6.30078125 C-0.30927734 7.79158203 -0.30927734 7.79158203 -0.4375 9.3125 C-0.51871094 10.29863281 -0.59992187 11.28476562 -0.68359375 12.30078125 C-1 15 -1 15 -2 18 C-2.66 18 -3.32 18 -4 18 C-3.41632611 11.69632197 -1.95928381 6.01339937 0 0 Z " fill="#73C0BC" transform="translate(27,43)"/>
<path d="M0 0 C1.9375 0.8125 1.9375 0.8125 4 2 C4.33 2.99 4.66 3.98 5 5 C7.01508358 5.73323796 7.01508358 5.73323796 9 6 C8.67 6.66 8.34 7.32 8 8 C4.86650268 9.04449911 4.01031744 8.93423645 1 8 C1.66 6.68 2.32 5.36 3 4 C2.01 3.67 1.02 3.34 0 3 C0 2.01 0 1.02 0 0 Z " fill="#71C6C5" transform="translate(89,104)"/>
<path d="M0 0 C-3.98475984 2.79908742 -6.97820759 3.44334382 -11.8125 3.6875 C-12.97394531 3.75324219 -14.13539062 3.81898438 -15.33203125 3.88671875 C-16.21246094 3.92410156 -17.09289063 3.96148437 -18 4 C-15.06836714 2.44596314 -12.16634776 1.30198368 -9 0.3125 C-8.154375 0.04050781 -7.30875 -0.23148437 -6.4375 -0.51171875 C-3.8767932 -1.02468085 -2.44171002 -0.84216387 0 0 Z " fill="#DCF8F8" transform="translate(60,125)"/>
<path d="M0 0 C0.33 0 0.66 0 1 0 C0.67 2.31 0.34 4.62 0 7 C-0.66 7 -1.32 7 -2 7 C-2 8.98 -2 10.96 -2 13 C-2.99 13 -3.98 13 -5 13 C-4.48474397 7.71862571 -2.74522883 4.42778844 0 0 Z " fill="#6FC1BC" transform="translate(350,41)"/>
<path d="M0 0 C0.91007812 0.00902344 1.82015625 0.01804687 2.7578125 0.02734375 C3.45648438 0.03894531 4.15515625 0.05054687 4.875 0.0625 C1.56501895 2.26915404 -0.94521436 2.84512095 -4.8125 3.6875 C-5.99199219 3.94789062 -7.17148437 4.20828125 -8.38671875 4.4765625 C-9.74216797 4.76660156 -9.74216797 4.76660156 -11.125 5.0625 C-11.125 4.4025 -11.125 3.7425 -11.125 3.0625 C-9.805 3.0625 -8.485 3.0625 -7.125 3.0625 C-7.125 2.4025 -7.125 1.7425 -7.125 1.0625 C-4.60024538 -0.19987731 -2.81299534 -0.03606404 0 0 Z " fill="#6FBEBD" transform="translate(59.125,121.9375)"/>
<path d="M0 0 C0.66 0 1.32 0 2 0 C0.45454854 5.47932789 -2.15543212 10.11429181 -5 15 C-5.68359375 13.359375 -5.68359375 13.359375 -6 11 C-4.78515625 8.203125 -4.78515625 8.203125 -3.0625 5.25 C-2.49660156 4.26515625 -1.93070312 3.2803125 -1.34765625 2.265625 C-0.90292969 1.51796875 -0.45820313 0.7703125 0 0 Z " fill="#E1FCFC" transform="translate(344,48)"/>
<path d="M0 0 C4.42857143 5.14285714 4.42857143 5.14285714 5 9 C5.66 9 6.32 9 7 9 C7.33 10.32 7.66 11.64 8 13 C7.01 12.67 6.02 12.34 5 12 C4.3125 9.9375 4.3125 9.9375 4 8 C3.34 8 2.68 8 2 8 C0.23537317 4.91190305 0 3.76687864 0 0 Z " fill="#74C3BF" transform="translate(372,53)"/>
<path d="M0 0 C1.53271273 4.58798777 0.02911182 6.77944742 -2 11 C-2.66 11 -3.32 11 -4 11 C-4 11.66 -4 12.32 -4 13 C-4.66 13 -5.32 13 -6 13 C-4.31326082 8.50202887 -2.18326108 4.27113698 0 0 Z " fill="#77C6C2" transform="translate(326,85)"/>
<path d="M0 0 C7 8.75 7 8.75 7 13 C6.01 12.67 5.02 12.34 4 12 C2.9375 9.6875 2.9375 9.6875 2 7 C1.62875 6.29875 1.2575 5.5975 0.875 4.875 C0 3 0 3 0 0 Z " fill="#74C0BF" transform="translate(380,66)"/>
<path d="M0 0 C2.52259061 1.97420135 2.9929808 2.96745642 3.6875 6.1875 C3.790625 7.115625 3.89375 8.04375 4 9 C3.566875 8.505 3.13375 8.01 2.6875 7.5 C1.00259517 5.66781808 1.00259517 5.66781808 -2 6 C-1.49396008 3.83125748 -1.00016187 2.00032373 0 0 Z " fill="#74C0B6" transform="translate(357,28)"/>
<path d="M0 0 C0.66 0.33 1.32 0.66 2 1 C0.02 4.63 -1.96 8.26 -4 12 C-5 9 -5 9 -4.2578125 6.9921875 C-3.88398438 6.29351562 -3.51015625 5.59484375 -3.125 4.875 C-2.75632812 4.17117187 -2.38765625 3.46734375 -2.0078125 2.7421875 C-1 1 -1 1 0 0 Z " fill="#E3FDFC" transform="translate(356,27)"/>
<path d="M0 0 C0.99 0 1.98 0 3 0 C6.125 5.5 6.125 5.5 5 10 C3.35 6.7 1.7 3.4 0 0 Z " fill="#DAF8F9" transform="translate(362,35)"/>
<path d="M0 0 C3.25543229 0.34879632 4.01873107 1.02133261 6.25 3.5625 C6.8275 4.366875 7.405 5.17125 8 6 C6.35 6.33 4.7 6.66 3 7 C3 5.68 3 4.36 3 3 C1.5833253 1.2488427 1.5833253 1.2488427 0 0 Z " fill="#69BEB9" transform="translate(65,82)"/>
<path d="M0 0 C0.66 0.33 1.32 0.66 2 1 C1.67 2.98 1.34 4.96 1 7 C-0.32 6.67 -1.64 6.34 -3 6 C-2.01 4.02 -1.02 2.04 0 0 Z " fill="#71C5C0" transform="translate(333,72)"/>
<path d="M0 0 C1 2 1 2 1 5 C1.66 5.66 2.32 6.32 3 7 C1.02 7 -0.96 7 -3 7 C-1.125 1.125 -1.125 1.125 0 0 Z " fill="#6FBAB3" transform="translate(315,107)"/>
<path d="M0 0 C0.66 0 1.32 0 2 0 C2 2.31 2 4.62 2 7 C1.01 7.33 0.02 7.66 -1 8 C-0.67 5.36 -0.34 2.72 0 0 Z " fill="#76C5C4" transform="translate(13,99)"/>
<path d="M0 0 C3.465 1.485 3.465 1.485 7 3 C6.67 3.99 6.34 4.98 6 6 C3.96166576 4.7260411 1.96147874 3.38938077 0 2 C0 1.34 0 0.68 0 0 Z " fill="#F4F4F4" transform="translate(404,92)"/>
<path d="M0 0 C1.32 0.33 2.64 0.66 4 1 C4.33 3.31 4.66 5.62 5 8 C2.74754119 5.31158141 1.11786042 3.35358125 0 0 Z " fill="#D9F9F9" transform="translate(385,74)"/>
<path d="M0 0 C0.99 0.33 1.98 0.66 3 1 C3.33 2.65 3.66 4.3 4 6 C3.01 6 2.02 6 1 6 C0.67 4.02 0.34 2.04 0 0 Z " fill="#5ABFB8" transform="translate(377,65)"/>
</svg>
